<?xml version="1.0" encoding="utf-8"?>
<!-- Generator: Adobe Illustrator 20.1.0, SVG Export Plug-In . SVG Version: 6.00 Build 0)  -->
<svg version="1.1" id="Layer_1" xmlns="http://www.w3.org/2000/svg" xmlns:xlink="http://www.w3.org/1999/xlink" x="0px" y="0px"
	 viewBox="0 0 160 162" style="enable-background:new 0 0 160 162;" xml:space="preserve">
<title>floor-14</title>
<g id="Assets">
	<g id="floor-14">
		<g id="Page-1">
			<g id="Group-8">
				<path id="Stroke-2" style="fill:none;stroke:#F6F6F6;stroke-width:4;" d="M25.032,160L24.592,6.952H12.95"/>
				<path id="Stroke-4" style="fill:none;stroke:#F6F6F6;stroke-width:4;" d="M58.068,160H34.283L35.227,6.952h14.346"/>
				<path id="Stroke-6" style="fill:none;stroke:#EAEAEA;stroke-width:4;" d="M2.002,6.952h13.215v-5.29h29.826v5.29h13.025V160
					H34.283v-3.4h-9.25v3.4H2.19L2.002,6.952z"/>
			</g>
		</g>
		<path id="Rectangle" style="fill:#EAEAEA;" d="M36,162h124v-4H36V162z"/>
	</g>
</g>
<line style="fill:#EAEAEA;stroke:#EAEAEA;stroke-width:3;stroke-miterlimit:10;" x1="62.828" y1="147.462" x2="62.828" y2="160"/>
<line style="fill:#EAEAEA;stroke:#EAEAEA;stroke-width:1.6;stroke-miterlimit:10;" x1="59.175" y1="151.462" x2="59.175" y2="160"/>
<line style="fill:#EAEAEA;stroke:#EAEAEA;stroke-width:3;stroke-miterlimit:10;" x1="67.525" y1="147.462" x2="67.525" y2="160"/>
<line style="fill:#EAEAEA;stroke:#EAEAEA;stroke-width:3;stroke-miterlimit:10;" x1="72.222" y1="147.462" x2="72.222" y2="160"/>
<line style="fill:#EAEAEA;stroke:#EAEAEA;stroke-width:3;stroke-miterlimit:10;" x1="76.92" y1="147.462" x2="76.92" y2="160"/>
<line style="fill:#EAEAEA;stroke:#EAEAEA;stroke-width:3;stroke-miterlimit:10;" x1="81.617" y1="147.462" x2="81.617" y2="160"/>
<line style="fill:#EAEAEA;stroke:#EAEAEA;stroke-width:3;stroke-miterlimit:10;" x1="86.314" y1="147.462" x2="86.314" y2="160"/>
<line style="fill:#EAEAEA;stroke:#EAEAEA;stroke-width:3;stroke-miterlimit:10;" x1="91.011" y1="147.462" x2="91.011" y2="160"/>
<line style="fill:#EAEAEA;stroke:#EAEAEA;stroke-width:3;stroke-miterlimit:10;" x1="95.708" y1="147.462" x2="95.708" y2="160"/>
<line style="fill:#EAEAEA;stroke:#EAEAEA;stroke-width:3;stroke-miterlimit:10;" x1="100.406" y1="147.462" x2="100.406" y2="160"/>
<line style="fill:#EAEAEA;stroke:#EAEAEA;stroke-width:3;stroke-miterlimit:10;" x1="105.103" y1="147.462" x2="105.103" y2="160"/>
</svg>
