<svg width="46" height="219" viewBox="0 0 46 219" xmlns="http://www.w3.org/2000/svg"><title>floor 20</title><g id="Assets" fill="none" fill-rule="evenodd"><g id="floor-14-type" fill="#676767"><path d="M45 198.48V180.9h-6.3l-.6 3.12H.48L0 185.04l1.38 8.94c-.6 2.1-1.32 5.4-1.32 8.76 0 6.78 2.4 12.72 10.14 12.72h2.7l1.32 3.36h5.7v-3.36h17.94l.84 3.18H45V201h-6.3l-.6 2.1H19.92v-4.26h-7.26v4.26h-1.2c-2.58 0-3.18-1.2-3.18-3.72 0-1.2.18-2.1.42-3h29.4l.6 2.1H45zm.78-36.24c0 11.16-6.42 17.04-16.74 17.04-11.34 0-17.1-7.5-17.1-17.04 0-11.16 6-17.04 16.68-17.04 11.34 0 17.16 7.56 17.16 17.04zm-7.44-.06c0-2.58-1.86-3.9-9.3-3.9-7.92 0-9.72 1.44-9.72 4.02 0 2.58 1.56 3.96 9.3 3.96 7.92 0 9.72-1.44 9.72-4.08zm7.44-35.7c0 11.16-6.42 17.04-16.74 17.04-11.34 0-17.1-7.5-17.1-17.04 0-11.16 6-17.04 16.68-17.04 11.34 0 17.16 7.56 17.16 17.04zm-7.44-.06c0-2.58-1.86-3.9-9.3-3.9-7.92 0-9.72 1.44-9.72 4.02 0 2.58 1.56 3.96 9.3 3.96 7.92 0 9.72-1.44 9.72-4.08zM45 107.76V87.84h-6.3l-.84 4.38H23.88c-.72-1.8-.96-3.72-.96-6.66 0-1.14.12-2.28.3-2.94H12.3c-.12.42-.18 1.08-.18 1.62 0 3.72 2.28 6.42 5.34 8.1v.36h-4.98L12 93.72 13.38 108h6.42l.96-3.42h17.1l.84 3.18H45zm0-36.72V41.16l-12.66-1.02v7.08l3.84 1.86v8.7h-.12l-3.36-4.92C27.72 45.54 22.68 40.8 15.96 40.8c-8.04 0-13.2 5.16-13.2 14.88 0 5.88 1.86 11.04 3.6 14.16h7.86c-.78-2.46-1.26-5.94-1.26-8.7 0-3.96 1.62-6.06 5.22-6.06 3.6 0 6.54 2.52 10.56 6.72l8.82 9.24H45zm.72-52.08c0 10.74-6.6 18.72-21.3 18.72-15.3 0-21.72-9.06-21.72-19.02C2.7 8.04 9.3 0 24 0c15.3 0 21.72 9 21.72 18.96zm-7.98-.18c0-3-3.72-4.44-13.14-4.44-10.92 0-13.86 1.02-13.86 4.5 0 3 3.78 4.5 13.14 4.5 10.86 0 13.86-1.02 13.86-4.56z" id="floor-20"/></g></g></svg>