<svg width="47" height="210" viewBox="0 0 47 210" xmlns="http://www.w3.org/2000/svg"><title>floor 14-type</title><g id="Assets" fill="none" fill-rule="evenodd"><g id="floor-14-type" fill="#676767"><path d="M45.716 189.13V171.52h-6.33l-.603 3.125H.983l-.483 1.02 1.387 8.955C1.284 186.725.56 190.03.56 193.395c0 6.79 2.412 12.74 10.19 12.74h2.712l1.326 3.365h5.728v-3.365h18.026l.844 3.185h6.33v-17.667h-6.33l-.603 2.103H20.516v-4.267H13.22v4.266h-1.205c-2.592 0-3.195-1.202-3.195-3.726 0-1.202.18-2.103.422-3.004h29.54l.604 2.103h6.33zm.784-36.297c0 11.177-6.45 17.066-16.82 17.066-11.395 0-17.183-7.512-17.183-17.067 0-11.177 6.03-17.066 16.76-17.066 11.395 0 17.243 7.572 17.243 17.066zm-7.476-.06c0-2.584-1.87-3.906-9.344-3.906-7.96 0-9.767 1.442-9.767 4.026 0 2.584 1.567 3.966 9.345 3.966 7.958 0 9.766-1.443 9.766-4.087zm7.476-35.755c0 11.178-6.45 17.067-16.82 17.067-11.395 0-17.183-7.512-17.183-17.067 0-11.177 6.03-17.066 16.76-17.066 11.395 0 17.243 7.572 17.243 17.066zm-7.476-.06c0-2.584-1.87-3.906-9.344-3.906-7.96 0-9.767 1.443-9.767 4.026 0 2.584 1.567 3.967 9.345 3.967 7.958 0 9.766-1.443 9.766-4.087zm6.692-18.688V78.32h-6.33l-.844 4.386H24.495c-.724-1.803-.965-3.726-.965-6.67 0-1.142.12-2.284.302-2.945H12.86c-.12.422-.182 1.083-.182 1.624 0 3.725 2.29 6.43 5.366 8.112v.36H13.04l-.482 1.022 1.386 14.302h6.45l.966-3.425h17.182l.844 3.185h6.33zm0-37.438V36.916h-6.692L38 41.903H3.574v6.97l6.15 12.38h6.69l-.36-5.59h21.944l1.024 5.17h6.692zm0-39h-6.692l-.904-4.206h-4.522v17.367h-6.27L3.876 15.643V4.346h22.67V.5h7.052v3.846h4.522L39.024.5h6.692v21.333zM26.546 25.8v-8.174h-9.95v.24l9.768 7.933h.18z"/></g></g></svg>