<?xml version="1.0" encoding="UTF-8"?>
<svg width="375px" height="216px" viewBox="0 0 375 216" version="1.1" xmlns="http://www.w3.org/2000/svg" xmlns:xlink="http://www.w3.org/1999/xlink">
    <!-- Generator: Sketch 47.1 (45422) - http://www.bohemiancoding.com/sketch -->
    <title>desktop-type</title>
    <desc>Created with Sketch.</desc>
    <defs></defs>
    <g id="Assets" stroke="none" stroke-width="1" fill="none" fill-rule="evenodd">
        <g id="desktop-type" fill="#FFFFFF">
            <g id="Group">
                <path d="M21.92,142.96 C26.88,142.96 30.72,141.84 32.72,140.64 L32.72,131.84 C31.68,132.16 30.32,132.4 29.04,132.4 C25.92,132.4 24.16,131.52 24.16,128 L24.16,108.56 L32.32,108.56 L32.32,98.88 L24.16,98.88 L24.16,88.8 L11.12,88.8 L9.2,98.72 L3.44,100.96 L3.44,108.56 L7.68,108.56 L7.68,130.64 C7.68,140 12.88,142.96 21.92,142.96 Z M35.6,142 L59.12,142 L59.12,133.6 L56.32,132.8 L56.32,111.28 C57.68,110.8 58.96,110.4 60.72,110.4 C63.52,110.4 64.8,111.44 64.8,114.32 L64.8,132.8 L62,133.6 L62,142 L85.12,142 L85.12,133.6 L81.28,132.48 L81.28,108.4 C81.28,100.96 76.56,97.92 70.32,97.92 C64.16,97.92 60.56,100.08 56.72,103.2 L56.32,103.2 L56.32,82.64 L54.88,81.92 L35.28,83.84 L35.28,92.32 L39.84,93.6 L39.84,132.48 L35.6,133.6 L35.6,142 Z M110.64,143.04 C95.44,143.04 87.2,135.2 87.2,120.4 C87.2,106.16 95.84,97.92 109.52,97.92 C122.96,97.92 129.6,104.08 129.6,123.28 L104.32,123.28 C105.2,129.92 108.88,131.84 115.28,131.84 C120.8,131.84 124.56,130.88 127.6,129.92 L127.6,138.72 C124.4,140.88 119.2,143.04 110.64,143.04 Z M109.36,107.6 C106.88,107.6 104.8,109.04 104.24,115.76 L113.92,115.36 C113.92,109.12 111.84,107.6 109.36,107.6 Z M163.92,142.96 C168.88,142.96 172.72,141.84 174.72,140.64 L174.72,131.84 C173.68,132.16 172.32,132.4 171.04,132.4 C167.92,132.4 166.16,131.52 166.16,128 L166.16,108.56 L174.32,108.56 L174.32,98.88 L166.16,98.88 L166.16,88.8 L153.12,88.8 L151.2,98.72 L145.44,100.96 L145.44,108.56 L149.68,108.56 L149.68,130.64 C149.68,140 154.88,142.96 163.92,142.96 Z M200.32,143.04 C185.44,143.04 177.6,134.48 177.6,120.72 C177.6,105.6 187.6,97.92 200.32,97.92 C215.2,97.92 223.04,105.92 223.04,120.16 C223.04,135.28 212.96,143.04 200.32,143.04 Z M200.4,133.12 C203.84,133.12 205.6,130.64 205.6,120.72 C205.6,110.16 203.68,107.76 200.24,107.76 C196.8,107.76 194.96,109.84 194.96,120.16 C194.96,130.72 196.88,133.12 200.4,133.12 Z M237.68,142 L252.24,142 L258.64,119.6 L258.88,119.6 L265.28,142 L279.68,142 L289.6,108.32 L292.64,107.28 L292.64,98.88 L274.4,98.88 L274.4,107.28 L277.36,108.16 L273.84,122.96 L273.52,122.96 L266.56,98.88 L255.04,98.88 L248.08,122.96 L247.76,122.96 L244.16,108.16 L247.28,107.28 L247.28,98.88 L224.72,98.88 L224.72,107.28 L227.76,108.32 L237.68,142 Z M318.08,143.04 C302.88,143.04 294.64,135.2 294.64,120.4 C294.64,106.16 303.28,97.92 316.96,97.92 C330.4,97.92 337.04,104.08 337.04,123.28 L311.76,123.28 C312.64,129.92 316.32,131.84 322.72,131.84 C328.24,131.84 332,130.88 335.04,129.92 L335.04,138.72 C331.84,140.88 326.64,143.04 318.08,143.04 Z M316.8,107.6 C314.32,107.6 312.24,109.04 311.68,115.76 L321.36,115.36 C321.36,109.12 319.28,107.6 316.8,107.6 Z M339.6,142 L366.16,142 L366.16,133.6 L360.32,132.48 L360.32,113.84 C362.72,112.88 365.28,112.56 369.2,112.56 C370.72,112.56 372.24,112.72 373.12,112.96 L373.12,98.4 C372.56,98.24 371.68,98.16 370.96,98.16 C366,98.16 362.4,101.2 360.16,105.28 L359.68,105.28 L359.68,98.64 L358.32,98 L339.28,99.84 L339.28,108.4 L343.84,109.68 L343.84,132.48 L339.6,133.6 L339.6,142 Z M1.2,214 L24.72,214 L24.72,205.6 L21.92,204.8 L21.92,183.28 C23.28,182.8 24.56,182.4 26.32,182.4 C29.12,182.4 30.4,183.44 30.4,186.32 L30.4,204.8 L27.6,205.6 L27.6,214 L50.72,214 L50.72,205.6 L46.88,204.48 L46.88,180.4 C46.88,172.96 42.16,169.92 35.92,169.92 C29.76,169.92 25.84,172.08 21.76,175.44 L21.28,175.44 L21.28,170.64 L19.92,170 L0.88,171.84 L0.88,180.4 L5.44,181.68 L5.44,204.48 L1.2,205.6 L1.2,214 Z M76.32,215.04 C61.12,215.04 52.88,207.2 52.88,192.4 C52.88,178.16 61.52,169.92 75.2,169.92 C88.64,169.92 95.28,176.08 95.28,195.28 L70,195.28 C70.88,201.92 74.56,203.84 80.96,203.84 C86.48,203.84 90.24,202.88 93.28,201.92 L93.28,210.72 C90.08,212.88 84.88,215.04 76.32,215.04 Z M75.04,179.6 C72.56,179.6 70.48,181.04 69.92,187.76 L79.6,187.36 C79.6,181.12 77.52,179.6 75.04,179.6 Z M98.08,214 L117.04,214 L117.04,205.6 L114,204.8 L118.48,198.4 L118.72,198.4 L123.28,204.8 L120.32,205.6 L120.32,214 L145.92,214 L145.92,205.6 L142.48,204.56 L133.68,193.28 L143.04,180.24 L145.6,179.28 L145.6,170.88 L127.92,170.88 L127.92,179.28 L130.88,180.08 L126.56,186.8 L126.24,186.8 L121.92,180.08 L124.88,179.28 L124.88,170.88 L98.88,170.88 L98.88,179.28 L102.48,180.4 L111.52,192 L101.6,204.56 L98.08,205.6 L98.08,214 Z M166.24,214.96 C171.2,214.96 175.04,213.84 177.04,212.64 L177.04,203.84 C176,204.16 174.64,204.4 173.36,204.4 C170.24,204.4 168.48,203.52 168.48,200 L168.48,180.56 L176.64,180.56 L176.64,170.88 L168.48,170.88 L168.48,160.8 L155.44,160.8 L153.52,170.72 L147.76,172.96 L147.76,180.56 L152,180.56 L152,202.64 C152,212 157.2,214.96 166.24,214.96 Z M210.32,214.96 C202.24,214.96 193.84,209.92 193.84,193.52 C193.84,175.84 203.2,169.92 214.48,169.92 C217.84,169.92 219.6,170.48 221.28,171.2 L221.28,165.68 L216.64,164.4 L216.64,155.84 L236.32,154 L237.76,154.64 L237.76,203.2 L242,204.48 L242,212.88 L224.4,214.8 L223.04,214.16 L223.04,210.08 L222.56,210.08 C220.24,213.04 215.76,214.96 210.32,214.96 Z M216.88,203.52 C218.72,203.52 220.08,203.12 221.28,202.4 L221.28,181.28 C220.32,180.56 219.36,180 217.36,180 C213.6,180 211.2,182.08 211.2,191.84 C211.2,200.8 213.2,203.52 216.88,203.52 Z M266.96,215.04 C252.08,215.04 244.24,206.48 244.24,192.72 C244.24,177.6 254.24,169.92 266.96,169.92 C281.84,169.92 289.68,177.92 289.68,192.16 C289.68,207.28 279.6,215.04 266.96,215.04 Z M267.04,205.12 C270.48,205.12 272.24,202.64 272.24,192.72 C272.24,182.16 270.32,179.76 266.88,179.76 C263.44,179.76 261.6,181.84 261.6,192.16 C261.6,202.72 263.52,205.12 267.04,205.12 Z M314.64,215.04 C299.76,215.04 291.92,206.48 291.92,192.72 C291.92,177.6 301.92,169.92 314.64,169.92 C329.52,169.92 337.36,177.92 337.36,192.16 C337.36,207.28 327.28,215.04 314.64,215.04 Z M314.72,205.12 C318.16,205.12 319.92,202.64 319.92,192.72 C319.92,182.16 318,179.76 314.56,179.76 C311.12,179.76 309.28,181.84 309.28,192.16 C309.28,202.72 311.2,205.12 314.72,205.12 Z M339.6,214 L366.16,214 L366.16,205.6 L360.32,204.48 L360.32,185.84 C362.72,184.88 365.28,184.56 369.2,184.56 C370.72,184.56 372.24,184.72 373.12,184.96 L373.12,170.4 C372.56,170.24 371.68,170.16 370.96,170.16 C366,170.16 362.4,173.2 360.16,177.28 L359.68,177.28 L359.68,170.64 L358.32,170 L339.28,171.84 L339.28,180.4 L343.84,181.68 L343.84,204.48 L339.6,205.6 L339.6,214 Z" id="the-tower-next-door" transform="translate(187.000000, 148.480000) rotate(-360.000000) translate(-187.000000, -148.480000) "></path>
                <path d="M304.42,21 L317.72,21 L318.056,16.1 L317.356,16.1 L316.768,20.188 L308.004,20.188 L308.004,2.436 L310.748,2.212 L310.748,1.596 L304.42,1.596 L304.42,2.212 L306.912,2.436 L306.912,20.16 L304.42,20.384 L304.42,21 Z M319.064,21 L324.72,21 L324.72,20.44 L322.396,20.244 L322.396,6.776 L322.256,6.692 L318.952,6.972 L318.952,7.56 L321.388,7.756 L321.388,20.244 L319.064,20.44 L319.064,21 Z M321.752,3.22 C322.228,3.22 322.564,2.828 322.564,2.408 C322.564,1.988 322.228,1.596 321.752,1.596 C321.276,1.596 320.94,1.988 320.94,2.408 C320.94,2.828 321.276,3.22 321.752,3.22 Z M325.56,21 L325.56,20.44 L327.8,20.244 L327.8,7.616 L325.532,7.616 L325.532,7.056 L327.8,6.776 L327.8,4.564 C327.8,1.428 329.48,0.252 331.804,0.252 C332.728,0.252 333.344,0.42 333.988,0.672 L333.988,1.316 C333.344,1.176 332.784,1.064 332.056,1.064 C330.068,1.064 328.808,1.848 328.808,4.62 L328.808,6.776 L332.616,6.776 L332.616,7.616 L328.808,7.616 L328.808,20.244 L331.44,20.44 L331.44,21 L325.56,21 Z M340.4,21.224 C335.416,21.224 333.904,17.948 333.904,13.86 C333.904,9.1 336.48,6.552 339.896,6.552 C343.424,6.552 345.412,8.96 345.412,13.412 L334.968,13.412 C334.884,17.724 336.256,20.384 340.568,20.384 C342.724,20.384 343.956,19.852 344.936,19.376 L344.936,20.048 C344.04,20.58 342.612,21.224 340.4,21.224 Z M334.996,12.712 L344.292,12.6 C344.236,9.044 342.64,7.308 339.84,7.308 C336.956,7.308 335.22,9.38 334.996,12.712 Z M352.188,21 L357.844,21 L357.844,20.44 L355.52,20.244 L355.52,6.776 L355.38,6.692 L352.076,6.972 L352.076,7.56 L354.512,7.756 L354.512,20.244 L352.188,20.44 L352.188,21 Z M354.876,3.22 C355.352,3.22 355.688,2.828 355.688,2.408 C355.688,1.988 355.352,1.596 354.876,1.596 C354.4,1.596 354.064,1.988 354.064,2.408 C354.064,2.828 354.4,3.22 354.876,3.22 Z M358.656,21 L364.228,21 L364.228,20.44 L361.904,20.244 L361.904,8.988 C363.472,8.148 365.236,7.448 367.056,7.448 C369.408,7.448 370.388,8.428 370.388,10.556 L370.388,20.244 L368.092,20.44 L368.092,21 L373.636,21 L373.636,20.44 L371.396,20.244 L371.396,10.248 C371.396,7.728 370.024,6.552 367.42,6.552 C365.46,6.552 363.556,7.336 361.932,8.288 L361.876,8.288 L361.876,6.776 L361.736,6.692 L358.6,6.972 L358.6,7.56 L360.896,7.756 L360.896,20.244 L358.656,20.44 L358.656,21 Z M245.34,49.196 C246.18,49.196 247.104,48.916 247.692,48.58 L247.692,47.992 C247.076,48.216 246.404,48.384 245.676,48.384 C244.024,48.384 243.268,47.768 243.268,45.864 L243.268,35.616 L247.356,35.616 L247.356,34.776 L243.268,34.776 L243.268,31.36 L242.512,31.36 L242.316,34.776 L240.132,35.056 L240.132,35.616 L242.26,35.616 L242.26,46.088 C242.26,48.356 243.52,49.196 245.34,49.196 Z M248.7,49 L254.272,49 L254.272,48.44 L251.948,48.244 L251.948,36.988 C253.516,36.148 255.28,35.448 257.1,35.448 C259.452,35.448 260.432,36.428 260.432,38.556 L260.432,48.244 L258.136,48.44 L258.136,49 L263.68,49 L263.68,48.44 L261.44,48.244 L261.44,38.248 C261.44,35.728 260.068,34.552 257.464,34.552 C255.504,34.552 253.628,35.336 252.004,36.26 L251.948,36.26 L251.948,28.364 L251.808,28.28 L248.504,28.56 L248.504,29.148 L250.94,29.344 L250.94,48.244 L248.7,48.44 L248.7,49 Z M271.408,49.224 C266.424,49.224 264.912,45.948 264.912,41.86 C264.912,37.1 267.488,34.552 270.904,34.552 C274.432,34.552 276.42,36.96 276.42,41.412 L265.976,41.412 C265.892,45.724 267.264,48.384 271.576,48.384 C273.732,48.384 274.964,47.852 275.944,47.376 L275.944,48.048 C275.048,48.58 273.62,49.224 271.408,49.224 Z M266.004,40.712 L275.3,40.6 C275.244,37.044 273.648,35.308 270.848,35.308 C267.964,35.308 266.228,37.38 266.004,40.712 Z M288.208,49.252 C291.596,49.252 293.22,47.656 293.22,45.332 C293.22,43.12 291.932,42.168 289.692,41.524 L287.816,40.992 C285.632,40.376 285.016,39.536 285.016,38.024 C285.016,36.26 286.304,35.336 288.376,35.336 C289.916,35.336 290.84,35.644 291.512,36.036 L291.876,38.08 L292.548,38.08 L292.436,35.224 C291.484,34.832 290.308,34.58 288.46,34.58 C285.604,34.58 283.98,36.092 283.98,38.248 C283.98,40.18 285.212,41.3 287.34,41.888 L289.216,42.42 C291.344,43.008 292.156,43.708 292.156,45.528 C292.156,47.348 290.952,48.496 288.264,48.496 C286.808,48.496 285.716,48.104 284.848,47.656 L284.456,45.332 L283.784,45.332 L283.98,48.44 C284.932,48.832 286.304,49.252 288.208,49.252 Z M294.732,49 L300.304,49 L300.304,48.44 L297.98,48.244 L297.98,36.988 C299.548,36.148 301.312,35.448 303.132,35.448 C305.484,35.448 306.464,36.428 306.464,38.556 L306.464,48.244 L304.168,48.44 L304.168,49 L309.712,49 L309.712,48.44 L307.472,48.244 L307.472,38.248 C307.472,35.728 306.1,34.552 303.496,34.552 C301.536,34.552 299.66,35.336 298.036,36.26 L297.98,36.26 L297.98,28.364 L297.84,28.28 L294.536,28.56 L294.536,29.148 L296.972,29.344 L296.972,48.244 L294.732,48.44 L294.732,49 Z M315.172,49.252 C312.512,49.252 310.944,47.768 310.944,45.472 C310.944,43.064 312.624,41.888 315.284,41.58 L319.4,41.104 L319.4,38.892 C319.4,36.4 318.616,35.476 316.152,35.476 C314.584,35.476 313.296,35.756 311.896,36.176 L311.896,35.448 C313.016,35 314.612,34.552 316.348,34.552 C319.148,34.552 320.436,35.84 320.436,38.668 L320.436,46.956 C320.436,48.132 320.996,48.44 321.892,48.44 C322.172,48.44 322.648,48.356 322.788,48.328 L322.788,48.86 C322.508,49 321.948,49.168 321.388,49.168 C320.24,49.168 319.568,48.524 319.512,47.46 L319.456,47.46 C318.42,48.552 316.992,49.252 315.172,49.252 Z M315.452,48.412 C317.048,48.412 318.504,47.74 319.4,46.648 L319.4,42 L315.564,42.28 C312.96,42.476 312.008,43.568 312.008,45.332 C312.008,47.376 313.184,48.412 315.452,48.412 Z M329.76,49.224 C326.764,49.224 323.908,47.544 323.908,42.112 C323.908,36.876 326.68,34.552 330.544,34.552 C332.42,34.552 333.54,35.028 334.492,35.448 L334.492,29.372 L331.888,29.176 L331.888,28.588 L335.36,28.308 L335.5,28.392 L335.5,48.104 L337.74,48.3 L337.74,48.86 L334.688,49.14 L334.548,49.028 L334.548,47.404 L334.464,47.404 C333.176,48.412 331.748,49.224 329.76,49.224 Z M330.04,48.356 C331.72,48.356 333.148,47.516 334.492,46.648 L334.492,36.568 C333.428,35.868 332.336,35.336 330.46,35.336 C327.296,35.336 325,37.1 325,41.944 C325,46.76 327.016,48.356 330.04,48.356 Z M345.552,49.252 C342.192,49.252 339.14,46.788 339.14,41.972 C339.14,37.184 342.192,34.552 345.552,34.552 C348.912,34.552 351.964,37.072 351.964,41.86 C351.964,46.648 348.912,49.252 345.552,49.252 Z M345.552,48.468 C348.296,48.468 350.872,46.452 350.872,41.944 C350.872,37.38 348.296,35.336 345.552,35.336 C342.78,35.336 340.232,37.436 340.232,41.888 C340.232,46.396 342.808,48.468 345.552,48.468 Z M358.628,49 L359.468,49 L363.584,36.568 L363.64,36.568 L367.644,49 L368.484,49 L372.488,35.532 L374.14,35.364 L374.14,34.776 L369.632,34.776 L369.632,35.364 L371.62,35.532 L368.148,47.348 L368.092,47.348 L364.032,34.776 L363.304,34.776 L359.188,47.348 L359.132,47.348 L355.66,35.532 L357.676,35.364 L357.676,34.776 L353,34.776 L353,35.364 L354.652,35.532 L358.628,49 Z M262.196,77.252 C258.836,77.252 255.784,74.788 255.784,69.972 C255.784,65.184 258.836,62.552 262.196,62.552 C265.556,62.552 268.608,65.072 268.608,69.86 C268.608,74.648 265.556,77.252 262.196,77.252 Z M262.196,76.468 C264.94,76.468 267.516,74.452 267.516,69.944 C267.516,65.38 264.94,63.336 262.196,63.336 C259.424,63.336 256.876,65.436 256.876,69.888 C256.876,74.396 259.452,76.468 262.196,76.468 Z M269.952,77 L275.832,77 L275.832,76.44 L273.2,76.244 L273.2,63.616 L277.008,63.616 L277.008,62.776 L273.2,62.776 L273.2,60.62 C273.2,57.848 274.46,57.064 276.448,57.064 C277.176,57.064 277.736,57.176 278.38,57.316 L278.38,56.672 C277.736,56.42 277.12,56.252 276.196,56.252 C273.872,56.252 272.192,57.428 272.192,60.564 L272.192,62.776 L269.924,63.056 L269.924,63.616 L272.192,63.616 L272.192,76.244 L269.952,76.44 L269.952,77 Z M293.052,77.308 C295.516,77.308 297.14,76.888 298.568,76.384 L298.568,69.692 L300.808,69.468 L300.808,68.852 L294.704,68.852 L294.704,69.468 L297.448,69.692 L297.448,75.768 C296.188,76.188 294.788,76.524 293.108,76.524 C287.872,76.524 285.184,73.164 285.184,67.172 C285.184,61.404 287.816,58.044 292.8,58.044 C295.04,58.044 296.384,58.436 297.42,58.968 L297.924,62.132 L298.596,62.132 L298.4,58.184 C297.28,57.68 295.768,57.288 292.912,57.288 C287.564,57.288 284.036,60.452 284.036,67.284 C284.036,73.92 287.34,77.308 293.052,77.308 Z M301.788,77 L307.472,77 L307.472,76.44 L305.036,76.244 L305.036,65.492 C306.296,64.26 307.5,63.588 309.18,63.588 C309.404,63.588 309.88,63.616 310.16,63.672 L310.16,62.748 C309.992,62.692 309.516,62.636 309.292,62.636 C307.5,62.636 306.072,63.56 305.064,64.68 L305.008,64.68 L305.008,62.776 L304.868,62.692 L301.732,62.972 L301.732,63.56 L304.028,63.756 L304.028,76.244 L301.788,76.44 L301.788,77 Z M318.196,77.224 C313.212,77.224 311.7,73.948 311.7,69.86 C311.7,65.1 314.276,62.552 317.692,62.552 C321.22,62.552 323.208,64.96 323.208,69.412 L312.764,69.412 C312.68,73.724 314.052,76.384 318.364,76.384 C320.52,76.384 321.752,75.852 322.732,75.376 L322.732,76.048 C321.836,76.58 320.408,77.224 318.196,77.224 Z M312.792,68.712 L322.088,68.6 C322.032,65.044 320.436,63.308 317.636,63.308 C314.752,63.308 313.016,65.38 312.792,68.712 Z M324.524,77 L330.096,77 L330.096,76.44 L327.772,76.244 L327.772,64.988 C329.34,64.148 331.104,63.448 332.924,63.448 C335.276,63.448 336.256,64.428 336.256,66.556 L336.256,76.244 L333.96,76.44 L333.96,77 L339.504,77 L339.504,76.44 L337.264,76.244 L337.264,66.248 C337.264,63.728 335.892,62.552 333.288,62.552 C331.328,62.552 329.424,63.336 327.8,64.288 L327.744,64.288 L327.744,62.776 L327.604,62.692 L324.468,62.972 L324.468,63.56 L326.764,63.756 L326.764,76.244 L324.524,76.44 L324.524,77 Z M340.316,77 L340.316,76.44 L342.556,76.244 L342.556,63.616 L340.288,63.616 L340.288,63.056 L342.556,62.776 L342.556,60.564 C342.556,57.428 344.236,56.252 346.56,56.252 C347.484,56.252 348.1,56.42 348.744,56.672 L348.744,57.316 C348.1,57.176 347.54,57.064 346.812,57.064 C344.824,57.064 343.564,57.848 343.564,60.62 L343.564,62.776 L347.372,62.776 L347.372,63.616 L343.564,63.616 L343.564,76.244 L346.196,76.44 L346.196,77 L340.316,77 Z M355.156,77.224 C350.172,77.224 348.66,73.948 348.66,69.86 C348.66,65.1 351.236,62.552 354.652,62.552 C358.18,62.552 360.168,64.96 360.168,69.412 L349.724,69.412 C349.64,73.724 351.012,76.384 355.324,76.384 C357.48,76.384 358.712,75.852 359.692,75.376 L359.692,76.048 C358.796,76.58 357.368,77.224 355.156,77.224 Z M349.752,68.712 L359.048,68.6 C358.992,65.044 357.396,63.308 354.596,63.308 C351.712,63.308 349.976,65.38 349.752,68.712 Z M361.484,77 L367.168,77 L367.168,76.44 L364.844,76.244 L364.844,56.392 L364.704,56.28 L361.232,56.56 L361.232,57.148 L363.808,57.344 L363.808,76.244 L361.484,76.44 L361.484,77 Z M367.952,77 L373.636,77 L373.636,76.44 L371.312,76.244 L371.312,56.392 L371.172,56.28 L367.7,56.56 L367.7,57.148 L370.276,57.344 L370.276,76.244 L367.952,76.44 L367.952,77 Z" id="Life-in-the-shadow-o"></path>
            </g>
        </g>
    </g>
</svg>