<?xml version="1.0" encoding="UTF-8"?>
<svg width="126px" height="247px" viewBox="0 0 126 247" version="1.1" xmlns="http://www.w3.org/2000/svg" xmlns:xlink="http://www.w3.org/1999/xlink">
    <!-- Generator: Sketch 47.1 (45422) - http://www.bohemiancoding.com/sketch -->
    <title>desktop-type</title>
    <desc>Created with Sketch.</desc>
    <defs></defs>
    <g id="Assets" stroke="none" stroke-width="1" fill="none" fill-rule="evenodd">
        <g id="desktop-type" fill="#FFFFFF">
            <g id="Group" transform="translate(-26.000000, -10.000000)">
                <path d="M50.856,208 L62.616,208 L62.928,203.272 L62.064,203.272 L61.2,206.992 L54.648,206.992 L54.648,192.448 L56.976,192.136 L56.976,191.368 L50.856,191.368 L50.856,192.136 L52.968,192.448 L52.968,206.92 L50.856,207.232 L50.856,208 Z M63.72,208 L69.048,208 L69.048,207.352 L67.152,207.064 L67.152,195.712 L66.96,195.616 L63.6,196.024 L63.6,196.744 L65.592,197.008 L65.592,207.064 L63.72,207.352 L63.72,208 Z M66.264,193.12 C66.864,193.12 67.296,192.64 67.296,192.112 C67.296,191.536 66.864,191.08 66.264,191.08 C65.688,191.08 65.232,191.536 65.232,192.112 C65.232,192.64 65.688,193.12 66.264,193.12 Z M69.768,208 L69.768,207.352 L71.616,207.064 L71.616,196.816 L69.792,196.816 L69.792,196.168 L71.616,195.736 L71.616,194.104 C71.616,191.2 73.272,190.12 75.36,190.12 C76.392,190.12 76.992,190.336 77.496,190.6 L77.496,191.416 C76.992,191.296 76.512,191.2 75.792,191.2 C74.16,191.2 73.152,191.848 73.152,194.2 L73.152,195.736 L76.296,195.736 L76.296,196.816 L73.152,196.816 L73.152,207.064 L75.336,207.352 L75.336,208 L69.768,208 Z M82.944,208.24 C78.696,208.24 77.136,205.48 77.136,201.808 C77.136,197.848 79.512,195.52 82.536,195.52 C85.848,195.52 87.408,197.824 87.408,201.664 L78.744,201.664 C78.768,205.144 80.112,207.088 83.232,207.088 C85.032,207.088 86.04,206.704 86.904,206.344 L86.904,207.16 C86.136,207.616 84.912,208.24 82.944,208.24 Z M78.768,200.752 L85.68,200.608 C85.656,197.824 84.528,196.504 82.44,196.504 C80.256,196.504 78.936,197.992 78.768,200.752 Z M93,208 L98.328,208 L98.328,207.352 L96.432,207.064 L96.432,195.712 L96.24,195.616 L92.88,196.024 L92.88,196.744 L94.872,197.008 L94.872,207.064 L93,207.352 L93,208 Z M95.544,193.12 C96.144,193.12 96.576,192.64 96.576,192.112 C96.576,191.536 96.144,191.08 95.544,191.08 C94.968,191.08 94.512,191.536 94.512,192.112 C94.512,192.64 94.968,193.12 95.544,193.12 Z M98.952,208 L104.232,208 L104.232,207.352 L102.36,207.064 L102.36,197.704 C103.488,197.2 104.712,196.768 105.984,196.768 C107.832,196.768 108.696,197.44 108.696,199.192 L108.696,207.064 L106.824,207.352 L106.824,208 L112.104,208 L112.104,207.352 L110.232,207.064 L110.232,198.76 C110.232,196.456 109.056,195.52 106.8,195.52 C105.216,195.52 103.68,196.144 102.384,196.912 L102.288,196.912 L102.288,195.712 L102.096,195.616 L98.952,196.024 L98.952,196.744 L100.824,197.008 L100.824,207.064 L98.952,207.352 L98.952,208 Z M121.944,208.192 C122.808,208.192 123.696,207.88 124.2,207.568 L124.2,206.872 C123.696,207.016 123.144,207.112 122.568,207.112 C121.104,207.112 120.576,206.536 120.576,205.048 L120.576,196.816 L123.936,196.816 L123.936,195.736 L120.576,195.736 L120.576,192.832 L119.424,192.832 L119.136,195.736 L117.24,196.168 L117.24,196.816 L119.04,196.816 L119.04,205.36 C119.04,207.472 120.096,208.192 121.944,208.192 Z M125.016,208 L130.296,208 L130.296,207.352 L128.424,207.064 L128.424,197.704 C129.552,197.2 130.776,196.768 132.048,196.768 C133.896,196.768 134.76,197.44 134.76,199.192 L134.76,207.064 L132.888,207.352 L132.888,208 L138.168,208 L138.168,207.352 L136.296,207.064 L136.296,198.76 C136.296,196.456 135.12,195.52 132.864,195.52 C131.28,195.52 129.768,196.144 128.472,196.888 L128.376,196.888 L128.376,190.24 L128.184,190.144 L124.944,190.552 L124.944,191.248 L126.888,191.536 L126.888,207.064 L125.016,207.352 L125.016,208 Z M144.864,208.24 C140.616,208.24 139.056,205.48 139.056,201.808 C139.056,197.848 141.432,195.52 144.456,195.52 C147.768,195.52 149.328,197.824 149.328,201.664 L140.664,201.664 C140.688,205.144 142.032,207.088 145.152,207.088 C146.952,207.088 147.96,206.704 148.824,206.344 L148.824,207.16 C148.056,207.616 146.832,208.24 144.864,208.24 Z M140.688,200.752 L147.6,200.608 C147.576,197.824 146.448,196.504 144.36,196.504 C142.176,196.504 140.856,197.992 140.688,200.752 Z M75.288,232.264 C78.336,232.264 79.824,230.728 79.824,228.688 C79.824,226.864 78.864,225.952 76.8,225.304 L75.336,224.872 C73.512,224.32 72.936,223.72 72.936,222.544 C72.936,221.152 73.992,220.528 75.552,220.528 C76.68,220.528 77.376,220.744 77.856,221.032 L78.312,222.856 L79.152,222.856 L79.104,220.048 C78.288,219.76 77.16,219.544 75.696,219.544 C72.984,219.544 71.544,221.032 71.544,222.904 C71.544,224.656 72.6,225.64 74.472,226.192 L75.936,226.648 C77.712,227.176 78.36,227.68 78.36,229.072 C78.36,230.488 77.304,231.28 75.408,231.28 C74.232,231.28 73.344,230.968 72.744,230.656 L72.264,228.592 L71.376,228.592 L71.568,231.592 C72.528,231.928 73.824,232.264 75.288,232.264 Z M80.928,232 L86.208,232 L86.208,231.352 L84.336,231.064 L84.336,221.704 C85.464,221.2 86.688,220.768 87.96,220.768 C89.808,220.768 90.672,221.44 90.672,223.192 L90.672,231.064 L88.8,231.352 L88.8,232 L94.08,232 L94.08,231.352 L92.208,231.064 L92.208,222.76 C92.208,220.456 91.032,219.52 88.776,219.52 C87.192,219.52 85.68,220.144 84.384,220.888 L84.288,220.888 L84.288,214.24 L84.096,214.144 L80.856,214.552 L80.856,215.248 L82.8,215.536 L82.8,231.064 L80.928,231.352 L80.928,232 Z M98.568,232.264 C96.336,232.264 94.872,230.992 94.872,228.952 C94.872,226.864 96.36,226 98.616,225.64 L101.952,225.112 L101.952,223.528 C101.952,221.488 101.472,220.768 99.192,220.768 C98.016,220.768 96.768,220.96 95.808,221.2 L95.808,220.36 C96.744,219.952 98.304,219.52 99.816,219.52 C102.36,219.52 103.512,220.648 103.512,223.096 L103.512,230.2 C103.512,231.088 103.968,231.28 104.712,231.28 C104.856,231.28 105.336,231.256 105.408,231.232 L105.408,231.88 C105.144,232.024 104.496,232.192 103.824,232.192 C102.84,232.192 102.24,231.736 102.12,230.824 L102.024,230.824 C101.256,231.64 100.128,232.264 98.568,232.264 Z M99.096,231.16 C100.248,231.16 101.352,230.632 101.952,229.96 L101.952,226.216 L99.096,226.432 C97.152,226.576 96.48,227.416 96.48,228.784 C96.48,230.296 97.344,231.16 99.096,231.16 Z M111.384,232.24 C108.96,232.24 106.272,230.824 106.272,226.12 C106.272,221.584 108.72,219.52 112.272,219.52 C113.544,219.52 114.36,219.808 115.104,220.072 L115.104,215.584 L112.992,215.296 L112.992,214.6 L116.448,214.192 L116.64,214.288 L116.64,230.848 L118.512,231.136 L118.512,231.784 L115.392,232.192 L115.2,232.072 L115.2,230.752 L115.08,230.752 C114.216,231.592 113.064,232.24 111.384,232.24 Z M111.84,231.016 C113.136,231.016 114.264,230.464 115.104,229.936 L115.104,221.44 C114.384,220.96 113.64,220.528 112.104,220.528 C109.632,220.528 107.88,221.872 107.88,225.904 C107.88,229.672 109.416,231.016 111.84,231.016 Z M125.328,232.264 C122.112,232.264 119.616,229.936 119.616,225.952 C119.616,221.968 122.232,219.52 125.304,219.52 C128.496,219.52 131.016,221.872 131.016,225.832 C131.016,229.816 128.376,232.264 125.328,232.264 Z M125.352,231.256 C127.416,231.256 129.384,229.792 129.384,225.976 C129.384,222.064 127.368,220.528 125.28,220.528 C123.192,220.528 121.248,222.016 121.248,225.832 C121.248,229.696 123.24,231.256 125.352,231.256 Z M136.44,232 L137.616,232 L140.928,222.088 L140.976,222.088 L144.12,232 L145.296,232 L148.728,220.696 L150.072,220.432 L150.072,219.736 L145.968,219.736 L145.968,220.432 L147.576,220.696 L144.936,229.792 L144.864,229.792 L141.624,219.736 L140.592,219.736 L137.328,229.792 L137.256,229.792 L134.568,220.696 L136.2,220.432 L136.2,219.736 L131.688,219.736 L131.688,220.432 L133.032,220.696 L136.44,232 Z M51.864,256.264 C48.648,256.264 46.152,253.936 46.152,249.952 C46.152,245.968 48.768,243.52 51.84,243.52 C55.032,243.52 57.552,245.872 57.552,249.832 C57.552,253.816 54.912,256.264 51.864,256.264 Z M51.888,255.256 C53.952,255.256 55.92,253.792 55.92,249.976 C55.92,246.064 53.904,244.528 51.816,244.528 C49.728,244.528 47.784,246.016 47.784,249.832 C47.784,253.696 49.776,255.256 51.888,255.256 Z M58.608,256 L64.176,256 L64.176,255.352 L61.992,255.064 L61.992,244.816 L65.136,244.816 L65.136,243.736 L61.992,243.736 L61.992,242.2 C61.992,239.848 63,239.2 64.632,239.2 C65.352,239.2 65.832,239.296 66.336,239.416 L66.336,238.6 C65.832,238.336 65.232,238.12 64.2,238.12 C62.112,238.12 60.456,239.2 60.456,242.104 L60.456,243.736 L58.632,244.168 L58.632,244.816 L60.456,244.816 L60.456,255.064 L58.608,255.352 L58.608,256 Z M78.72,256.288 C80.688,256.288 82.224,255.976 83.52,255.52 L83.52,249.784 L85.368,249.472 L85.368,248.728 L79.536,248.728 L79.536,249.472 L81.816,249.784 L81.816,254.704 C80.952,254.992 79.944,255.256 78.648,255.256 C74.424,255.256 72.48,252.496 72.48,247.48 C72.48,242.824 74.52,240.088 78.48,240.088 C80.112,240.088 81.192,240.4 81.984,240.808 L82.704,243.52 L83.568,243.52 L83.376,239.776 C82.392,239.392 80.952,239.08 78.648,239.08 C74.28,239.08 70.704,241.528 70.704,247.792 C70.704,253.648 73.68,256.288 78.72,256.288 Z M86.016,256 L91.464,256 L91.464,255.352 L89.424,255.064 L89.424,246.184 C90.36,245.392 91.368,244.96 92.664,244.96 C92.88,244.96 93.288,244.984 93.552,245.032 L93.552,243.664 C93.432,243.616 93.048,243.568 92.856,243.568 C91.416,243.568 90.24,244.408 89.448,245.32 L89.352,245.32 L89.352,243.712 L89.16,243.616 L86.016,244.024 L86.016,244.744 L87.888,245.008 L87.888,255.064 L86.016,255.352 L86.016,256 Z M100.416,256.24 C96.168,256.24 94.608,253.48 94.608,249.808 C94.608,245.848 96.984,243.52 100.008,243.52 C103.32,243.52 104.88,245.824 104.88,249.664 L96.216,249.664 C96.24,253.144 97.584,255.088 100.704,255.088 C102.504,255.088 103.512,254.704 104.376,254.344 L104.376,255.16 C103.608,255.616 102.384,256.24 100.416,256.24 Z M96.24,248.752 L103.152,248.608 C103.128,245.824 102,244.504 99.912,244.504 C97.728,244.504 96.408,245.992 96.24,248.752 Z M105.864,256 L111.144,256 L111.144,255.352 L109.272,255.064 L109.272,245.704 C110.4,245.2 111.624,244.768 112.896,244.768 C114.744,244.768 115.608,245.44 115.608,247.192 L115.608,255.064 L113.736,255.352 L113.736,256 L119.016,256 L119.016,255.352 L117.144,255.064 L117.144,246.76 C117.144,244.456 115.968,243.52 113.712,243.52 C112.128,243.52 110.592,244.144 109.296,244.912 L109.2,244.912 L109.2,243.712 L109.008,243.616 L105.864,244.024 L105.864,244.744 L107.736,245.008 L107.736,255.064 L105.864,255.352 L105.864,256 Z M119.688,256 L119.688,255.352 L121.536,255.064 L121.536,244.816 L119.712,244.816 L119.712,244.168 L121.536,243.736 L121.536,242.104 C121.536,239.2 123.192,238.12 125.28,238.12 C126.312,238.12 126.912,238.336 127.416,238.6 L127.416,239.416 C126.912,239.296 126.432,239.2 125.712,239.2 C124.08,239.2 123.072,239.848 123.072,242.2 L123.072,243.736 L126.216,243.736 L126.216,244.816 L123.072,244.816 L123.072,255.064 L125.256,255.352 L125.256,256 L119.688,256 Z M132.864,256.24 C128.616,256.24 127.056,253.48 127.056,249.808 C127.056,245.848 129.432,243.52 132.456,243.52 C135.768,243.52 137.328,245.824 137.328,249.664 L128.664,249.664 C128.688,253.144 130.032,255.088 133.152,255.088 C134.952,255.088 135.96,254.704 136.824,254.344 L136.824,255.16 C136.056,255.616 134.832,256.24 132.864,256.24 Z M128.688,248.752 L135.6,248.608 C135.576,245.824 134.448,244.504 132.36,244.504 C130.176,244.504 128.856,245.992 128.688,248.752 Z M138.336,256 L143.688,256 L143.688,255.352 L141.792,255.064 L141.792,238.264 L141.6,238.144 L138.168,238.552 L138.168,239.272 L140.232,239.536 L140.232,255.064 L138.336,255.352 L138.336,256 Z M144.336,256 L149.688,256 L149.688,255.352 L147.792,255.064 L147.792,238.264 L147.6,238.144 L144.168,238.552 L144.168,239.272 L146.232,239.536 L146.232,255.064 L144.336,255.352 L144.336,256 Z" id="Life-in-the-shadow-o"></path>
                <path d="M91.984,44.528 C94.712,44.528 96.824,43.912 97.924,43.252 L97.924,38.412 C97.352,38.588 96.604,38.72 95.9,38.72 C94.184,38.72 93.216,38.236 93.216,36.3 L93.216,25.608 L97.704,25.608 L97.704,20.284 L93.216,20.284 L93.216,14.74 L86.044,14.74 L84.988,20.196 L81.82,21.428 L81.82,25.608 L84.152,25.608 L84.152,37.752 C84.152,42.9 87.012,44.528 91.984,44.528 Z M99.508,44 L112.444,44 L112.444,39.38 L110.904,38.94 L110.904,27.104 C111.652,26.84 112.356,26.62 113.324,26.62 C114.864,26.62 115.568,27.192 115.568,28.776 L115.568,38.94 L114.028,39.38 L114.028,44 L126.744,44 L126.744,39.38 L124.632,38.764 L124.632,25.52 C124.632,21.428 122.036,19.756 118.604,19.756 C115.216,19.756 113.236,20.944 111.124,22.66 L110.904,22.66 L110.904,11.352 L110.112,10.956 L99.332,12.012 L99.332,16.676 L101.84,17.38 L101.84,38.764 L99.508,39.38 L99.508,44 Z M140.78,44.572 C132.42,44.572 127.888,40.26 127.888,32.12 C127.888,24.288 132.64,19.756 140.164,19.756 C147.556,19.756 151.208,23.144 151.208,33.704 L137.304,33.704 C137.788,37.356 139.812,38.412 143.332,38.412 C146.368,38.412 148.436,37.884 150.108,37.356 L150.108,42.196 C148.348,43.384 145.488,44.572 140.78,44.572 Z M140.076,25.08 C138.712,25.08 137.568,25.872 137.26,29.568 L142.584,29.348 C142.584,25.916 141.44,25.08 140.076,25.08 Z M36.456,88.528 C39.184,88.528 41.296,87.912 42.396,87.252 L42.396,82.412 C41.824,82.588 41.076,82.72 40.372,82.72 C38.656,82.72 37.688,82.236 37.688,80.3 L37.688,69.608 L42.176,69.608 L42.176,64.284 L37.688,64.284 L37.688,58.74 L30.516,58.74 L29.46,64.196 L26.292,65.428 L26.292,69.608 L28.624,69.608 L28.624,81.752 C28.624,86.9 31.484,88.528 36.456,88.528 Z M56.476,88.572 C48.292,88.572 43.98,83.864 43.98,76.296 C43.98,67.98 49.48,63.756 56.476,63.756 C64.66,63.756 68.972,68.156 68.972,75.988 C68.972,84.304 63.428,88.572 56.476,88.572 Z M56.52,83.116 C58.412,83.116 59.38,81.752 59.38,76.296 C59.38,70.488 58.324,69.168 56.432,69.168 C54.54,69.168 53.528,70.312 53.528,75.988 C53.528,81.796 54.584,83.116 56.52,83.116 Z M77.024,88 L85.032,88 L88.552,75.68 L88.684,75.68 L92.204,88 L100.124,88 L105.58,69.476 L107.252,68.904 L107.252,64.284 L97.22,64.284 L97.22,68.904 L98.848,69.388 L96.912,77.528 L96.736,77.528 L92.908,64.284 L86.572,64.284 L82.744,77.528 L82.568,77.528 L80.588,69.388 L82.304,68.904 L82.304,64.284 L69.896,64.284 L69.896,68.904 L71.568,69.476 L77.024,88 Z M121.244,88.572 C112.884,88.572 108.352,84.26 108.352,76.12 C108.352,68.288 113.104,63.756 120.628,63.756 C128.02,63.756 131.672,67.144 131.672,77.704 L117.768,77.704 C118.252,81.356 120.276,82.412 123.796,82.412 C126.832,82.412 128.9,81.884 130.572,81.356 L130.572,86.196 C128.812,87.384 125.952,88.572 121.244,88.572 Z M120.54,69.08 C119.176,69.08 118.032,69.872 117.724,73.568 L123.048,73.348 C123.048,69.916 121.904,69.08 120.54,69.08 Z M133.08,88 L147.688,88 L147.688,83.38 L144.476,82.764 L144.476,72.512 C145.796,71.984 147.204,71.808 149.36,71.808 C150.196,71.808 151.032,71.896 151.516,72.028 L151.516,64.02 C151.208,63.932 150.724,63.888 150.328,63.888 C147.6,63.888 145.62,65.56 144.388,67.804 L144.124,67.804 L144.124,64.152 L143.376,63.8 L132.904,64.812 L132.904,69.52 L135.412,70.224 L135.412,82.764 L133.08,83.38 L133.08,88 Z M54.32,132 L67.256,132 L67.256,127.38 L65.716,126.94 L65.716,115.104 C66.464,114.84 67.168,114.62 68.136,114.62 C69.676,114.62 70.38,115.192 70.38,116.776 L70.38,126.94 L68.84,127.38 L68.84,132 L81.556,132 L81.556,127.38 L79.444,126.764 L79.444,113.52 C79.444,109.428 76.848,107.756 73.416,107.756 C70.028,107.756 67.872,108.944 65.628,110.792 L65.364,110.792 L65.364,108.152 L64.616,107.8 L54.144,108.812 L54.144,113.52 L56.652,114.224 L56.652,126.764 L54.32,127.38 L54.32,132 Z M95.636,132.572 C87.276,132.572 82.744,128.26 82.744,120.12 C82.744,112.288 87.496,107.756 95.02,107.756 C102.412,107.756 106.064,111.144 106.064,121.704 L92.16,121.704 C92.644,125.356 94.668,126.412 98.188,126.412 C101.224,126.412 103.292,125.884 104.964,125.356 L104.964,130.196 C103.204,131.384 100.344,132.572 95.636,132.572 Z M94.932,113.08 C93.568,113.08 92.424,113.872 92.116,117.568 L97.44,117.348 C97.44,113.916 96.296,113.08 94.932,113.08 Z M107.604,132 L118.032,132 L118.032,127.38 L116.36,126.94 L118.824,123.42 L118.956,123.42 L121.464,126.94 L119.836,127.38 L119.836,132 L133.916,132 L133.916,127.38 L132.024,126.808 L127.184,120.604 L132.332,113.432 L133.74,112.904 L133.74,108.284 L124.016,108.284 L124.016,112.904 L125.644,113.344 L123.268,117.04 L123.092,117.04 L120.716,113.344 L122.344,112.904 L122.344,108.284 L108.044,108.284 L108.044,112.904 L110.024,113.52 L114.996,119.9 L109.54,126.808 L107.604,127.38 L107.604,132 Z M145.092,132.528 C147.82,132.528 149.932,131.912 151.032,131.252 L151.032,126.412 C150.46,126.588 149.712,126.72 149.008,126.72 C147.292,126.72 146.324,126.236 146.324,124.3 L146.324,113.608 L150.812,113.608 L150.812,108.284 L146.324,108.284 L146.324,102.74 L139.152,102.74 L138.096,108.196 L134.928,109.428 L134.928,113.608 L137.26,113.608 L137.26,125.752 C137.26,130.9 140.12,132.528 145.092,132.528 Z M61.976,176.528 C57.532,176.528 52.912,173.756 52.912,164.736 C52.912,155.012 58.06,151.756 64.264,151.756 C66.112,151.756 67.08,152.064 68.004,152.46 L68.004,149.424 L65.452,148.72 L65.452,144.012 L76.276,143 L77.068,143.352 L77.068,170.06 L79.4,170.764 L79.4,175.384 L69.72,176.44 L68.972,176.088 L68.972,173.844 L68.708,173.844 C67.432,175.472 64.968,176.528 61.976,176.528 Z M65.584,170.236 C66.596,170.236 67.344,170.016 68.004,169.62 L68.004,158.004 C67.476,157.608 66.948,157.3 65.848,157.3 C63.78,157.3 62.46,158.444 62.46,163.812 C62.46,168.74 63.56,170.236 65.584,170.236 Z M93.128,176.572 C84.944,176.572 80.632,171.864 80.632,164.296 C80.632,155.98 86.132,151.756 93.128,151.756 C101.312,151.756 105.624,156.156 105.624,163.988 C105.624,172.304 100.08,176.572 93.128,176.572 Z M93.172,171.116 C95.064,171.116 96.032,169.752 96.032,164.296 C96.032,158.488 94.976,157.168 93.084,157.168 C91.192,157.168 90.18,158.312 90.18,163.988 C90.18,169.796 91.236,171.116 93.172,171.116 Z M119.352,176.572 C111.168,176.572 106.856,171.864 106.856,164.296 C106.856,155.98 112.356,151.756 119.352,151.756 C127.536,151.756 131.848,156.156 131.848,163.988 C131.848,172.304 126.304,176.572 119.352,176.572 Z M119.396,171.116 C121.288,171.116 122.256,169.752 122.256,164.296 C122.256,158.488 121.2,157.168 119.308,157.168 C117.416,157.168 116.404,158.312 116.404,163.988 C116.404,169.796 117.46,171.116 119.396,171.116 Z M133.08,176 L147.688,176 L147.688,171.38 L144.476,170.764 L144.476,160.512 C145.796,159.984 147.204,159.808 149.36,159.808 C150.196,159.808 151.032,159.896 151.516,160.028 L151.516,152.02 C151.208,151.932 150.724,151.888 150.328,151.888 C147.6,151.888 145.62,153.56 144.388,155.804 L144.124,155.804 L144.124,152.152 L143.376,151.8 L132.904,152.812 L132.904,157.52 L135.412,158.224 L135.412,170.764 L133.08,171.38 L133.08,176 Z" id="the-tower-next-door" transform="translate(88.904000, 93.764000) rotate(-360.000000) translate(-88.904000, -93.764000) "></path>
            </g>
        </g>
    </g>
</svg>