<?xml version="1.0" encoding="UTF-8"?>
<svg width="313px" height="119px" viewBox="0 0 313 119" version="1.1" xmlns="http://www.w3.org/2000/svg" xmlns:xlink="http://www.w3.org/1999/xlink">
    <!-- Generator: Sketch 47.1 (45422) - http://www.bohemiancoding.com/sketch -->
    <title>floor-14-type-horizontal</title>
    <desc>Created with Sketch.</desc>
    <defs></defs>
    <g id="Assets" stroke="none" stroke-width="1" fill="none" fill-rule="evenodd">
        <g id="floor-14-type-horizontal" fill="#676767">
            <g id="maxilla-social-club" transform="translate(1.000000, -13.000000)">
                <path d="M0.84,59 L18.36,59 L18.36,52.7 L16.38,52.1 L16.38,35.96 C17.4,35.54 18.12,35.3 19.5,35.3 C21.54,35.3 22.32,36.08 22.32,38.36 L22.32,52.1 L20.4,52.7 L20.4,59 L36.66,59 L36.66,52.7 L34.68,52.1 L34.68,37.04 C34.68,36.74 34.62,36.08 34.62,35.96 C35.64,35.54 36.54,35.3 37.68,35.3 C39.84,35.3 40.62,36.08 40.62,38.36 L40.62,52.1 L38.7,52.7 L38.7,59 L55.8,59 L55.8,52.7 L52.98,51.86 L52.98,33.92 C52.98,28.34 49.2,25.94 44.7,25.94 C40.14,25.94 36.66,27.8 34.08,30.2 L33.78,30.2 C32.52,27.26 29.76,25.94 26.46,25.94 C21.9,25.94 18.96,27.56 16.26,29.9 L15.9,29.9 L15.9,26.48 L14.88,26 L0.6,27.38 L0.6,33.8 L4.02,34.76 L4.02,51.86 L0.84,52.7 L0.84,59 Z M66.78,59.78 C60.9,59.78 57.24,56.06 57.24,50.9 C57.24,44.42 61.8,42.32 69.48,40.94 L74.52,39.98 L74.52,38.84 C74.52,36.02 73.2,34.88 68.76,34.88 C65.82,34.88 62.64,35.12 60.42,35.48 L60.42,28.22 C63.66,27.08 68.76,25.94 74.58,25.94 C83.04,25.94 86.88,29.48 86.88,36.8 L86.88,50.24 C86.88,51.62 87.78,52.1 88.86,52.1 L89.7,52.1 L89.7,58.1 C88.5,58.88 85.62,59.78 82.86,59.78 C79.14,59.78 76.92,58.64 75.9,55.88 L75.6,55.88 C73.98,58.04 70.86,59.78 66.78,59.78 Z M72.12,52.76 C73.14,52.76 74.04,52.28 74.52,51.8 L74.52,45.38 L72.54,45.44 C70.5,45.56 69.48,46.64 69.48,49.16 C69.48,51.74 70.2,52.76 72.12,52.76 Z M91.44,59 L105.66,59 L105.66,52.7 L103.38,52.1 L106.74,47.3 L106.92,47.3 L110.34,52.1 L108.12,52.7 L108.12,59 L127.32,59 L127.32,52.7 L124.74,51.92 L118.14,43.46 L125.16,33.68 L127.08,32.96 L127.08,26.66 L113.82,26.66 L113.82,32.96 L116.04,33.56 L112.8,38.6 L112.56,38.6 L109.32,33.56 L111.54,32.96 L111.54,26.66 L92.04,26.66 L92.04,32.96 L94.74,33.8 L101.52,42.5 L94.08,51.92 L91.44,52.7 L91.44,59 Z M128.94,59 L147.42,59 L147.42,52.7 L144.48,51.86 L144.48,26.48 L143.4,26 L128.64,27.38 L128.64,33.8 L132.12,34.76 L132.12,51.86 L128.94,52.7 L128.94,59 Z M138,24.8 C141.72,24.8 144.72,22.64 144.72,18.92 C144.72,15.2 141.72,13.04 138,13.04 C134.34,13.04 131.28,15.2 131.28,18.92 C131.28,22.64 134.34,24.8 138,24.8 Z M149.04,59 L167.82,59 L167.82,52.7 L164.7,51.86 L164.7,14.48 L163.68,14 L148.74,15.38 L148.74,21.74 L152.34,22.76 L152.34,51.86 L149.04,52.7 L149.04,59 Z M169.44,59 L188.22,59 L188.22,52.7 L185.1,51.86 L185.1,14.48 L184.08,14 L169.14,15.38 L169.14,21.74 L172.74,22.76 L172.74,51.86 L169.44,52.7 L169.44,59 Z M199.2,59.78 C193.32,59.78 189.66,56.06 189.66,50.9 C189.66,44.42 194.22,42.32 201.9,40.94 L206.94,39.98 L206.94,38.84 C206.94,36.02 205.62,34.88 201.18,34.88 C198.24,34.88 195.06,35.12 192.84,35.48 L192.84,28.22 C196.08,27.08 201.18,25.94 207,25.94 C215.46,25.94 219.3,29.48 219.3,36.8 L219.3,50.24 C219.3,51.62 220.2,52.1 221.28,52.1 L222.12,52.1 L222.12,58.1 C220.92,58.88 218.04,59.78 215.28,59.78 C211.56,59.78 209.34,58.64 208.32,55.88 L208.02,55.88 C206.4,58.04 203.28,59.78 199.2,59.78 Z M204.54,52.76 C205.56,52.76 206.46,52.28 206.94,51.8 L206.94,45.38 L204.96,45.44 C202.92,45.56 201.9,46.64 201.9,49.16 C201.9,51.74 202.62,52.76 204.54,52.76 Z M13.26,119.78 C24.6,119.78 29.16,115.16 29.16,107.96 C29.16,102.98 26.52,99.56 19.86,98.24 L15.84,97.4 C12.9,96.8 11.88,96.26 11.88,94.82 C11.88,93.32 13.56,92.72 15.6,92.72 C17.22,92.72 18.24,93.08 18.9,93.44 L19.5,96.26 L27.12,96.26 L27.12,87.8 C24.36,86.54 20.04,85.88 15.96,85.88 C5.4,85.88 0.84,90.5 0.84,97.1 C0.84,103.04 4.14,105.92 10.38,107.18 L13.92,107.96 C16.38,108.5 17.28,108.98 17.28,110.42 C17.28,111.92 15.96,112.82 13.62,112.82 C11.94,112.82 10.56,112.34 9.9,111.92 L8.82,108.86 L1.02,108.86 L1.56,117.74 C4.98,119.12 9.54,119.78 13.26,119.78 Z M48,119.78 C36.84,119.78 30.96,113.36 30.96,103.04 C30.96,91.7 38.46,85.94 48,85.94 C59.16,85.94 65.04,91.94 65.04,102.62 C65.04,113.96 57.48,119.78 48,119.78 Z M48.06,112.34 C50.64,112.34 51.96,110.48 51.96,103.04 C51.96,95.12 50.52,93.32 47.94,93.32 C45.36,93.32 43.98,94.88 43.98,102.62 C43.98,110.54 45.42,112.34 48.06,112.34 Z M84,119.78 C89.58,119.78 93.42,118.16 95.34,116.78 L95.34,110.06 C93.66,110.72 90.84,111.32 88.02,111.32 C82.68,111.32 79.86,109.16 79.86,102.08 C79.86,95.36 81.6,93.32 84.48,93.32 C85.68,93.32 86.1,93.56 86.52,93.74 L87.24,97.88 L95.22,97.88 L95.22,87.26 C93.36,86.6 89.16,85.94 84.96,85.94 C73.8,85.94 66.72,91.28 66.72,103.04 C66.72,113.42 72.18,119.78 84,119.78 Z M97.98,119 L116.46,119 L116.46,112.7 L113.52,111.86 L113.52,86.48 L112.44,86 L97.68,87.38 L97.68,93.8 L101.16,94.76 L101.16,111.86 L97.98,112.7 L97.98,119 Z M107.04,84.8 C110.76,84.8 113.76,82.64 113.76,78.92 C113.76,75.2 110.76,73.04 107.04,73.04 C103.38,73.04 100.32,75.2 100.32,78.92 C100.32,82.64 103.38,84.8 107.04,84.8 Z M127.44,119.78 C121.56,119.78 117.9,116.06 117.9,110.9 C117.9,104.42 122.46,102.32 130.14,100.94 L135.18,99.98 L135.18,98.84 C135.18,96.02 133.86,94.88 129.42,94.88 C126.48,94.88 123.3,95.12 121.08,95.48 L121.08,88.22 C124.32,87.08 129.42,85.94 135.24,85.94 C143.7,85.94 147.54,89.48 147.54,96.8 L147.54,110.24 C147.54,111.62 148.44,112.1 149.52,112.1 L150.36,112.1 L150.36,118.1 C149.16,118.88 146.28,119.78 143.52,119.78 C139.8,119.78 137.58,118.64 136.56,115.88 L136.26,115.88 C134.64,118.04 131.52,119.78 127.44,119.78 Z M132.78,112.76 C133.8,112.76 134.7,112.28 135.18,111.8 L135.18,105.38 L133.2,105.44 C131.16,105.56 130.14,106.64 130.14,109.16 C130.14,111.74 130.86,112.76 132.78,112.76 Z M151.92,119 L170.7,119 L170.7,112.7 L167.58,111.86 L167.58,74.48 L166.56,74 L151.62,75.38 L151.62,81.74 L155.22,82.76 L155.22,111.86 L151.92,112.7 L151.92,119 Z M199.8,119.78 C205.38,119.78 209.22,118.16 211.14,116.78 L211.14,110.06 C209.46,110.72 206.64,111.32 203.82,111.32 C198.48,111.32 195.66,109.16 195.66,102.08 C195.66,95.36 197.4,93.32 200.28,93.32 C201.48,93.32 201.9,93.56 202.32,93.74 L203.04,97.88 L211.02,97.88 L211.02,87.26 C209.16,86.6 204.96,85.94 200.76,85.94 C189.6,85.94 182.52,91.28 182.52,103.04 C182.52,113.42 187.98,119.78 199.8,119.78 Z M213.78,119 L232.56,119 L232.56,112.7 L229.44,111.86 L229.44,74.48 L228.42,74 L213.48,75.38 L213.48,81.74 L217.08,82.76 L217.08,111.86 L213.78,112.7 L213.78,119 Z M246.24,119.72 C250.74,119.72 253.68,117.8 255.72,115.64 L256.08,115.64 L256.08,119.12 L257.16,119.6 L271.2,118.16 L271.2,111.86 L268.02,110.9 L268.02,86.54 L266.94,86 L252.78,87.32 L252.78,93.68 L255.66,94.7 L255.66,109.7 C254.76,110.06 253.8,110.42 252.24,110.42 C250.02,110.42 249.24,109.46 249.24,107.3 L249.24,86.54 L248.22,86 L233.82,87.32 L233.82,93.68 L236.88,94.7 L236.88,110.9 C236.88,116.48 239.52,119.72 246.24,119.72 Z M290.04,119.78 C283.44,119.78 277.92,118.46 274.98,116.72 L274.98,83 L271.86,82.04 L271.86,75.32 L286.26,73.94 L287.34,74.42 L287.34,89.24 L287.7,89.24 C289.44,87.74 292.08,85.88 296.4,85.88 C302.16,85.88 307.92,89.54 307.92,101.54 C307.92,115.1 300.6,119.78 290.04,119.78 Z M290.28,112.4 C293.28,112.4 294.9,110.78 294.9,102.98 C294.9,96.68 293.58,94.64 290.76,94.64 C289.2,94.64 288.18,94.94 287.34,95.42 L287.34,111.5 C288,111.98 288.72,112.4 290.28,112.4 Z" transform="translate(154.260000, 66.410000) rotate(-360.000000) translate(-154.260000, -66.410000) "></path>
            </g>
        </g>
    </g>
</svg>