<?xml version="1.0" encoding="UTF-8"?>
<svg width="300px" height="264px" viewBox="0 0 300 264" version="1.1" xmlns="http://www.w3.org/2000/svg" xmlns:xlink="http://www.w3.org/1999/xlink">
    <!-- Generator: Sketch 47.1 (45422) - http://www.bohemiancoding.com/sketch -->
    <title>floor-14-type-horizontal</title>
    <desc>Created with Sketch.</desc>
    <defs></defs>
    <g id="Assets" stroke="none" stroke-width="1" fill="none" fill-rule="evenodd">
        <g id="floor-14-type-horizontal" fill="#EAEAEA">
            <g id="maxilla-social-club" transform="translate(1.000000, -6.000000)">
                <path d="M2,79 L25.36,79 L25.36,70.6 L22.72,69.8 L22.72,48.28 C24.08,47.72 25.04,47.4 26.88,47.4 C29.6,47.4 30.64,48.44 30.64,51.48 L30.64,69.8 L28.08,70.6 L28.08,79 L49.76,79 L49.76,70.6 L47.12,69.8 L47.12,49.72 C47.12,49.32 47.04,48.44 47.04,48.28 C48.4,47.72 49.6,47.4 51.12,47.4 C54,47.4 55.04,48.44 55.04,51.48 L55.04,69.8 L52.48,70.6 L52.48,79 L75.28,79 L75.28,70.6 L71.52,69.48 L71.52,45.56 C71.52,38.12 66.48,34.92 60.48,34.92 C54.4,34.92 49.76,37.4 46.32,40.6 L45.92,40.6 C44.24,36.68 40.56,34.92 36.16,34.92 C30.08,34.92 26.16,37.08 22.56,40.2 L22.08,40.2 L22.08,35.64 L20.72,35 L1.68,36.84 L1.68,45.4 L6.24,46.68 L6.24,69.48 L2,70.6 L2,79 Z M89.92,80.04 C82.08,80.04 77.2,75.08 77.2,68.2 C77.2,59.56 83.28,56.76 93.52,54.92 L100.24,53.64 L100.24,52.12 C100.24,48.36 98.48,46.84 92.56,46.84 C88.64,46.84 84.4,47.16 81.44,47.64 L81.44,37.96 C85.76,36.44 92.56,34.92 100.32,34.92 C111.6,34.92 116.72,39.64 116.72,49.4 L116.72,67.32 C116.72,69.16 117.92,69.8 119.36,69.8 L120.48,69.8 L120.48,77.8 C118.88,78.84 115.04,80.04 111.36,80.04 C106.4,80.04 103.44,78.52 102.08,74.84 L101.68,74.84 C99.52,77.72 95.36,80.04 89.92,80.04 Z M97.04,70.68 C98.4,70.68 99.6,70.04 100.24,69.4 L100.24,60.84 L97.6,60.92 C94.88,61.08 93.52,62.52 93.52,65.88 C93.52,69.32 94.48,70.68 97.04,70.68 Z M122.8,79 L141.76,79 L141.76,70.6 L138.72,69.8 L143.2,63.4 L143.44,63.4 L148,69.8 L145.04,70.6 L145.04,79 L170.64,79 L170.64,70.6 L167.2,69.56 L158.4,58.28 L167.76,45.24 L170.32,44.28 L170.32,35.88 L152.64,35.88 L152.64,44.28 L155.6,45.08 L151.28,51.8 L150.96,51.8 L146.64,45.08 L149.6,44.28 L149.6,35.88 L123.6,35.88 L123.6,44.28 L127.2,45.4 L136.24,57 L126.32,69.56 L122.8,70.6 L122.8,79 Z M172.8,79 L197.44,79 L197.44,70.6 L193.52,69.48 L193.52,35.64 L192.08,35 L172.4,36.84 L172.4,45.4 L177.04,46.68 L177.04,69.48 L172.8,70.6 L172.8,79 Z M184.88,33.4 C189.84,33.4 193.84,30.52 193.84,25.56 C193.84,20.6 189.84,17.72 184.88,17.72 C180,17.72 175.92,20.6 175.92,25.56 C175.92,30.52 180,33.4 184.88,33.4 Z M199.6,79 L224.64,79 L224.64,70.6 L220.48,69.48 L220.48,19.64 L219.12,19 L199.2,20.84 L199.2,29.32 L204,30.68 L204,69.48 L199.6,70.6 L199.6,79 Z M226.8,79 L251.84,79 L251.84,70.6 L247.68,69.48 L247.68,19.64 L246.32,19 L226.4,20.84 L226.4,29.32 L231.2,30.68 L231.2,69.48 L226.8,70.6 L226.8,79 Z M266.48,80.04 C258.64,80.04 253.76,75.08 253.76,68.2 C253.76,59.56 259.84,56.76 270.08,54.92 L276.8,53.64 L276.8,52.12 C276.8,48.36 275.04,46.84 269.12,46.84 C265.2,46.84 260.96,47.16 258,47.64 L258,37.96 C262.32,36.44 269.12,34.92 276.88,34.92 C288.16,34.92 293.28,39.64 293.28,49.4 L293.28,67.32 C293.28,69.16 294.48,69.8 295.92,69.8 L297.04,69.8 L297.04,77.8 C295.44,78.84 291.6,80.04 287.92,80.04 C282.96,80.04 280,78.52 278.64,74.84 L278.24,74.84 C276.08,77.72 271.92,80.04 266.48,80.04 Z M273.6,70.68 C274.96,70.68 276.16,70.04 276.8,69.4 L276.8,60.84 L274.16,60.92 C271.44,61.08 270.08,62.52 270.08,65.88 C270.08,69.32 271.04,70.68 273.6,70.68 Z M87.04,160.04 C102.16,160.04 108.24,153.88 108.24,144.28 C108.24,137.64 104.72,133.08 95.84,131.32 L90.48,130.2 C86.56,129.4 85.2,128.68 85.2,126.76 C85.2,124.76 87.44,123.96 90.16,123.96 C92.32,123.96 93.68,124.44 94.56,124.92 L95.36,128.68 L105.52,128.68 L105.52,117.4 C101.84,115.72 96.08,114.84 90.64,114.84 C76.56,114.84 70.48,121 70.48,129.8 C70.48,137.72 74.88,141.56 83.2,143.24 L87.92,144.28 C91.2,145 92.4,145.64 92.4,147.56 C92.4,149.56 90.64,150.76 87.52,150.76 C85.28,150.76 83.44,150.12 82.56,149.56 L81.12,145.48 L70.72,145.48 L71.44,157.32 C76,159.16 82.08,160.04 87.04,160.04 Z M133.36,160.04 C118.48,160.04 110.64,151.48 110.64,137.72 C110.64,122.6 120.64,114.92 133.36,114.92 C148.24,114.92 156.08,122.92 156.08,137.16 C156.08,152.28 146,160.04 133.36,160.04 Z M133.44,150.12 C136.88,150.12 138.64,147.64 138.64,137.72 C138.64,127.16 136.72,124.76 133.28,124.76 C129.84,124.76 128,126.84 128,137.16 C128,147.72 129.92,150.12 133.44,150.12 Z M181.36,160.04 C188.8,160.04 193.92,157.88 196.48,156.04 L196.48,147.08 C194.24,147.96 190.48,148.76 186.72,148.76 C179.6,148.76 175.84,145.88 175.84,136.44 C175.84,127.48 178.16,124.76 182,124.76 C183.6,124.76 184.16,125.08 184.72,125.32 L185.68,130.84 L196.32,130.84 L196.32,116.68 C193.84,115.8 188.24,114.92 182.64,114.92 C167.76,114.92 158.32,122.04 158.32,137.72 C158.32,151.56 165.6,160.04 181.36,160.04 Z M200,159 L224.64,159 L224.64,150.6 L220.72,149.48 L220.72,115.64 L219.28,115 L199.6,116.84 L199.6,125.4 L204.24,126.68 L204.24,149.48 L200,150.6 L200,159 Z M212.08,113.4 C217.04,113.4 221.04,110.52 221.04,105.56 C221.04,100.6 217.04,97.72 212.08,97.72 C207.2,97.72 203.12,100.6 203.12,105.56 C203.12,110.52 207.2,113.4 212.08,113.4 Z M239.28,160.04 C231.44,160.04 226.56,155.08 226.56,148.2 C226.56,139.56 232.64,136.76 242.88,134.92 L249.6,133.64 L249.6,132.12 C249.6,128.36 247.84,126.84 241.92,126.84 C238,126.84 233.76,127.16 230.8,127.64 L230.8,117.96 C235.12,116.44 241.92,114.92 249.68,114.92 C260.96,114.92 266.08,119.64 266.08,129.4 L266.08,147.32 C266.08,149.16 267.28,149.8 268.72,149.8 L269.84,149.8 L269.84,157.8 C268.24,158.84 264.4,160.04 260.72,160.04 C255.76,160.04 252.8,158.52 251.44,154.84 L251.04,154.84 C248.88,157.72 244.72,160.04 239.28,160.04 Z M246.4,150.68 C247.76,150.68 248.96,150.04 249.6,149.4 L249.6,140.84 L246.96,140.92 C244.24,141.08 242.88,142.52 242.88,145.88 C242.88,149.32 243.84,150.68 246.4,150.68 Z M271.92,159 L296.96,159 L296.96,150.6 L292.8,149.48 L292.8,99.64 L291.44,99 L271.52,100.84 L271.52,109.32 L276.32,110.68 L276.32,149.48 L271.92,150.6 L271.92,159 Z M152.4,240.04 C159.84,240.04 164.96,237.88 167.52,236.04 L167.52,227.08 C165.28,227.96 161.52,228.76 157.76,228.76 C150.64,228.76 146.88,225.88 146.88,216.44 C146.88,207.48 149.2,204.76 153.04,204.76 C154.64,204.76 155.2,205.08 155.76,205.32 L156.72,210.84 L167.36,210.84 L167.36,196.68 C164.88,195.8 159.28,194.92 153.68,194.92 C138.8,194.92 129.36,202.04 129.36,217.72 C129.36,231.56 136.64,240.04 152.4,240.04 Z M171.04,239 L196.08,239 L196.08,230.6 L191.92,229.48 L191.92,179.64 L190.56,179 L170.64,180.84 L170.64,189.32 L175.44,190.68 L175.44,229.48 L171.04,230.6 L171.04,239 Z M214.32,239.96 C220.32,239.96 224.24,237.4 226.96,234.52 L227.44,234.52 L227.44,239.16 L228.88,239.8 L247.6,237.88 L247.6,229.48 L243.36,228.2 L243.36,195.72 L241.92,195 L223.04,196.76 L223.04,205.24 L226.88,206.6 L226.88,226.6 C225.68,227.08 224.4,227.56 222.32,227.56 C219.36,227.56 218.32,226.28 218.32,223.4 L218.32,195.72 L216.96,195 L197.76,196.76 L197.76,205.24 L201.84,206.6 L201.84,228.2 C201.84,235.64 205.36,239.96 214.32,239.96 Z M272.72,240.04 C263.92,240.04 256.56,238.28 252.64,235.96 L252.64,191 L248.48,189.72 L248.48,180.76 L267.68,178.92 L269.12,179.56 L269.12,199.32 L269.6,199.32 C271.92,197.32 275.44,194.84 281.2,194.84 C288.88,194.84 296.56,199.72 296.56,215.72 C296.56,233.8 286.8,240.04 272.72,240.04 Z M273.04,230.2 C277.04,230.2 279.2,228.04 279.2,217.64 C279.2,209.24 277.44,206.52 273.68,206.52 C271.6,206.52 270.24,206.92 269.12,207.56 L269.12,229 C270,229.64 270.96,230.2 273.04,230.2 Z" transform="translate(149.360000, 128.880000) rotate(-360.000000) translate(-149.360000, -128.880000) "></path>
            </g>
        </g>
    </g>
</svg>