<svg width="313" height="119" viewBox="0 0 313 119" xmlns="http://www.w3.org/2000/svg"><title>floor-14-type-horizontal</title><g id="Assets" fill="none" fill-rule="evenodd"><g id="floor-14-type-horizontal" fill="#767676"><g id="a-landing"><path d="M11.2 106.78c-5.88 0-9.54-3.72-9.54-8.88 0-6.48 4.56-8.58 12.24-9.96l5.04-.96v-1.14c0-2.82-1.32-3.96-5.76-3.96-2.94 0-6.12.24-8.34.6v-7.26c3.24-1.14 8.34-2.28 14.16-2.28 8.46 0 12.3 3.54 12.3 10.86v13.44c0 1.38.9 1.86 1.98 1.86h.84v6c-1.2.78-4.08 1.68-6.84 1.68-3.72 0-5.94-1.14-6.96-3.9h-.3c-1.62 2.16-4.74 3.9-8.82 3.9zm5.34-7.02c1.02 0 1.92-.48 2.4-.96v-6.42l-1.98.06c-2.04.12-3.06 1.2-3.06 3.72 0 2.58.72 3.6 2.64 3.6zM45.88 106h18.78v-6.3l-3.12-.84V61.48L60.52 61l-14.94 1.38v6.36l3.6 1.02v29.1l-3.3.84v6.3zm29.76.78c-5.88 0-9.54-3.72-9.54-8.88 0-6.48 4.56-8.58 12.24-9.96l5.04-.96v-1.14c0-2.82-1.32-3.96-5.76-3.96-2.94 0-6.12.24-8.34.6v-7.26c3.24-1.14 8.34-2.28 14.16-2.28 8.46 0 12.3 3.54 12.3 10.86v13.44c0 1.38.9 1.86 1.98 1.86h.84v6c-1.2.78-4.08 1.68-6.84 1.68-3.72 0-5.94-1.14-6.96-3.9h-.3c-1.62 2.16-4.74 3.9-8.82 3.9zm5.34-7.02c1.02 0 1.92-.48 2.4-.96v-6.42l-1.98.06c-2.04.12-3.06 1.2-3.06 3.72 0 2.58.72 3.6 2.64 3.6zm19.14 6.24h17.64v-6.3l-2.1-.6V82.96c1.02-.36 1.98-.66 3.3-.66 2.1 0 3.06.78 3.06 2.94V99.1l-2.1.6v6.3h17.34v-6.3l-2.88-.84V80.8c0-5.58-3.54-7.86-8.22-7.86-4.62 0-7.56 1.62-10.62 4.14h-.36v-3.6l-1.02-.48-14.28 1.38v6.42l3.42.96v17.1l-3.18.84v6.3zm51.36.72c-6.06 0-12.36-3.78-12.36-16.08 0-13.26 7.02-17.7 15.48-17.7 2.52 0 3.84.42 5.1.96v-4.14l-3.48-.96v-6.42L170.98 61l1.08.48V97.9l3.18.96v6.3l-13.2 1.44-1.02-.48v-3.06h-.36c-1.74 2.22-5.1 3.66-9.18 3.66zm4.92-8.58c1.38 0 2.4-.3 3.3-.84V81.46c-.72-.54-1.44-.96-2.94-.96-2.82 0-4.62 1.56-4.62 8.88 0 6.72 1.5 8.76 4.26 8.76zm20.52 7.86h18.48v-6.3l-2.94-.84V73.48l-1.08-.48-14.76 1.38v6.42l3.48.96v17.1l-3.18.84v6.3zm9.06-34.2c3.72 0 6.72-2.16 6.72-5.88 0-3.72-3-5.88-6.72-5.88-3.66 0-6.72 2.16-6.72 5.88 0 3.72 3.06 5.88 6.72 5.88zm11.04 34.2h17.64v-6.3l-2.1-.6V82.96c1.02-.36 1.98-.66 3.3-.66 2.1 0 3.06.78 3.06 2.94V99.1l-2.1.6v6.3h17.34v-6.3l-2.88-.84V80.8c0-5.58-3.54-7.86-8.22-7.86-4.62 0-7.56 1.62-10.62 4.14h-.36v-3.6l-1.02-.48-14.28 1.38v6.42l3.42.96v17.1l-3.18.84v6.3zm53.64 12.18c-10.5 0-15.84-2.82-15.84-7.26 0-3.66 3.3-5.52 6.9-6.36v-.3c-3-.84-4.38-2.7-4.38-5.4s2.16-5.28 4.74-6.9c-3-1.62-5.04-4.38-5.04-8.1 0-7.02 5.88-10.86 14.7-10.86 2.76 0 5.04.36 6.96.96l10.56-1.5v7.08l-3.96-.12c.66 1.2 1.08 2.4 1.08 3.78 0 7.02-5.64 10.92-14.64 10.92-1.56 0-2.88-.12-4.2-.36-.36.42-.48.96-.48 1.44 0 .66.48 1.56 2.16 1.56h10.44c5.7 0 10.08 2.58 10.08 9 0 6.78-5.34 12.42-19.08 12.42zm.9-6.78c5.1 0 6.78-1.32 6.78-2.88 0-1.5-.84-1.92-3.42-1.92h-6.96c-1.02.42-1.74 1.08-1.74 2.34 0 1.44 1.38 2.46 5.34 2.46zm.18-23.22c1.74 0 3.18-1.02 3.18-4.56 0-3.96-1.38-4.68-3.18-4.68-1.74 0-3.12.96-3.12 4.5 0 3.72 1.38 4.74 3.12 4.74z"/></g></g></g></svg>