<?xml version="1.0" encoding="UTF-8"?>
<svg width="313px" height="119px" viewBox="0 0 313 119" version="1.1" xmlns="http://www.w3.org/2000/svg" xmlns:xlink="http://www.w3.org/1999/xlink">
    <!-- Generator: Sketch 47.1 (45422) - http://www.bohemiancoding.com/sketch -->
    <title>floor-14-type-horizontal</title>
    <desc>Created with Sketch.</desc>
    <defs></defs>
    <g id="Assets" stroke="none" stroke-width="1" fill="none" fill-rule="evenodd">
        <g id="floor-14-type-horizontal" fill="#676767">
            <g id="postscript" transform="translate(1.000000, -13.000000)">
                <path d="M0.78,131 L0.78,124.88 L3.96,124.1 L3.96,94.76 L0.6,93.8 L0.6,87.38 L14.82,86 L15.84,86.48 L15.84,89.66 L16.2,89.66 C17.88,87.98 21.06,85.88 25.38,85.88 C31.14,85.88 36.9,89.54 36.9,101.54 C36.9,115.1 29.64,119.78 20.46,119.78 C18.12,119.78 17.28,119.66 16.32,119.48 L16.32,124.16 L19.98,124.88 L19.98,131 L0.78,131 Z M19.26,112.4 C22.26,112.4 23.88,110.78 23.88,102.98 C23.88,96.68 22.56,94.64 19.74,94.64 C18.18,94.64 17.16,94.94 16.32,95.42 L16.32,111.5 C16.98,111.98 17.76,112.4 19.26,112.4 Z M55.86,119.78 C44.7,119.78 38.82,113.36 38.82,103.04 C38.82,91.7 46.32,85.94 55.86,85.94 C67.02,85.94 72.9,91.94 72.9,102.62 C72.9,113.96 65.34,119.78 55.86,119.78 Z M55.92,112.34 C58.5,112.34 59.82,110.48 59.82,103.04 C59.82,95.12 58.38,93.32 55.8,93.32 C53.22,93.32 51.84,94.88 51.84,102.62 C51.84,110.54 53.28,112.34 55.92,112.34 Z M87,119.78 C98.34,119.78 102.9,115.16 102.9,107.96 C102.9,102.98 100.26,99.56 93.6,98.24 L89.58,97.4 C86.64,96.8 85.62,96.26 85.62,94.82 C85.62,93.32 87.3,92.72 89.34,92.72 C90.96,92.72 91.98,93.08 92.64,93.44 L93.24,96.26 L100.86,96.26 L100.86,87.8 C98.1,86.54 93.78,85.88 89.7,85.88 C79.14,85.88 74.58,90.5 74.58,97.1 C74.58,103.04 77.88,105.92 84.12,107.18 L87.66,107.96 C90.12,108.5 91.02,108.98 91.02,110.42 C91.02,111.92 89.7,112.82 87.36,112.82 C85.68,112.82 84.3,112.34 83.64,111.92 L82.56,108.86 L74.76,108.86 L75.3,117.74 C78.72,119.12 83.28,119.78 87,119.78 Z M118.32,119.72 C122.04,119.72 124.92,118.88 126.42,117.98 L126.42,111.38 C125.64,111.62 124.62,111.8 123.66,111.8 C121.32,111.8 120,111.14 120,108.5 L120,93.92 L126.12,93.92 L126.12,86.66 L120,86.66 L120,79.1 L110.22,79.1 L108.78,86.54 L104.46,88.22 L104.46,93.92 L107.64,93.92 L107.64,110.48 C107.64,117.5 111.54,119.72 118.32,119.72 Z M141,119.78 C152.34,119.78 156.9,115.16 156.9,107.96 C156.9,102.98 154.26,99.56 147.6,98.24 L143.58,97.4 C140.64,96.8 139.62,96.26 139.62,94.82 C139.62,93.32 141.3,92.72 143.34,92.72 C144.96,92.72 145.98,93.08 146.64,93.44 L147.24,96.26 L154.86,96.26 L154.86,87.8 C152.1,86.54 147.78,85.88 143.7,85.88 C133.14,85.88 128.58,90.5 128.58,97.1 C128.58,103.04 131.88,105.92 138.12,107.18 L141.66,107.96 C144.12,108.5 145.02,108.98 145.02,110.42 C145.02,111.92 143.7,112.82 141.36,112.82 C139.68,112.82 138.3,112.34 137.64,111.92 L136.56,108.86 L128.76,108.86 L129.3,117.74 C132.72,119.12 137.28,119.78 141,119.78 Z M175.98,119.78 C181.56,119.78 185.4,118.16 187.32,116.78 L187.32,110.06 C185.64,110.72 182.82,111.32 180,111.32 C174.66,111.32 171.84,109.16 171.84,102.08 C171.84,95.36 173.58,93.32 176.46,93.32 C177.66,93.32 178.08,93.56 178.5,93.74 L179.22,97.88 L187.2,97.88 L187.2,87.26 C185.34,86.6 181.14,85.94 176.94,85.94 C165.78,85.94 158.7,91.28 158.7,103.04 C158.7,113.42 164.16,119.78 175.98,119.78 Z M189.96,119 L209.88,119 L209.88,112.7 L205.5,111.86 L205.5,97.88 C207.3,97.16 209.22,96.92 212.16,96.92 C213.3,96.92 214.44,97.04 215.1,97.22 L215.1,86.3 C214.68,86.18 214.02,86.12 213.48,86.12 C209.76,86.12 207.06,88.4 205.38,91.46 L205.02,91.46 L205.02,86.48 L204,86 L189.72,87.38 L189.72,93.8 L193.14,94.76 L193.14,111.86 L189.96,112.7 L189.96,119 Z M216.6,119 L235.08,119 L235.08,112.7 L232.14,111.86 L232.14,86.48 L231.06,86 L216.3,87.38 L216.3,93.8 L219.78,94.76 L219.78,111.86 L216.6,112.7 L216.6,119 Z M225.66,84.8 C229.38,84.8 232.38,82.64 232.38,78.92 C232.38,75.2 229.38,73.04 225.66,73.04 C222,73.04 218.94,75.2 218.94,78.92 C218.94,82.64 222,84.8 225.66,84.8 Z M236.64,131 L236.64,124.88 L239.82,124.1 L239.82,94.76 L236.46,93.8 L236.46,87.38 L250.68,86 L251.7,86.48 L251.7,89.66 L252.06,89.66 C253.74,87.98 256.92,85.88 261.24,85.88 C267,85.88 272.76,89.54 272.76,101.54 C272.76,115.1 265.5,119.78 256.32,119.78 C253.98,119.78 253.14,119.66 252.18,119.48 L252.18,124.16 L255.84,124.88 L255.84,131 L236.64,131 Z M255.12,112.4 C258.12,112.4 259.74,110.78 259.74,102.98 C259.74,96.68 258.42,94.64 255.6,94.64 C254.04,94.64 253.02,94.94 252.18,95.42 L252.18,111.5 C252.84,111.98 253.62,112.4 255.12,112.4 Z M288.3,119.72 C292.02,119.72 294.9,118.88 296.4,117.98 L296.4,111.38 C295.62,111.62 294.6,111.8 293.64,111.8 C291.3,111.8 289.98,111.14 289.98,108.5 L289.98,93.92 L296.1,93.92 L296.1,86.66 L289.98,86.66 L289.98,79.1 L280.2,79.1 L278.76,86.54 L274.44,88.22 L274.44,93.92 L277.62,93.92 L277.62,110.48 C277.62,117.5 281.52,119.72 288.3,119.72 Z" transform="translate(148.500000, 102.020000) rotate(-360.000000) translate(-148.500000, -102.020000) "></path>
            </g>
        </g>
    </g>
</svg>