<svg width="313" height="119" viewBox="0 0 313 119" xmlns="http://www.w3.org/2000/svg"><title>floor-14-type-horizontal</title><g id="Assets" fill="none" fill-rule="evenodd"><g id="floor-14-type-horizontal" fill="#767676"><g id="floor-14"><path d="M22 106h17.58v-6.3l-3.12-.6V61.48L35.44 61l-8.94 1.38c-2.1-.6-5.4-1.32-8.76-1.32-6.78 0-12.72 2.4-12.72 10.14v2.7l-3.36 1.32v5.7h3.36v17.94l-3.18.84v6.3h17.64v-6.3l-2.1-.6V80.92h4.26v-7.26h-4.26v-1.2c0-2.58 1.2-3.18 3.72-3.18 1.2 0 2.1.18 3 .42v29.4l-2.1.6v6.3zm36.24.78c-11.16 0-17.04-6.42-17.04-16.74 0-11.34 7.5-17.1 17.04-17.1 11.16 0 17.04 6 17.04 16.68 0 11.34-7.56 17.16-17.04 17.16zm.06-7.44c2.58 0 3.9-1.86 3.9-9.3 0-7.92-1.44-9.72-4.02-9.72-2.58 0-3.96 1.56-3.96 9.3 0 7.92 1.44 9.72 4.08 9.72zm35.7 7.44c-11.16 0-17.04-6.42-17.04-16.74 0-11.34 7.5-17.1 17.04-17.1 11.16 0 17.04 6 17.04 16.68 0 11.34-7.56 17.16-17.04 17.16zm.06-7.44c2.58 0 3.9-1.86 3.9-9.3 0-7.92-1.44-9.72-4.02-9.72-2.58 0-3.96 1.56-3.96 9.3 0 7.92 1.44 9.72 4.08 9.72zm18.66 6.66h19.92v-6.3l-4.38-.84V84.88c1.8-.72 3.72-.96 6.66-.96 1.14 0 2.28.12 2.94.3V73.3c-.42-.12-1.08-.18-1.62-.18-3.72 0-6.42 2.28-8.1 5.34h-.36v-4.98l-1.02-.48-14.28 1.38v6.42l3.42.96v17.1l-3.18.84v6.3zm37.38 0h23.88v-6.66L169 98.32V64.06h-6.96l-12.36 6.12v6.66l5.58-.36v21.84l-5.16 1.02V106zm38.94 0v-6.66l4.2-.9v-4.5H175.9V87.7l19.32-23.34h11.28v22.56h3.84v7.02h-3.84v4.5l3.84.9V106h-21.3zm-3.96-19.08h8.16v-9.9H193l-7.92 9.72v.18z"/></g></g></g></svg>