<?xml version="1.0" encoding="UTF-8"?>
<svg width="313px" height="119px" viewBox="0 0 313 119" version="1.1" xmlns="http://www.w3.org/2000/svg" xmlns:xlink="http://www.w3.org/1999/xlink">
    <!-- Generator: Sketch 47.1 (45422) - http://www.bohemiancoding.com/sketch -->
    <title>floor-14-type-horizontal</title>
    <desc>Created with Sketch.</desc>
    <defs></defs>
    <g id="Assets" stroke="none" stroke-width="1" fill="none" fill-rule="evenodd">
        <g id="floor-14-type-horizontal" fill="#676767">
            <g id="allotment" transform="translate(1.000000, -13.000000)">
                <path d="M10.2,119.78 C4.32,119.78 0.66,116.06 0.66,110.9 C0.66,104.42 5.22,102.32 12.9,100.94 L17.94,99.98 L17.94,98.84 C17.94,96.02 16.62,94.88 12.18,94.88 C9.24,94.88 6.06,95.12 3.84,95.48 L3.84,88.22 C7.08,87.08 12.18,85.94 18,85.94 C26.46,85.94 30.3,89.48 30.3,96.8 L30.3,110.24 C30.3,111.62 31.2,112.1 32.28,112.1 L33.12,112.1 L33.12,118.1 C31.92,118.88 29.04,119.78 26.28,119.78 C22.56,119.78 20.34,118.64 19.32,115.88 L19.02,115.88 C17.4,118.04 14.28,119.78 10.2,119.78 Z M15.54,112.76 C16.56,112.76 17.46,112.28 17.94,111.8 L17.94,105.38 L15.96,105.44 C13.92,105.56 12.9,106.64 12.9,109.16 C12.9,111.74 13.62,112.76 15.54,112.76 Z M34.68,119 L53.46,119 L53.46,112.7 L50.34,111.86 L50.34,74.48 L49.32,74 L34.38,75.38 L34.38,81.74 L37.98,82.76 L37.98,111.86 L34.68,112.7 L34.68,119 Z M55.08,119 L73.86,119 L73.86,112.7 L70.74,111.86 L70.74,74.48 L69.72,74 L54.78,75.38 L54.78,81.74 L58.38,82.76 L58.38,111.86 L55.08,112.7 L55.08,119 Z M92.52,119.78 C81.36,119.78 75.48,113.36 75.48,103.04 C75.48,91.7 82.98,85.94 92.52,85.94 C103.68,85.94 109.56,91.94 109.56,102.62 C109.56,113.96 102,119.78 92.52,119.78 Z M92.58,112.34 C95.16,112.34 96.48,110.48 96.48,103.04 C96.48,95.12 95.04,93.32 92.46,93.32 C89.88,93.32 88.5,94.88 88.5,102.62 C88.5,110.54 89.94,112.34 92.58,112.34 Z M124.86,119.72 C128.58,119.72 131.46,118.88 132.96,117.98 L132.96,111.38 C132.18,111.62 131.16,111.8 130.2,111.8 C127.86,111.8 126.54,111.14 126.54,108.5 L126.54,93.92 L132.66,93.92 L132.66,86.66 L126.54,86.66 L126.54,79.1 L116.76,79.1 L115.32,86.54 L111,88.22 L111,93.92 L114.18,93.92 L114.18,110.48 C114.18,117.5 118.08,119.72 124.86,119.72 Z M135.12,119 L152.64,119 L152.64,112.7 L150.66,112.1 L150.66,95.96 C151.68,95.54 152.4,95.3 153.78,95.3 C155.82,95.3 156.6,96.08 156.6,98.36 L156.6,112.1 L154.68,112.7 L154.68,119 L170.94,119 L170.94,112.7 L168.96,112.1 L168.96,97.04 C168.96,96.74 168.9,96.08 168.9,95.96 C169.92,95.54 170.82,95.3 171.96,95.3 C174.12,95.3 174.9,96.08 174.9,98.36 L174.9,112.1 L172.98,112.7 L172.98,119 L190.08,119 L190.08,112.7 L187.26,111.86 L187.26,93.92 C187.26,88.34 183.48,85.94 178.98,85.94 C174.42,85.94 170.94,87.8 168.36,90.2 L168.06,90.2 C166.8,87.26 164.04,85.94 160.74,85.94 C156.18,85.94 153.24,87.56 150.54,89.9 L150.18,89.9 L150.18,86.48 L149.16,86 L134.88,87.38 L134.88,93.8 L138.3,94.76 L138.3,111.86 L135.12,112.7 L135.12,119 Z M209.28,119.78 C197.88,119.78 191.7,113.9 191.7,102.8 C191.7,92.12 198.18,85.94 208.44,85.94 C218.52,85.94 223.5,90.56 223.5,104.96 L204.54,104.96 C205.2,109.94 207.96,111.38 212.76,111.38 C216.9,111.38 219.72,110.66 222,109.94 L222,116.54 C219.6,118.16 215.7,119.78 209.28,119.78 Z M208.32,93.2 C206.46,93.2 204.9,94.28 204.48,99.32 L211.74,99.02 C211.74,94.34 210.18,93.2 208.32,93.2 Z M225.42,119 L243.06,119 L243.06,112.7 L240.96,112.1 L240.96,95.96 C241.98,95.6 242.94,95.3 244.26,95.3 C246.36,95.3 247.32,96.08 247.32,98.24 L247.32,112.1 L245.22,112.7 L245.22,119 L262.56,119 L262.56,112.7 L259.68,111.86 L259.68,93.8 C259.68,88.22 256.14,85.94 251.46,85.94 C246.84,85.94 243.9,87.56 240.84,90.08 L240.48,90.08 L240.48,86.48 L239.46,86 L225.18,87.38 L225.18,93.8 L228.6,94.76 L228.6,111.86 L225.42,112.7 L225.42,119 Z M277.8,119.72 C281.52,119.72 284.4,118.88 285.9,117.98 L285.9,111.38 C285.12,111.62 284.1,111.8 283.14,111.8 C280.8,111.8 279.48,111.14 279.48,108.5 L279.48,93.92 L285.6,93.92 L285.6,86.66 L279.48,86.66 L279.48,79.1 L269.7,79.1 L268.26,86.54 L263.94,88.22 L263.94,93.92 L267.12,93.92 L267.12,110.48 C267.12,117.5 271.02,119.72 277.8,119.72 Z" transform="translate(143.280000, 96.890000) rotate(-360.000000) translate(-143.280000, -96.890000) "></path>
            </g>
        </g>
    </g>
</svg>