<?xml version="1.0" encoding="UTF-8"?>
<svg width="300px" height="264px" viewBox="0 0 300 264" version="1.1" xmlns="http://www.w3.org/2000/svg" xmlns:xlink="http://www.w3.org/1999/xlink">
    <!-- Generator: Sketch 47.1 (45422) - http://www.bohemiancoding.com/sketch -->
    <title>floor-14-type-horizontal</title>
    <desc>Created with Sketch.</desc>
    <defs></defs>
    <g id="Assets" stroke="none" stroke-width="1" fill="none" fill-rule="evenodd">
        <g id="floor-14-type-horizontal" fill="#EAEAEA">
            <g id="postscript" transform="translate(72.000000, -6.000000)">
                <path d="M57.72,95 L57.72,86.84 L61.96,85.8 L61.96,46.68 L57.48,45.4 L57.48,36.84 L76.44,35 L77.8,35.64 L77.8,39.88 L78.28,39.88 C80.52,37.64 84.76,34.84 90.52,34.84 C98.2,34.84 105.88,39.72 105.88,55.72 C105.88,73.8 96.2,80.04 83.96,80.04 C80.84,80.04 79.72,79.88 78.44,79.64 L78.44,85.88 L83.32,86.84 L83.32,95 L57.72,95 Z M82.36,70.2 C86.36,70.2 88.52,68.04 88.52,57.64 C88.52,49.24 86.76,46.52 83,46.52 C80.92,46.52 79.56,46.92 78.44,47.56 L78.44,69 C79.32,69.64 80.36,70.2 82.36,70.2 Z M131.16,80.04 C116.28,80.04 108.44,71.48 108.44,57.72 C108.44,42.6 118.44,34.92 131.16,34.92 C146.04,34.92 153.88,42.92 153.88,57.16 C153.88,72.28 143.8,80.04 131.16,80.04 Z M131.24,70.12 C134.68,70.12 136.44,67.64 136.44,57.72 C136.44,47.16 134.52,44.76 131.08,44.76 C127.64,44.76 125.8,46.84 125.8,57.16 C125.8,67.72 127.72,70.12 131.24,70.12 Z M172.68,80.04 C187.8,80.04 193.88,73.88 193.88,64.28 C193.88,57.64 190.36,53.08 181.48,51.32 L176.12,50.2 C172.2,49.4 170.84,48.68 170.84,46.76 C170.84,44.76 173.08,43.96 175.8,43.96 C177.96,43.96 179.32,44.44 180.2,44.92 L181,48.68 L191.16,48.68 L191.16,37.4 C187.48,35.72 181.72,34.84 176.28,34.84 C162.2,34.84 156.12,41 156.12,49.8 C156.12,57.72 160.52,61.56 168.84,63.24 L173.56,64.28 C176.84,65 178.04,65.64 178.04,67.56 C178.04,69.56 176.28,70.76 173.16,70.76 C170.92,70.76 169.08,70.12 168.2,69.56 L166.76,65.48 L156.36,65.48 L157.08,77.32 C161.64,79.16 167.72,80.04 172.68,80.04 Z M214.44,79.96 C219.4,79.96 223.24,78.84 225.24,77.64 L225.24,68.84 C224.2,69.16 222.84,69.4 221.56,69.4 C218.44,69.4 216.68,68.52 216.68,65 L216.68,45.56 L224.84,45.56 L224.84,35.88 L216.68,35.88 L216.68,25.8 L203.64,25.8 L201.72,35.72 L195.96,37.96 L195.96,45.56 L200.2,45.56 L200.2,67.64 C200.2,77 205.4,79.96 214.44,79.96 Z M18.04,160.04 C33.16,160.04 39.24,153.88 39.24,144.28 C39.24,137.64 35.72,133.08 26.84,131.32 L21.48,130.2 C17.56,129.4 16.2,128.68 16.2,126.76 C16.2,124.76 18.44,123.96 21.16,123.96 C23.32,123.96 24.68,124.44 25.56,124.92 L26.36,128.68 L36.52,128.68 L36.52,117.4 C32.84,115.72 27.08,114.84 21.64,114.84 C7.56,114.84 1.48,121 1.48,129.8 C1.48,137.72 5.88,141.56 14.2,143.24 L18.92,144.28 C22.2,145 23.4,145.64 23.4,147.56 C23.4,149.56 21.64,150.76 18.52,150.76 C16.28,150.76 14.44,150.12 13.56,149.56 L12.12,145.48 L1.72,145.48 L2.44,157.32 C7,159.16 13.08,160.04 18.04,160.04 Z M64.68,160.04 C72.12,160.04 77.24,157.88 79.8,156.04 L79.8,147.08 C77.56,147.96 73.8,148.76 70.04,148.76 C62.92,148.76 59.16,145.88 59.16,136.44 C59.16,127.48 61.48,124.76 65.32,124.76 C66.92,124.76 67.48,125.08 68.04,125.32 L69,130.84 L79.64,130.84 L79.64,116.68 C77.16,115.8 71.56,114.92 65.96,114.92 C51.08,114.92 41.64,122.04 41.64,137.72 C41.64,151.56 48.92,160.04 64.68,160.04 Z M83.32,159 L109.88,159 L109.88,150.6 L104.04,149.48 L104.04,130.84 C106.44,129.88 109,129.56 112.92,129.56 C114.44,129.56 115.96,129.72 116.84,129.96 L116.84,115.4 C116.28,115.24 115.4,115.16 114.68,115.16 C109.72,115.16 106.12,118.2 103.88,122.28 L103.4,122.28 L103.4,115.64 L102.04,115 L83,116.84 L83,125.4 L87.56,126.68 L87.56,149.48 L83.32,150.6 L83.32,159 Z M118.84,159 L143.48,159 L143.48,150.6 L139.56,149.48 L139.56,115.64 L138.12,115 L118.44,116.84 L118.44,125.4 L123.08,126.68 L123.08,149.48 L118.84,150.6 L118.84,159 Z M130.92,113.4 C135.88,113.4 139.88,110.52 139.88,105.56 C139.88,100.6 135.88,97.72 130.92,97.72 C126.04,97.72 121.96,100.6 121.96,105.56 C121.96,110.52 126.04,113.4 130.92,113.4 Z M145.56,175 L145.56,166.84 L149.8,165.8 L149.8,126.68 L145.32,125.4 L145.32,116.84 L164.28,115 L165.64,115.64 L165.64,119.88 L166.12,119.88 C168.36,117.64 172.6,114.84 178.36,114.84 C186.04,114.84 193.72,119.72 193.72,135.72 C193.72,153.8 184.04,160.04 171.8,160.04 C168.68,160.04 167.56,159.88 166.28,159.64 L166.28,165.88 L171.16,166.84 L171.16,175 L145.56,175 Z M170.2,150.2 C174.2,150.2 176.36,148.04 176.36,137.64 C176.36,129.24 174.6,126.52 170.84,126.52 C168.76,126.52 167.4,126.92 166.28,127.56 L166.28,149 C167.16,149.64 168.2,150.2 170.2,150.2 Z M214.44,159.96 C219.4,159.96 223.24,158.84 225.24,157.64 L225.24,148.84 C224.2,149.16 222.84,149.4 221.56,149.4 C218.44,149.4 216.68,148.52 216.68,145 L216.68,125.56 L224.84,125.56 L224.84,115.88 L216.68,115.88 L216.68,105.8 L203.64,105.8 L201.72,115.72 L195.96,117.96 L195.96,125.56 L200.2,125.56 L200.2,147.64 C200.2,157 205.4,159.96 214.44,159.96 Z" id="post-script" transform="translate(113.360000, 100.400000) rotate(-360.000000) translate(-113.360000, -100.400000) "></path>
            </g>
        </g>
    </g>
</svg>