<svg width="313" height="119" viewBox="0 0 313 119" xmlns="http://www.w3.org/2000/svg"><title>floor-14-type-horizontal</title><g id="Assets" fill="none" fill-rule="evenodd"><g id="floor-14-type-horizontal" fill="#767676"><g id="communal-garden"><path d="M19.12 46.78c5.58 0 9.42-1.62 11.34-3v-6.72c-1.68.66-4.5 1.26-7.32 1.26-5.34 0-8.16-2.16-8.16-9.24 0-6.72 1.74-8.76 4.62-8.76 1.2 0 1.62.24 2.04.42l.72 4.14h7.98V14.26c-1.86-.66-6.06-1.32-10.26-1.32-11.16 0-18.24 5.34-18.24 17.1 0 10.38 5.46 16.74 17.28 16.74zm31.02 0c-11.16 0-17.04-6.42-17.04-16.74 0-11.34 7.5-17.1 17.04-17.1 11.16 0 17.04 6 17.04 16.68 0 11.34-7.56 17.16-17.04 17.16zm.06-7.44c2.58 0 3.9-1.86 3.9-9.3 0-7.92-1.44-9.72-4.02-9.72-2.58 0-3.96 1.56-3.96 9.3 0 7.92 1.44 9.72 4.08 9.72zM68.86 46h17.52v-6.3l-1.98-.6V22.96c1.02-.42 1.74-.66 3.12-.66 2.04 0 2.82.78 2.82 3.06V39.1l-1.92.6V46h16.26v-6.3l-1.98-.6V24.04c0-.3-.06-.96-.06-1.08 1.02-.42 1.92-.66 3.06-.66 2.16 0 2.94.78 2.94 3.06V39.1l-1.92.6V46h17.1v-6.3l-2.82-.84V20.92c0-5.58-3.78-7.98-8.28-7.98-4.56 0-8.04 1.86-10.62 4.26h-.3c-1.26-2.94-4.02-4.26-7.32-4.26-4.56 0-7.5 1.62-10.2 3.96h-.36v-3.42L82.9 13l-14.28 1.38v6.42l3.42.96v17.1l-3.18.84V46zm56.58 0h17.52v-6.3l-1.98-.6V22.96c1.02-.42 1.74-.66 3.12-.66 2.04 0 2.82.78 2.82 3.06V39.1l-1.92.6V46h16.26v-6.3l-1.98-.6V24.04c0-.3-.06-.96-.06-1.08 1.02-.42 1.92-.66 3.06-.66 2.16 0 2.94.78 2.94 3.06V39.1l-1.92.6V46h17.1v-6.3l-2.82-.84V20.92c0-5.58-3.78-7.98-8.28-7.98-4.56 0-8.04 1.86-10.62 4.26h-.3c-1.26-2.94-4.02-4.26-7.32-4.26-4.56 0-7.5 1.62-10.2 3.96h-.36v-3.42l-1.02-.48-14.28 1.38v6.42l3.42.96v17.1l-3.18.84V46zm68.64.72c4.5 0 7.44-1.92 9.48-4.08h.36v3.48l1.08.48 14.04-1.44v-6.3l-3.18-.96V13.54l-1.08-.54-14.16 1.32v6.36l2.88 1.02v15c-.9.36-1.86.72-3.42.72-2.22 0-3-.96-3-3.12V13.54l-1.02-.54-14.4 1.32v6.36l3.06 1.02v16.2c0 5.58 2.64 8.82 9.36 8.82zm26.7-.72h17.64v-6.3l-2.1-.6V22.96c1.02-.36 1.98-.66 3.3-.66 2.1 0 3.06.78 3.06 2.94V39.1l-2.1.6V46h17.34v-6.3l-2.88-.84V20.8c0-5.58-3.54-7.86-8.22-7.86-4.62 0-7.56 1.62-10.62 4.14h-.36v-3.6l-1.02-.48-14.28 1.38v6.42l3.42.96v17.1l-3.18.84V46zm48.12.78c-5.88 0-9.54-3.72-9.54-8.88 0-6.48 4.56-8.58 12.24-9.96l5.04-.96v-1.14c0-2.82-1.32-3.96-5.76-3.96-2.94 0-6.12.24-8.34.6v-7.26c3.24-1.14 8.34-2.28 14.16-2.28 8.46 0 12.3 3.54 12.3 10.86v13.44c0 1.38.9 1.86 1.98 1.86h.84v6c-1.2.78-4.08 1.68-6.84 1.68-3.72 0-5.94-1.14-6.96-3.9h-.3c-1.62 2.16-4.74 3.9-8.82 3.9zm5.34-7.02c1.02 0 1.92-.48 2.4-.96v-6.42l-1.98.06c-2.04.12-3.06 1.2-3.06 3.72 0 2.58.72 3.6 2.64 3.6zM293.38 46h18.78v-6.3l-3.12-.84V1.48L308.02 1l-14.94 1.38v6.36l3.6 1.02v29.1l-3.3.84V46zM16.72 118.18c-10.5 0-15.84-2.82-15.84-7.26 0-3.66 3.3-5.52 6.9-6.36v-.3c-3-.84-4.38-2.7-4.38-5.4s2.16-5.28 4.74-6.9c-3-1.62-5.04-4.38-5.04-8.1C3.1 76.84 8.98 73 17.8 73c2.76 0 5.04.36 6.96.96l10.56-1.5v7.08l-3.96-.12c.66 1.2 1.08 2.4 1.08 3.78 0 7.02-5.64 10.92-14.64 10.92-1.56 0-2.88-.12-4.2-.36-.36.42-.48.96-.48 1.44 0 .66.48 1.56 2.16 1.56h10.44c5.7 0 10.08 2.58 10.08 9 0 6.78-5.34 12.42-19.08 12.42zm.9-6.78c5.1 0 6.78-1.32 6.78-2.88 0-1.5-.84-1.92-3.42-1.92h-6.96c-1.02.42-1.74 1.08-1.74 2.34 0 1.44 1.38 2.46 5.34 2.46zm.18-23.22c1.74 0 3.18-1.02 3.18-4.56 0-3.96-1.38-4.68-3.18-4.68-1.74 0-3.12.96-3.12 4.5 0 3.72 1.38 4.74 3.12 4.74zm28.5 18.6c-5.88 0-9.54-3.72-9.54-8.88 0-6.48 4.56-8.58 12.24-9.96l5.04-.96v-1.14c0-2.82-1.32-3.96-5.76-3.96-2.94 0-6.12.24-8.34.6v-7.26c3.24-1.14 8.34-2.28 14.16-2.28 8.46 0 12.3 3.54 12.3 10.86v13.44c0 1.38.9 1.86 1.98 1.86h.84v6c-1.2.78-4.08 1.68-6.84 1.68-3.72 0-5.94-1.14-6.96-3.9h-.3c-1.62 2.16-4.74 3.9-8.82 3.9zm5.34-7.02c1.02 0 1.92-.48 2.4-.96v-6.42l-1.98.06c-2.04.12-3.06 1.2-3.06 3.72 0 2.58.72 3.6 2.64 3.6zM70.78 106H90.7v-6.3l-4.38-.84V84.88c1.8-.72 3.72-.96 6.66-.96 1.14 0 2.28.12 2.94.3V73.3c-.42-.12-1.08-.18-1.62-.18-3.72 0-6.42 2.28-8.1 5.34h-.36v-4.98L84.82 73l-14.28 1.38v6.42l3.42.96v17.1l-3.18.84v6.3zm39.24.72c-6.06 0-12.36-3.78-12.36-16.08 0-13.26 7.02-17.7 15.48-17.7 2.52 0 3.84.42 5.1.96v-4.14l-3.48-.96v-6.42L129.52 61l1.08.48V97.9l3.18.96v6.3l-13.2 1.44-1.02-.48v-3.06h-.36c-1.74 2.22-5.1 3.66-9.18 3.66zm4.92-8.58c1.38 0 2.4-.3 3.3-.84V81.46c-.72-.54-1.44-.96-2.94-.96-2.82 0-4.62 1.56-4.62 8.88 0 6.72 1.5 8.76 4.26 8.76zm38.1 8.64c-11.4 0-17.58-5.88-17.58-16.98 0-10.68 6.48-16.86 16.74-16.86 10.08 0 15.06 4.62 15.06 19.02H148.3c.66 4.98 3.42 6.42 8.22 6.42 4.14 0 6.96-.72 9.24-1.44v6.6c-2.4 1.62-6.3 3.24-12.72 3.24zm-.96-26.58c-1.86 0-3.42 1.08-3.84 6.12l7.26-.3c0-4.68-1.56-5.82-3.42-5.82zm17.1 25.8h17.64v-6.3l-2.1-.6V82.96c1.02-.36 1.98-.66 3.3-.66 2.1 0 3.06.78 3.06 2.94V99.1l-2.1.6v6.3h17.34v-6.3l-2.88-.84V80.8c0-5.58-3.54-7.86-8.22-7.86-4.62 0-7.56 1.62-10.62 4.14h-.36v-3.6l-1.02-.48-14.28 1.38v6.42l3.42.96v17.1l-3.18.84v6.3z"/></g></g></g></svg>