<?xml version="1.0" encoding="UTF-8"?>
<svg width="313px" height="119px" viewBox="0 0 313 119" version="1.1" xmlns="http://www.w3.org/2000/svg" xmlns:xlink="http://www.w3.org/1999/xlink">
    <!-- Generator: Sketch 47.1 (45422) - http://www.bohemiancoding.com/sketch -->
    <title>floor-14-type-horizontal</title>
    <desc>Created with Sketch.</desc>
    <defs></defs>
    <g id="Assets" stroke="none" stroke-width="1" fill="none" fill-rule="evenodd">
        <g id="floor-14-type-horizontal" fill="#676767">
            <g id="floor-12" transform="translate(1.000000, -13.000000)">
                <path d="M21,119 L38.58,119 L38.58,112.7 L35.46,112.1 L35.46,74.48 L34.44,74 L25.5,75.38 C23.4,74.78 20.1,74.06 16.74,74.06 C9.96,74.06 4.02,76.46 4.02,84.2 L4.02,86.9 L0.66,88.22 L0.66,93.92 L4.02,93.92 L4.02,111.86 L0.84,112.7 L0.84,119 L18.48,119 L18.48,112.7 L16.38,112.1 L16.38,93.92 L20.64,93.92 L20.64,86.66 L16.38,86.66 L16.38,85.46 C16.38,82.88 17.58,82.28 20.1,82.28 C21.3,82.28 22.2,82.46 23.1,82.7 L23.1,112.1 L21,112.7 L21,119 Z M57.24,119.78 C46.08,119.78 40.2,113.36 40.2,103.04 C40.2,91.7 47.7,85.94 57.24,85.94 C68.4,85.94 74.28,91.94 74.28,102.62 C74.28,113.96 66.72,119.78 57.24,119.78 Z M57.3,112.34 C59.88,112.34 61.2,110.48 61.2,103.04 C61.2,95.12 59.76,93.32 57.18,93.32 C54.6,93.32 53.22,94.88 53.22,102.62 C53.22,110.54 54.66,112.34 57.3,112.34 Z M93,119.78 C81.84,119.78 75.96,113.36 75.96,103.04 C75.96,91.7 83.46,85.94 93,85.94 C104.16,85.94 110.04,91.94 110.04,102.62 C110.04,113.96 102.48,119.78 93,119.78 Z M93.06,112.34 C95.64,112.34 96.96,110.48 96.96,103.04 C96.96,95.12 95.52,93.32 92.94,93.32 C90.36,93.32 88.98,94.88 88.98,102.62 C88.98,110.54 90.42,112.34 93.06,112.34 Z M111.72,119 L131.64,119 L131.64,112.7 L127.26,111.86 L127.26,97.88 C129.06,97.16 130.98,96.92 133.92,96.92 C135.06,96.92 136.2,97.04 136.86,97.22 L136.86,86.3 C136.44,86.18 135.78,86.12 135.24,86.12 C131.52,86.12 128.82,88.4 127.14,91.46 L126.78,91.46 L126.78,86.48 L125.76,86 L111.48,87.38 L111.48,93.8 L114.9,94.76 L114.9,111.86 L111.72,112.7 L111.72,119 Z M149.1,119 L172.98,119 L172.98,112.34 L168,111.32 L168,77.06 L161.04,77.06 L148.68,83.18 L148.68,89.84 L154.26,89.48 L154.26,111.32 L149.1,112.34 L149.1,119 Z M174.66,119 L204.54,119 L205.56,106.34 L198.48,106.34 L196.62,110.18 L187.92,110.18 L187.92,110.06 L192.84,106.7 C200.16,101.72 204.9,96.68 204.9,89.96 C204.9,81.92 199.74,76.76 190.02,76.76 C184.14,76.76 178.98,78.62 175.86,80.36 L175.86,88.22 C178.32,87.44 181.8,86.96 184.56,86.96 C188.52,86.96 190.62,88.58 190.62,92.18 C190.62,95.78 188.1,98.72 183.9,102.74 L174.66,111.56 L174.66,119 Z" transform="translate(103.110000, 96.890000) rotate(-360.000000) translate(-103.110000, -96.890000) "></path>
            </g>
        </g>
    </g>
</svg>