<svg width="313" height="119" viewBox="0 0 313 119" xmlns="http://www.w3.org/2000/svg"><title>floor-14-type-horizontal</title><g id="Assets" fill="none" fill-rule="evenodd"><g id="floor-14-type-horizontal" fill="#767676"><g id="maxilla-social-club"><path d="M1.84 46h17.52v-6.3l-1.98-.6V22.96c1.02-.42 1.74-.66 3.12-.66 2.04 0 2.82.78 2.82 3.06V39.1l-1.92.6V46h16.26v-6.3l-1.98-.6V24.04c0-.3-.06-.96-.06-1.08 1.02-.42 1.92-.66 3.06-.66 2.16 0 2.94.78 2.94 3.06V39.1l-1.92.6V46h17.1v-6.3l-2.82-.84V20.92c0-5.58-3.78-7.98-8.28-7.98-4.56 0-8.04 1.86-10.62 4.26h-.3c-1.26-2.94-4.02-4.26-7.32-4.26-4.56 0-7.5 1.62-10.2 3.96h-.36v-3.42L15.88 13 1.6 14.38v6.42l3.42.96v17.1l-3.18.84V46zm65.94.78c-5.88 0-9.54-3.72-9.54-8.88 0-6.48 4.56-8.58 12.24-9.96l5.04-.96v-1.14c0-2.82-1.32-3.96-5.76-3.96-2.94 0-6.12.24-8.34.6v-7.26c3.24-1.14 8.34-2.28 14.16-2.28 8.46 0 12.3 3.54 12.3 10.86v13.44c0 1.38.9 1.86 1.98 1.86h.84v6c-1.2.78-4.08 1.68-6.84 1.68-3.72 0-5.94-1.14-6.96-3.9h-.3c-1.62 2.16-4.74 3.9-8.82 3.9zm5.34-7.02c1.02 0 1.92-.48 2.4-.96v-6.42l-1.98.06c-2.04.12-3.06 1.2-3.06 3.72 0 2.58.72 3.6 2.64 3.6zM92.44 46h14.22v-6.3l-2.28-.6 3.36-4.8h.18l3.42 4.8-2.22.6V46h19.2v-6.3l-2.58-.78-6.6-8.46 7.02-9.78 1.92-.72v-6.3h-13.26v6.3l2.22.6-3.24 5.04h-.24l-3.24-5.04 2.22-.6v-6.3h-19.5v6.3l2.7.84 6.78 8.7-7.44 9.42-2.64.78V46zm37.5 0h18.48v-6.3l-2.94-.84V13.48L144.4 13l-14.76 1.38v6.42l3.48.96v17.1l-3.18.84V46zM139 11.8c3.72 0 6.72-2.16 6.72-5.88 0-3.72-3-5.88-6.72-5.88-3.66 0-6.72 2.16-6.72 5.88 0 3.72 3.06 5.88 6.72 5.88zM150.04 46h18.78v-6.3l-3.12-.84V1.48L164.68 1l-14.94 1.38v6.36l3.6 1.02v29.1l-3.3.84V46zm20.4 0h18.78v-6.3l-3.12-.84V1.48L185.08 1l-14.94 1.38v6.36l3.6 1.02v29.1l-3.3.84V46zm29.76.78c-5.88 0-9.54-3.72-9.54-8.88 0-6.48 4.56-8.58 12.24-9.96l5.04-.96v-1.14c0-2.82-1.32-3.96-5.76-3.96-2.94 0-6.12.24-8.34.6v-7.26c3.24-1.14 8.34-2.28 14.16-2.28 8.46 0 12.3 3.54 12.3 10.86v13.44c0 1.38.9 1.86 1.98 1.86h.84v6c-1.2.78-4.08 1.68-6.84 1.68-3.72 0-5.94-1.14-6.96-3.9h-.3c-1.62 2.16-4.74 3.9-8.82 3.9zm5.34-7.02c1.02 0 1.92-.48 2.4-.96v-6.42l-1.98.06c-2.04.12-3.06 1.2-3.06 3.72 0 2.58.72 3.6 2.64 3.6zM14.26 106.78c11.34 0 15.9-4.62 15.9-11.82 0-4.98-2.64-8.4-9.3-9.72l-4.02-.84c-2.94-.6-3.96-1.14-3.96-2.58 0-1.5 1.68-2.1 3.72-2.1 1.62 0 2.64.36 3.3.72l.6 2.82h7.62V74.8c-2.76-1.26-7.08-1.92-11.16-1.92C6.4 72.88 1.84 77.5 1.84 84.1c0 5.94 3.3 8.82 9.54 10.08l3.54.78c2.46.54 3.36 1.02 3.36 2.46 0 1.5-1.32 2.4-3.66 2.4-1.68 0-3.06-.48-3.72-.9l-1.08-3.06h-7.8l.54 8.88c3.42 1.38 7.98 2.04 11.7 2.04zm34.74 0c-11.16 0-17.04-6.42-17.04-16.74 0-11.34 7.5-17.1 17.04-17.1 11.16 0 17.04 6 17.04 16.68 0 11.34-7.56 17.16-17.04 17.16zm.06-7.44c2.58 0 3.9-1.86 3.9-9.3 0-7.92-1.44-9.72-4.02-9.72-2.58 0-3.96 1.56-3.96 9.3 0 7.92 1.44 9.72 4.08 9.72zM85 106.78c5.58 0 9.42-1.62 11.34-3v-6.72c-1.68.66-4.5 1.26-7.32 1.26-5.34 0-8.16-2.16-8.16-9.24 0-6.72 1.74-8.76 4.62-8.76 1.2 0 1.62.24 2.04.42l.72 4.14h7.98V74.26c-1.86-.66-6.06-1.32-10.26-1.32-11.16 0-18.24 5.34-18.24 17.1 0 10.38 5.46 16.74 17.28 16.74zm13.98-.78h18.48v-6.3l-2.94-.84V73.48l-1.08-.48-14.76 1.38v6.42l3.48.96v17.1l-3.18.84v6.3zm9.06-34.2c3.72 0 6.72-2.16 6.72-5.88 0-3.72-3-5.88-6.72-5.88-3.66 0-6.72 2.16-6.72 5.88 0 3.72 3.06 5.88 6.72 5.88zm20.4 34.98c-5.88 0-9.54-3.72-9.54-8.88 0-6.48 4.56-8.58 12.24-9.96l5.04-.96v-1.14c0-2.82-1.32-3.96-5.76-3.96-2.94 0-6.12.24-8.34.6v-7.26c3.24-1.14 8.34-2.28 14.16-2.28 8.46 0 12.3 3.54 12.3 10.86v13.44c0 1.38.9 1.86 1.98 1.86h.84v6c-1.2.78-4.08 1.68-6.84 1.68-3.72 0-5.94-1.14-6.96-3.9h-.3c-1.62 2.16-4.74 3.9-8.82 3.9zm5.34-7.02c1.02 0 1.92-.48 2.4-.96v-6.42l-1.98.06c-2.04.12-3.06 1.2-3.06 3.72 0 2.58.72 3.6 2.64 3.6zm19.14 6.24h18.78v-6.3l-3.12-.84V61.48l-1.02-.48-14.94 1.38v6.36l3.6 1.02v29.1l-3.3.84v6.3zm47.88.78c5.58 0 9.42-1.62 11.34-3v-6.72c-1.68.66-4.5 1.26-7.32 1.26-5.34 0-8.16-2.16-8.16-9.24 0-6.72 1.74-8.76 4.62-8.76 1.2 0 1.62.24 2.04.42l.72 4.14h7.98V74.26c-1.86-.66-6.06-1.32-10.26-1.32-11.16 0-18.24 5.34-18.24 17.1 0 10.38 5.46 16.74 17.28 16.74zm13.98-.78h18.78v-6.3l-3.12-.84V61.48l-1.02-.48-14.94 1.38v6.36l3.6 1.02v29.1l-3.3.84v6.3zm32.46.72c4.5 0 7.44-1.92 9.48-4.08h.36v3.48l1.08.48 14.04-1.44v-6.3l-3.18-.96V73.54l-1.08-.54-14.16 1.32v6.36l2.88 1.02v15c-.9.36-1.86.72-3.42.72-2.22 0-3-.96-3-3.12V73.54l-1.02-.54-14.4 1.32v6.36l3.06 1.02v16.2c0 5.58 2.64 8.82 9.36 8.82zm43.8.06c-6.6 0-12.12-1.32-15.06-3.06V70l-3.12-.96v-6.72l14.4-1.38 1.08.48v14.82h.36c1.74-1.5 4.38-3.36 8.7-3.36 5.76 0 11.52 3.66 11.52 15.66 0 13.56-7.32 18.24-17.88 18.24zm.24-7.38c3 0 4.62-1.62 4.62-9.42 0-6.3-1.32-8.34-4.14-8.34-1.56 0-2.58.3-3.42.78V98.5c.66.48 1.38.9 2.94.9z"/></g></g></g></svg>