<?xml version="1.0" encoding="UTF-8"?>
<svg width="300px" height="264px" viewBox="0 0 300 264" version="1.1" xmlns="http://www.w3.org/2000/svg" xmlns:xlink="http://www.w3.org/1999/xlink">
    <!-- Generator: Sketch 47.1 (45422) - http://www.bohemiancoding.com/sketch -->
    <title>floor-14-type-horizontal</title>
    <desc>Created with Sketch.</desc>
    <defs></defs>
    <g id="Assets" stroke="none" stroke-width="1" fill="none" fill-rule="evenodd">
        <g id="floor-14-type-horizontal" fill="#EAEAEA">
            <g id="a-landing" transform="translate(-1.000000, -6.000000)">
                <path d="M268.48,80.04 C260.64,80.04 255.76,75.08 255.76,68.2 C255.76,59.56 261.84,56.76 272.08,54.92 L278.8,53.64 L278.8,52.12 C278.8,48.36 277.04,46.84 271.12,46.84 C267.2,46.84 262.96,47.16 260,47.64 L260,37.96 C264.32,36.44 271.12,34.92 278.88,34.92 C290.16,34.92 295.28,39.64 295.28,49.4 L295.28,67.32 C295.28,69.16 296.48,69.8 297.92,69.8 L299.04,69.8 L299.04,77.8 C297.44,78.84 293.6,80.04 289.92,80.04 C284.96,80.04 282,78.52 280.64,74.84 L280.24,74.84 C278.08,77.72 273.92,80.04 268.48,80.04 Z M275.6,70.68 C276.96,70.68 278.16,70.04 278.8,69.4 L278.8,60.84 L276.16,60.92 C273.44,61.08 272.08,62.52 272.08,65.88 C272.08,69.32 273.04,70.68 275.6,70.68 Z M1.12,159 L26.16,159 L26.16,150.6 L22,149.48 L22,99.64 L20.64,99 L0.72,100.84 L0.72,109.32 L5.52,110.68 L5.52,149.48 L1.12,150.6 L1.12,159 Z M40.8,160.04 C32.96,160.04 28.08,155.08 28.08,148.2 C28.08,139.56 34.16,136.76 44.4,134.92 L51.12,133.64 L51.12,132.12 C51.12,128.36 49.36,126.84 43.44,126.84 C39.52,126.84 35.28,127.16 32.32,127.64 L32.32,117.96 C36.64,116.44 43.44,114.92 51.2,114.92 C62.48,114.92 67.6,119.64 67.6,129.4 L67.6,147.32 C67.6,149.16 68.8,149.8 70.24,149.8 L71.36,149.8 L71.36,157.8 C69.76,158.84 65.92,160.04 62.24,160.04 C57.28,160.04 54.32,158.52 52.96,154.84 L52.56,154.84 C50.4,157.72 46.24,160.04 40.8,160.04 Z M47.92,150.68 C49.28,150.68 50.48,150.04 51.12,149.4 L51.12,140.84 L48.48,140.92 C45.76,141.08 44.4,142.52 44.4,145.88 C44.4,149.32 45.36,150.68 47.92,150.68 Z M73.44,159 L96.96,159 L96.96,150.6 L94.16,149.8 L94.16,128.28 C95.52,127.8 96.8,127.4 98.56,127.4 C101.36,127.4 102.64,128.44 102.64,131.32 L102.64,149.8 L99.84,150.6 L99.84,159 L122.96,159 L122.96,150.6 L119.12,149.48 L119.12,125.4 C119.12,117.96 114.4,114.92 108.16,114.92 C102,114.92 98.08,117.08 94,120.44 L93.52,120.44 L93.52,115.64 L92.16,115 L73.12,116.84 L73.12,125.4 L77.68,126.68 L77.68,149.48 L73.44,150.6 L73.44,159 Z M141.92,159.96 C133.84,159.96 125.44,154.92 125.44,138.52 C125.44,120.84 134.8,114.92 146.08,114.92 C149.44,114.92 151.2,115.48 152.88,116.2 L152.88,110.68 L148.24,109.4 L148.24,100.84 L167.92,99 L169.36,99.64 L169.36,148.2 L173.6,149.48 L173.6,157.88 L156,159.8 L154.64,159.16 L154.64,155.08 L154.16,155.08 C151.84,158.04 147.36,159.96 141.92,159.96 Z M148.48,148.52 C150.32,148.52 151.68,148.12 152.88,147.4 L152.88,126.28 C151.92,125.56 150.96,125 148.96,125 C145.2,125 142.8,127.08 142.8,136.84 C142.8,145.8 144.8,148.52 148.48,148.52 Z M175.84,159 L200.48,159 L200.48,150.6 L196.56,149.48 L196.56,115.64 L195.12,115 L175.44,116.84 L175.44,125.4 L180.08,126.68 L180.08,149.48 L175.84,150.6 L175.84,159 Z M187.92,113.4 C192.88,113.4 196.88,110.52 196.88,105.56 C196.88,100.6 192.88,97.72 187.92,97.72 C183.04,97.72 178.96,100.6 178.96,105.56 C178.96,110.52 183.04,113.4 187.92,113.4 Z M202.64,159 L226.16,159 L226.16,150.6 L223.36,149.8 L223.36,128.28 C224.72,127.8 226,127.4 227.76,127.4 C230.56,127.4 231.84,128.44 231.84,131.32 L231.84,149.8 L229.04,150.6 L229.04,159 L252.16,159 L252.16,150.6 L248.32,149.48 L248.32,125.4 C248.32,117.96 243.6,114.92 237.36,114.92 C231.2,114.92 227.28,117.08 223.2,120.44 L222.72,120.44 L222.72,115.64 L221.36,115 L202.32,116.84 L202.32,125.4 L206.88,126.68 L206.88,149.48 L202.64,150.6 L202.64,159 Z M274.16,175.24 C260.16,175.24 253.04,171.48 253.04,165.56 C253.04,160.68 257.44,158.2 262.24,157.08 L262.24,156.68 C258.24,155.56 256.4,153.08 256.4,149.48 C256.4,145.88 259.28,142.44 262.72,140.28 C258.72,138.12 256,134.44 256,129.48 C256,120.12 263.84,115 275.6,115 C279.28,115 282.32,115.48 284.88,116.28 L298.96,114.28 L298.96,123.72 L293.68,123.56 C294.56,125.16 295.12,126.76 295.12,128.6 C295.12,137.96 287.6,143.16 275.6,143.16 C273.52,143.16 271.76,143 270,142.68 C269.52,143.24 269.36,143.96 269.36,144.6 C269.36,145.48 270,146.68 272.24,146.68 L286.16,146.68 C293.76,146.68 299.6,150.12 299.6,158.68 C299.6,167.72 292.48,175.24 274.16,175.24 Z M275.36,166.2 C282.16,166.2 284.4,164.44 284.4,162.36 C284.4,160.36 283.28,159.8 279.84,159.8 L270.56,159.8 C269.2,160.36 268.24,161.24 268.24,162.92 C268.24,164.84 270.08,166.2 275.36,166.2 Z M275.6,135.24 C277.92,135.24 279.84,133.88 279.84,129.16 C279.84,123.88 278,122.92 275.6,122.92 C273.28,122.92 271.44,124.2 271.44,128.92 C271.44,133.88 273.28,135.24 275.6,135.24 Z" transform="translate(150.160000, 105.080000) rotate(-360.000000) translate(-150.160000, -105.080000) "></path>
            </g>
        </g>
    </g>
</svg>