<?xml version="1.0" encoding="UTF-8"?>
<svg width="300px" height="264px" viewBox="0 0 300 264" version="1.1" xmlns="http://www.w3.org/2000/svg" xmlns:xlink="http://www.w3.org/1999/xlink">
    <!-- Generator: Sketch 47.1 (45422) - http://www.bohemiancoding.com/sketch -->
    <title>floor-14-type-horizontal</title>
    <desc>Created with Sketch.</desc>
    <defs></defs>
    <g id="Assets" stroke="none" stroke-width="1" fill="none" fill-rule="evenodd">
        <g id="floor-14-type-horizontal" fill="#EAEAEA">
            <g id="the-garden" transform="translate(24.000000, -6.000000)">
                <path d="M165.88,79.96 C170.84,79.96 174.68,78.84 176.68,77.64 L176.68,68.84 C175.64,69.16 174.28,69.4 173,69.4 C169.88,69.4 168.12,68.52 168.12,65 L168.12,45.56 L176.28,45.56 L176.28,35.88 L168.12,35.88 L168.12,25.8 L155.08,25.8 L153.16,35.72 L147.4,37.96 L147.4,45.56 L151.64,45.56 L151.64,67.64 C151.64,77 156.84,79.96 165.88,79.96 Z M179.56,79 L203.08,79 L203.08,70.6 L200.28,69.8 L200.28,48.28 C201.64,47.8 202.92,47.4 204.68,47.4 C207.48,47.4 208.76,48.44 208.76,51.32 L208.76,69.8 L205.96,70.6 L205.96,79 L229.08,79 L229.08,70.6 L225.24,69.48 L225.24,45.4 C225.24,37.96 220.52,34.92 214.28,34.92 C208.12,34.92 204.52,37.08 200.68,40.2 L200.28,40.2 L200.28,19.64 L198.84,18.92 L179.24,20.84 L179.24,29.32 L183.8,30.6 L183.8,69.48 L179.56,70.6 L179.56,79 Z M254.6,80.04 C239.4,80.04 231.16,72.2 231.16,57.4 C231.16,43.16 239.8,34.92 253.48,34.92 C266.92,34.92 273.56,41.08 273.56,60.28 L248.28,60.28 C249.16,66.92 252.84,68.84 259.24,68.84 C264.76,68.84 268.52,67.88 271.56,66.92 L271.56,75.72 C268.36,77.88 263.16,80.04 254.6,80.04 Z M253.32,44.6 C250.84,44.6 248.76,46.04 248.2,52.76 L257.88,52.36 C257.88,46.12 255.8,44.6 253.32,44.6 Z M21.16,175.24 C7.16,175.24 0.04,171.48 0.04,165.56 C0.04,160.68 4.44,158.2 9.24,157.08 L9.24,156.68 C5.24,155.56 3.4,153.08 3.4,149.48 C3.4,145.88 6.28,142.44 9.72,140.28 C5.72,138.12 3,134.44 3,129.48 C3,120.12 10.84,115 22.6,115 C26.28,115 29.32,115.48 31.88,116.28 L45.96,114.28 L45.96,123.72 L40.68,123.56 C41.56,125.16 42.12,126.76 42.12,128.6 C42.12,137.96 34.6,143.16 22.6,143.16 C20.52,143.16 18.76,143 17,142.68 C16.52,143.24 16.36,143.96 16.36,144.6 C16.36,145.48 17,146.68 19.24,146.68 L33.16,146.68 C40.76,146.68 46.6,150.12 46.6,158.68 C46.6,167.72 39.48,175.24 21.16,175.24 Z M22.36,166.2 C29.16,166.2 31.4,164.44 31.4,162.36 C31.4,160.36 30.28,159.8 26.84,159.8 L17.56,159.8 C16.2,160.36 15.24,161.24 15.24,162.92 C15.24,164.84 17.08,166.2 22.36,166.2 Z M22.6,135.24 C24.92,135.24 26.84,133.88 26.84,129.16 C26.84,123.88 25,122.92 22.6,122.92 C20.28,122.92 18.44,124.2 18.44,128.92 C18.44,133.88 20.28,135.24 22.6,135.24 Z M60.6,160.04 C52.76,160.04 47.88,155.08 47.88,148.2 C47.88,139.56 53.96,136.76 64.2,134.92 L70.92,133.64 L70.92,132.12 C70.92,128.36 69.16,126.84 63.24,126.84 C59.32,126.84 55.08,127.16 52.12,127.64 L52.12,117.96 C56.44,116.44 63.24,114.92 71,114.92 C82.28,114.92 87.4,119.64 87.4,129.4 L87.4,147.32 C87.4,149.16 88.6,149.8 90.04,149.8 L91.16,149.8 L91.16,157.8 C89.56,158.84 85.72,160.04 82.04,160.04 C77.08,160.04 74.12,158.52 72.76,154.84 L72.36,154.84 C70.2,157.72 66.04,160.04 60.6,160.04 Z M67.72,150.68 C69.08,150.68 70.28,150.04 70.92,149.4 L70.92,140.84 L68.28,140.92 C65.56,141.08 64.2,142.52 64.2,145.88 C64.2,149.32 65.16,150.68 67.72,150.68 Z M93.24,159 L119.8,159 L119.8,150.6 L113.96,149.48 L113.96,130.84 C116.36,129.88 118.92,129.56 122.84,129.56 C124.36,129.56 125.88,129.72 126.76,129.96 L126.76,115.4 C126.2,115.24 125.32,115.16 124.6,115.16 C119.64,115.16 116.04,118.2 113.8,122.28 L113.32,122.28 L113.32,115.64 L111.96,115 L92.92,116.84 L92.92,125.4 L97.48,126.68 L97.48,149.48 L93.24,150.6 L93.24,159 Z M145.56,159.96 C137.48,159.96 129.08,154.92 129.08,138.52 C129.08,120.84 138.44,114.92 149.72,114.92 C153.08,114.92 154.84,115.48 156.52,116.2 L156.52,110.68 L151.88,109.4 L151.88,100.84 L171.56,99 L173,99.64 L173,148.2 L177.24,149.48 L177.24,157.88 L159.64,159.8 L158.28,159.16 L158.28,155.08 L157.8,155.08 C155.48,158.04 151,159.96 145.56,159.96 Z M152.12,148.52 C153.96,148.52 155.32,148.12 156.52,147.4 L156.52,126.28 C155.56,125.56 154.6,125 152.6,125 C148.84,125 146.44,127.08 146.44,136.84 C146.44,145.8 148.44,148.52 152.12,148.52 Z M202.92,160.04 C187.72,160.04 179.48,152.2 179.48,137.4 C179.48,123.16 188.12,114.92 201.8,114.92 C215.24,114.92 221.88,121.08 221.88,140.28 L196.6,140.28 C197.48,146.92 201.16,148.84 207.56,148.84 C213.08,148.84 216.84,147.88 219.88,146.92 L219.88,155.72 C216.68,157.88 211.48,160.04 202.92,160.04 Z M201.64,124.6 C199.16,124.6 197.08,126.04 196.52,132.76 L206.2,132.36 C206.2,126.12 204.12,124.6 201.64,124.6 Z M224.44,159 L247.96,159 L247.96,150.6 L245.16,149.8 L245.16,128.28 C246.52,127.8 247.8,127.4 249.56,127.4 C252.36,127.4 253.64,128.44 253.64,131.32 L253.64,149.8 L250.84,150.6 L250.84,159 L273.96,159 L273.96,150.6 L270.12,149.48 L270.12,125.4 C270.12,117.96 265.4,114.92 259.16,114.92 C253,114.92 249.08,117.08 245,120.44 L244.52,120.44 L244.52,115.64 L243.16,115 L224.12,116.84 L224.12,125.4 L228.68,126.68 L228.68,149.48 L224.44,150.6 L224.44,159 Z" transform="translate(137.000000, 97.080000) rotate(-360.000000) translate(-137.000000, -97.080000) "></path>
            </g>
        </g>
    </g>
</svg>