<svg width="313" height="119" viewBox="0 0 313 119" xmlns="http://www.w3.org/2000/svg"><title>floor-14-type-horizontal</title><g id="Assets" fill="none" fill-rule="evenodd"><g id="floor-14-type-horizontal" fill="#767676"><g id="floor-20"><path d="M22 106h17.58v-6.3l-3.12-.6V61.48L35.44 61l-8.94 1.38c-2.1-.6-5.4-1.32-8.76-1.32-6.78 0-12.72 2.4-12.72 10.14v2.7l-3.36 1.32v5.7h3.36v17.94l-3.18.84v6.3h17.64v-6.3l-2.1-.6V80.92h4.26v-7.26h-4.26v-1.2c0-2.58 1.2-3.18 3.72-3.18 1.2 0 2.1.18 3 .42v29.4l-2.1.6v6.3zm36.24.78c-11.16 0-17.04-6.42-17.04-16.74 0-11.34 7.5-17.1 17.04-17.1 11.16 0 17.04 6 17.04 16.68 0 11.34-7.56 17.16-17.04 17.16zm.06-7.44c2.58 0 3.9-1.86 3.9-9.3 0-7.92-1.44-9.72-4.02-9.72-2.58 0-3.96 1.56-3.96 9.3 0 7.92 1.44 9.72 4.08 9.72zm35.7 7.44c-11.16 0-17.04-6.42-17.04-16.74 0-11.34 7.5-17.1 17.04-17.1 11.16 0 17.04 6 17.04 16.68 0 11.34-7.56 17.16-17.04 17.16zm.06-7.44c2.58 0 3.9-1.86 3.9-9.3 0-7.92-1.44-9.72-4.02-9.72-2.58 0-3.96 1.56-3.96 9.3 0 7.92 1.44 9.72 4.08 9.72zm18.66 6.66h19.92v-6.3l-4.38-.84V84.88c1.8-.72 3.72-.96 6.66-.96 1.14 0 2.28.12 2.94.3V73.3c-.42-.12-1.08-.18-1.62-.18-3.72 0-6.42 2.28-8.1 5.34h-.36v-4.98l-1.02-.48-14.28 1.38v6.42l3.42.96v17.1l-3.18.84v6.3zm36.72 0h29.88l1.02-12.66h-7.08l-1.86 3.84h-8.7v-.12l4.92-3.36c7.32-4.98 12.06-10.02 12.06-16.74 0-8.04-5.16-13.2-14.88-13.2-5.88 0-11.04 1.86-14.16 3.6v7.86c2.46-.78 5.94-1.26 8.7-1.26 3.96 0 6.06 1.62 6.06 5.22 0 3.6-2.52 6.54-6.72 10.56l-9.24 8.82V106zm52.08.72c-10.74 0-18.72-6.6-18.72-21.3 0-15.3 9.06-21.72 19.02-21.72 10.62 0 18.66 6.6 18.66 21.3 0 15.3-9 21.72-18.96 21.72zm.18-7.98c3 0 4.44-3.72 4.44-13.14 0-10.92-1.02-13.86-4.5-13.86-3 0-4.5 3.78-4.5 13.14 0 10.86 1.02 13.86 4.56 13.86z"/></g></g></g></svg>