<svg width="313" height="119" viewBox="0 0 313 119" xmlns="http://www.w3.org/2000/svg"><title>floor-14-type-horizontal</title><g id="Assets" fill="none" fill-rule="evenodd"><g id="floor-14-type-horizontal" fill="#767676"><g id="postscript"><path d="M1.78 118v-6.12l3.18-.78V81.76L1.6 80.8v-6.42L15.82 73l1.02.48v3.18h.36c1.68-1.68 4.86-3.78 9.18-3.78 5.76 0 11.52 3.66 11.52 15.66 0 13.56-7.26 18.24-16.44 18.24-2.34 0-3.18-.12-4.14-.3v4.68l3.66.72V118H1.78zm18.48-18.6c3 0 4.62-1.62 4.62-9.42 0-6.3-1.32-8.34-4.14-8.34-1.56 0-2.58.3-3.42.78V98.5c.66.48 1.44.9 2.94.9zm36.6 7.38c-11.16 0-17.04-6.42-17.04-16.74 0-11.34 7.5-17.1 17.04-17.1 11.16 0 17.04 6 17.04 16.68 0 11.34-7.56 17.16-17.04 17.16zm.06-7.44c2.58 0 3.9-1.86 3.9-9.3 0-7.92-1.44-9.72-4.02-9.72-2.58 0-3.96 1.56-3.96 9.3 0 7.92 1.44 9.72 4.08 9.72zM88 106.78c11.34 0 15.9-4.62 15.9-11.82 0-4.98-2.64-8.4-9.3-9.72l-4.02-.84c-2.94-.6-3.96-1.14-3.96-2.58 0-1.5 1.68-2.1 3.72-2.1 1.62 0 2.64.36 3.3.72l.6 2.82h7.62V74.8c-2.76-1.26-7.08-1.92-11.16-1.92-10.56 0-15.12 4.62-15.12 11.22 0 5.94 3.3 8.82 9.54 10.08l3.54.78c2.46.54 3.36 1.02 3.36 2.46 0 1.5-1.32 2.4-3.66 2.4-1.68 0-3.06-.48-3.72-.9l-1.08-3.06h-7.8l.54 8.88c3.42 1.38 7.98 2.04 11.7 2.04zm31.32-.06c3.72 0 6.6-.84 8.1-1.74v-6.6c-.78.24-1.8.42-2.76.42-2.34 0-3.66-.66-3.66-3.3V80.92h6.12v-7.26H121V66.1h-9.78l-1.44 7.44-4.32 1.68v5.7h3.18v16.56c0 7.02 3.9 9.24 10.68 9.24zm22.68.06c11.34 0 15.9-4.62 15.9-11.82 0-4.98-2.64-8.4-9.3-9.72l-4.02-.84c-2.94-.6-3.96-1.14-3.96-2.58 0-1.5 1.68-2.1 3.72-2.1 1.62 0 2.64.36 3.3.72l.6 2.82h7.62V74.8c-2.76-1.26-7.08-1.92-11.16-1.92-10.56 0-15.12 4.62-15.12 11.22 0 5.94 3.3 8.82 9.54 10.08l3.54.78c2.46.54 3.36 1.02 3.36 2.46 0 1.5-1.32 2.4-3.66 2.4-1.68 0-3.06-.48-3.72-.9l-1.08-3.06h-7.8l.54 8.88c3.42 1.38 7.98 2.04 11.7 2.04zm34.98 0c5.58 0 9.42-1.62 11.34-3v-6.72c-1.68.66-4.5 1.26-7.32 1.26-5.34 0-8.16-2.16-8.16-9.24 0-6.72 1.74-8.76 4.62-8.76 1.2 0 1.62.24 2.04.42l.72 4.14h7.98V74.26c-1.86-.66-6.06-1.32-10.26-1.32-11.16 0-18.24 5.34-18.24 17.1 0 10.38 5.46 16.74 17.28 16.74zm13.98-.78h19.92v-6.3l-4.38-.84V84.88c1.8-.72 3.72-.96 6.66-.96 1.14 0 2.28.12 2.94.3V73.3c-.42-.12-1.08-.18-1.62-.18-3.72 0-6.42 2.28-8.1 5.34h-.36v-4.98L205 73l-14.28 1.38v6.42l3.42.96v17.1l-3.18.84v6.3zm26.64 0h18.48v-6.3l-2.94-.84V73.48l-1.08-.48-14.76 1.38v6.42l3.48.96v17.1l-3.18.84v6.3zm9.06-34.2c3.72 0 6.72-2.16 6.72-5.88 0-3.72-3-5.88-6.72-5.88-3.66 0-6.72 2.16-6.72 5.88 0 3.72 3.06 5.88 6.72 5.88zm10.98 46.2v-6.12l3.18-.78V81.76l-3.36-.96v-6.42L251.68 73l1.02.48v3.18h.36c1.68-1.68 4.86-3.78 9.18-3.78 5.76 0 11.52 3.66 11.52 15.66 0 13.56-7.26 18.24-16.44 18.24-2.34 0-3.18-.12-4.14-.3v4.68l3.66.72V118h-19.2zm18.48-18.6c3 0 4.62-1.62 4.62-9.42 0-6.3-1.32-8.34-4.14-8.34-1.56 0-2.58.3-3.42.78V98.5c.66.48 1.44.9 2.94.9zm33.18 7.32c3.72 0 6.6-.84 8.1-1.74v-6.6c-.78.24-1.8.42-2.76.42-2.34 0-3.66-.66-3.66-3.3V80.92h6.12v-7.26h-6.12V66.1h-9.78l-1.44 7.44-4.32 1.68v5.7h3.18v16.56c0 7.02 3.9 9.24 10.68 9.24z"/></g></g></g></svg>