<?xml version="1.0" encoding="UTF-8"?>
<svg width="313px" height="119px" viewBox="0 0 313 119" version="1.1" xmlns="http://www.w3.org/2000/svg" xmlns:xlink="http://www.w3.org/1999/xlink">
    <!-- Generator: Sketch 47.1 (45422) - http://www.bohemiancoding.com/sketch -->
    <title>floor-14-type-horizontal</title>
    <desc>Created with Sketch.</desc>
    <defs></defs>
    <g id="Assets" stroke="none" stroke-width="1" fill="none" fill-rule="evenodd">
        <g id="floor-14-type-horizontal" fill="#767676">
            <g id="communal-garden" transform="translate(0.000000, -13.000000)">
                <path d="M19.12,59.78 C24.7,59.78 28.54,58.16 30.46,56.78 L30.46,50.06 C28.78,50.72 25.96,51.32 23.14,51.32 C17.8,51.32 14.98,49.16 14.98,42.08 C14.98,35.36 16.72,33.32 19.6,33.32 C20.8,33.32 21.22,33.56 21.64,33.74 L22.36,37.88 L30.34,37.88 L30.34,27.26 C28.48,26.6 24.28,25.94 20.08,25.94 C8.92,25.94 1.84,31.28 1.84,43.04 C1.84,53.42 7.3,59.78 19.12,59.78 Z M50.14,59.78 C38.98,59.78 33.1,53.36 33.1,43.04 C33.1,31.7 40.6,25.94 50.14,25.94 C61.3,25.94 67.18,31.94 67.18,42.62 C67.18,53.96 59.62,59.78 50.14,59.78 Z M50.2,52.34 C52.78,52.34 54.1,50.48 54.1,43.04 C54.1,35.12 52.66,33.32 50.08,33.32 C47.5,33.32 46.12,34.88 46.12,42.62 C46.12,50.54 47.56,52.34 50.2,52.34 Z M68.86,59 L86.38,59 L86.38,52.7 L84.4,52.1 L84.4,35.96 C85.42,35.54 86.14,35.3 87.52,35.3 C89.56,35.3 90.34,36.08 90.34,38.36 L90.34,52.1 L88.42,52.7 L88.42,59 L104.68,59 L104.68,52.7 L102.7,52.1 L102.7,37.04 C102.7,36.74 102.64,36.08 102.64,35.96 C103.66,35.54 104.56,35.3 105.7,35.3 C107.86,35.3 108.64,36.08 108.64,38.36 L108.64,52.1 L106.72,52.7 L106.72,59 L123.82,59 L123.82,52.7 L121,51.86 L121,33.92 C121,28.34 117.22,25.94 112.72,25.94 C108.16,25.94 104.68,27.8 102.1,30.2 L101.8,30.2 C100.54,27.26 97.78,25.94 94.48,25.94 C89.92,25.94 86.98,27.56 84.28,29.9 L83.92,29.9 L83.92,26.48 L82.9,26 L68.62,27.38 L68.62,33.8 L72.04,34.76 L72.04,51.86 L68.86,52.7 L68.86,59 Z M125.44,59 L142.96,59 L142.96,52.7 L140.98,52.1 L140.98,35.96 C142,35.54 142.72,35.3 144.1,35.3 C146.14,35.3 146.92,36.08 146.92,38.36 L146.92,52.1 L145,52.7 L145,59 L161.26,59 L161.26,52.7 L159.28,52.1 L159.28,37.04 C159.28,36.74 159.22,36.08 159.22,35.96 C160.24,35.54 161.14,35.3 162.28,35.3 C164.44,35.3 165.22,36.08 165.22,38.36 L165.22,52.1 L163.3,52.7 L163.3,59 L180.4,59 L180.4,52.7 L177.58,51.86 L177.58,33.92 C177.58,28.34 173.8,25.94 169.3,25.94 C164.74,25.94 161.26,27.8 158.68,30.2 L158.38,30.2 C157.12,27.26 154.36,25.94 151.06,25.94 C146.5,25.94 143.56,27.56 140.86,29.9 L140.5,29.9 L140.5,26.48 L139.48,26 L125.2,27.38 L125.2,33.8 L128.62,34.76 L128.62,51.86 L125.44,52.7 L125.44,59 Z M194.08,59.72 C198.58,59.72 201.52,57.8 203.56,55.64 L203.92,55.64 L203.92,59.12 L205,59.6 L219.04,58.16 L219.04,51.86 L215.86,50.9 L215.86,26.54 L214.78,26 L200.62,27.32 L200.62,33.68 L203.5,34.7 L203.5,49.7 C202.6,50.06 201.64,50.42 200.08,50.42 C197.86,50.42 197.08,49.46 197.08,47.3 L197.08,26.54 L196.06,26 L181.66,27.32 L181.66,33.68 L184.72,34.7 L184.72,50.9 C184.72,56.48 187.36,59.72 194.08,59.72 Z M220.78,59 L238.42,59 L238.42,52.7 L236.32,52.1 L236.32,35.96 C237.34,35.6 238.3,35.3 239.62,35.3 C241.72,35.3 242.68,36.08 242.68,38.24 L242.68,52.1 L240.58,52.7 L240.58,59 L257.92,59 L257.92,52.7 L255.04,51.86 L255.04,33.8 C255.04,28.22 251.5,25.94 246.82,25.94 C242.2,25.94 239.26,27.56 236.2,30.08 L235.84,30.08 L235.84,26.48 L234.82,26 L220.54,27.38 L220.54,33.8 L223.96,34.76 L223.96,51.86 L220.78,52.7 L220.78,59 Z M268.9,59.78 C263.02,59.78 259.36,56.06 259.36,50.9 C259.36,44.42 263.92,42.32 271.6,40.94 L276.64,39.98 L276.64,38.84 C276.64,36.02 275.32,34.88 270.88,34.88 C267.94,34.88 264.76,35.12 262.54,35.48 L262.54,28.22 C265.78,27.08 270.88,25.94 276.7,25.94 C285.16,25.94 289,29.48 289,36.8 L289,50.24 C289,51.62 289.9,52.1 290.98,52.1 L291.82,52.1 L291.82,58.1 C290.62,58.88 287.74,59.78 284.98,59.78 C281.26,59.78 279.04,58.64 278.02,55.88 L277.72,55.88 C276.1,58.04 272.98,59.78 268.9,59.78 Z M274.24,52.76 C275.26,52.76 276.16,52.28 276.64,51.8 L276.64,45.38 L274.66,45.44 C272.62,45.56 271.6,46.64 271.6,49.16 C271.6,51.74 272.32,52.76 274.24,52.76 Z M293.38,59 L312.16,59 L312.16,52.7 L309.04,51.86 L309.04,14.48 L308.02,14 L293.08,15.38 L293.08,21.74 L296.68,22.76 L296.68,51.86 L293.38,52.7 L293.38,59 Z M16.72,131.18 C6.22,131.18 0.88,128.36 0.88,123.92 C0.88,120.26 4.18,118.4 7.78,117.56 L7.78,117.26 C4.78,116.42 3.4,114.56 3.4,111.86 C3.4,109.16 5.56,106.58 8.14,104.96 C5.14,103.34 3.1,100.58 3.1,96.86 C3.1,89.84 8.98,86 17.8,86 C20.56,86 22.84,86.36 24.76,86.96 L35.32,85.46 L35.32,92.54 L31.36,92.42 C32.02,93.62 32.44,94.82 32.44,96.2 C32.44,103.22 26.8,107.12 17.8,107.12 C16.24,107.12 14.92,107 13.6,106.76 C13.24,107.18 13.12,107.72 13.12,108.2 C13.12,108.86 13.6,109.76 15.28,109.76 L25.72,109.76 C31.42,109.76 35.8,112.34 35.8,118.76 C35.8,125.54 30.46,131.18 16.72,131.18 Z M17.62,124.4 C22.72,124.4 24.4,123.08 24.4,121.52 C24.4,120.02 23.56,119.6 20.98,119.6 L14.02,119.6 C13,120.02 12.28,120.68 12.28,121.94 C12.28,123.38 13.66,124.4 17.62,124.4 Z M17.8,101.18 C19.54,101.18 20.98,100.16 20.98,96.62 C20.98,92.66 19.6,91.94 17.8,91.94 C16.06,91.94 14.68,92.9 14.68,96.44 C14.68,100.16 16.06,101.18 17.8,101.18 Z M46.3,119.78 C40.42,119.78 36.76,116.06 36.76,110.9 C36.76,104.42 41.32,102.32 49,100.94 L54.04,99.98 L54.04,98.84 C54.04,96.02 52.72,94.88 48.28,94.88 C45.34,94.88 42.16,95.12 39.94,95.48 L39.94,88.22 C43.18,87.08 48.28,85.94 54.1,85.94 C62.56,85.94 66.4,89.48 66.4,96.8 L66.4,110.24 C66.4,111.62 67.3,112.1 68.38,112.1 L69.22,112.1 L69.22,118.1 C68.02,118.88 65.14,119.78 62.38,119.78 C58.66,119.78 56.44,118.64 55.42,115.88 L55.12,115.88 C53.5,118.04 50.38,119.78 46.3,119.78 Z M51.64,112.76 C52.66,112.76 53.56,112.28 54.04,111.8 L54.04,105.38 L52.06,105.44 C50.02,105.56 49,106.64 49,109.16 C49,111.74 49.72,112.76 51.64,112.76 Z M70.78,119 L90.7,119 L90.7,112.7 L86.32,111.86 L86.32,97.88 C88.12,97.16 90.04,96.92 92.98,96.92 C94.12,96.92 95.26,97.04 95.92,97.22 L95.92,86.3 C95.5,86.18 94.84,86.12 94.3,86.12 C90.58,86.12 87.88,88.4 86.2,91.46 L85.84,91.46 L85.84,86.48 L84.82,86 L70.54,87.38 L70.54,93.8 L73.96,94.76 L73.96,111.86 L70.78,112.7 L70.78,119 Z M110.02,119.72 C103.96,119.72 97.66,115.94 97.66,103.64 C97.66,90.38 104.68,85.94 113.14,85.94 C115.66,85.94 116.98,86.36 118.24,86.9 L118.24,82.76 L114.76,81.8 L114.76,75.38 L129.52,74 L130.6,74.48 L130.6,110.9 L133.78,111.86 L133.78,118.16 L120.58,119.6 L119.56,119.12 L119.56,116.06 L119.2,116.06 C117.46,118.28 114.1,119.72 110.02,119.72 Z M114.94,111.14 C116.32,111.14 117.34,110.84 118.24,110.3 L118.24,94.46 C117.52,93.92 116.8,93.5 115.3,93.5 C112.48,93.5 110.68,95.06 110.68,102.38 C110.68,109.1 112.18,111.14 114.94,111.14 Z M153.04,119.78 C141.64,119.78 135.46,113.9 135.46,102.8 C135.46,92.12 141.94,85.94 152.2,85.94 C162.28,85.94 167.26,90.56 167.26,104.96 L148.3,104.96 C148.96,109.94 151.72,111.38 156.52,111.38 C160.66,111.38 163.48,110.66 165.76,109.94 L165.76,116.54 C163.36,118.16 159.46,119.78 153.04,119.78 Z M152.08,93.2 C150.22,93.2 148.66,94.28 148.24,99.32 L155.5,99.02 C155.5,94.34 153.94,93.2 152.08,93.2 Z M169.18,119 L186.82,119 L186.82,112.7 L184.72,112.1 L184.72,95.96 C185.74,95.6 186.7,95.3 188.02,95.3 C190.12,95.3 191.08,96.08 191.08,98.24 L191.08,112.1 L188.98,112.7 L188.98,119 L206.32,119 L206.32,112.7 L203.44,111.86 L203.44,93.8 C203.44,88.22 199.9,85.94 195.22,85.94 C190.6,85.94 187.66,87.56 184.6,90.08 L184.24,90.08 L184.24,86.48 L183.22,86 L168.94,87.38 L168.94,93.8 L172.36,94.76 L172.36,111.86 L169.18,112.7 L169.18,119 Z" transform="translate(156.520000, 72.590000) rotate(-360.000000) translate(-156.520000, -72.590000) "></path>
            </g>
        </g>
    </g>
</svg>