<?xml version="1.0" encoding="UTF-8"?>
<svg width="313px" height="119px" viewBox="0 0 313 119" version="1.1" xmlns="http://www.w3.org/2000/svg" xmlns:xlink="http://www.w3.org/1999/xlink">
    <!-- Generator: Sketch 47.1 (45422) - http://www.bohemiancoding.com/sketch -->
    <title>floor-14-type-horizontal</title>
    <desc>Created with Sketch.</desc>
    <defs></defs>
    <g id="Assets" stroke="none" stroke-width="1" fill="none" fill-rule="evenodd">
        <g id="floor-14-type-horizontal" fill="#767676">
            <g id="floor-20" transform="translate(1.000000, -13.000000)">
                <path d="M21,119 L38.58,119 L38.58,112.7 L35.46,112.1 L35.46,74.48 L34.44,74 L25.5,75.38 C23.4,74.78 20.1,74.06 16.74,74.06 C9.96,74.06 4.02,76.46 4.02,84.2 L4.02,86.9 L0.66,88.22 L0.66,93.92 L4.02,93.92 L4.02,111.86 L0.84,112.7 L0.84,119 L18.48,119 L18.48,112.7 L16.38,112.1 L16.38,93.92 L20.64,93.92 L20.64,86.66 L16.38,86.66 L16.38,85.46 C16.38,82.88 17.58,82.28 20.1,82.28 C21.3,82.28 22.2,82.46 23.1,82.7 L23.1,112.1 L21,112.7 L21,119 Z M57.24,119.78 C46.08,119.78 40.2,113.36 40.2,103.04 C40.2,91.7 47.7,85.94 57.24,85.94 C68.4,85.94 74.28,91.94 74.28,102.62 C74.28,113.96 66.72,119.78 57.24,119.78 Z M57.3,112.34 C59.88,112.34 61.2,110.48 61.2,103.04 C61.2,95.12 59.76,93.32 57.18,93.32 C54.6,93.32 53.22,94.88 53.22,102.62 C53.22,110.54 54.66,112.34 57.3,112.34 Z M93,119.78 C81.84,119.78 75.96,113.36 75.96,103.04 C75.96,91.7 83.46,85.94 93,85.94 C104.16,85.94 110.04,91.94 110.04,102.62 C110.04,113.96 102.48,119.78 93,119.78 Z M93.06,112.34 C95.64,112.34 96.96,110.48 96.96,103.04 C96.96,95.12 95.52,93.32 92.94,93.32 C90.36,93.32 88.98,94.88 88.98,102.62 C88.98,110.54 90.42,112.34 93.06,112.34 Z M111.72,119 L131.64,119 L131.64,112.7 L127.26,111.86 L127.26,97.88 C129.06,97.16 130.98,96.92 133.92,96.92 C135.06,96.92 136.2,97.04 136.86,97.22 L136.86,86.3 C136.44,86.18 135.78,86.12 135.24,86.12 C131.52,86.12 128.82,88.4 127.14,91.46 L126.78,91.46 L126.78,86.48 L125.76,86 L111.48,87.38 L111.48,93.8 L114.9,94.76 L114.9,111.86 L111.72,112.7 L111.72,119 Z M148.44,119 L178.32,119 L179.34,106.34 L172.26,106.34 L170.4,110.18 L161.7,110.18 L161.7,110.06 L166.62,106.7 C173.94,101.72 178.68,96.68 178.68,89.96 C178.68,81.92 173.52,76.76 163.8,76.76 C157.92,76.76 152.76,78.62 149.64,80.36 L149.64,88.22 C152.1,87.44 155.58,86.96 158.34,86.96 C162.3,86.96 164.4,88.58 164.4,92.18 C164.4,95.78 161.88,98.72 157.68,102.74 L148.44,111.56 L148.44,119 Z M200.52,119.72 C189.78,119.72 181.8,113.12 181.8,98.42 C181.8,83.12 190.86,76.7 200.82,76.7 C211.44,76.7 219.48,83.3 219.48,98 C219.48,113.3 210.48,119.72 200.52,119.72 Z M200.7,111.74 C203.7,111.74 205.14,108.02 205.14,98.6 C205.14,87.68 204.12,84.74 200.64,84.74 C197.64,84.74 196.14,88.52 196.14,97.88 C196.14,108.74 197.16,111.74 200.7,111.74 Z" transform="translate(110.070000, 96.890000) rotate(-360.000000) translate(-110.070000, -96.890000) "></path>
            </g>
        </g>
    </g>
</svg>