<?xml version="1.0" encoding="UTF-8"?>
<svg width="300px" height="264px" viewBox="0 0 300 264" version="1.1" xmlns="http://www.w3.org/2000/svg" xmlns:xlink="http://www.w3.org/1999/xlink">
    <!-- Generator: Sketch 47.1 (45422) - http://www.bohemiancoding.com/sketch -->
    <title>floor-14-type-horizontal</title>
    <desc>Created with Sketch.</desc>
    <defs></defs>
    <g id="Assets" stroke="none" stroke-width="1" fill="none" fill-rule="evenodd">
        <g id="floor-14-type-horizontal" fill="#EAEAEA">
            <g id="the-allotment" transform="translate(95.000000, -6.000000)">
                <path d="M94.88,79.96 C99.84,79.96 103.68,78.84 105.68,77.64 L105.68,68.84 C104.64,69.16 103.28,69.4 102,69.4 C98.88,69.4 97.12,68.52 97.12,65 L97.12,45.56 L105.28,45.56 L105.28,35.88 L97.12,35.88 L97.12,25.8 L84.08,25.8 L82.16,35.72 L76.4,37.96 L76.4,45.56 L80.64,45.56 L80.64,67.64 C80.64,77 85.84,79.96 94.88,79.96 Z M108.56,79 L132.08,79 L132.08,70.6 L129.28,69.8 L129.28,48.28 C130.64,47.8 131.92,47.4 133.68,47.4 C136.48,47.4 137.76,48.44 137.76,51.32 L137.76,69.8 L134.96,70.6 L134.96,79 L158.08,79 L158.08,70.6 L154.24,69.48 L154.24,45.4 C154.24,37.96 149.52,34.92 143.28,34.92 C137.12,34.92 133.52,37.08 129.68,40.2 L129.28,40.2 L129.28,19.64 L127.84,18.92 L108.24,20.84 L108.24,29.32 L112.8,30.6 L112.8,69.48 L108.56,70.6 L108.56,79 Z M183.6,80.04 C168.4,80.04 160.16,72.2 160.16,57.4 C160.16,43.16 168.8,34.92 182.48,34.92 C195.92,34.92 202.56,41.08 202.56,60.28 L177.28,60.28 C178.16,66.92 181.84,68.84 188.24,68.84 C193.76,68.84 197.52,67.88 200.56,66.92 L200.56,75.72 C197.36,77.88 192.16,80.04 183.6,80.04 Z M182.32,44.6 C179.84,44.6 177.76,46.04 177.2,52.76 L186.88,52.36 C186.88,46.12 184.8,44.6 182.32,44.6 Z M38.56,160.04 C30.72,160.04 25.84,155.08 25.84,148.2 C25.84,139.56 31.92,136.76 42.16,134.92 L48.88,133.64 L48.88,132.12 C48.88,128.36 47.12,126.84 41.2,126.84 C37.28,126.84 33.04,127.16 30.08,127.64 L30.08,117.96 C34.4,116.44 41.2,114.92 48.96,114.92 C60.24,114.92 65.36,119.64 65.36,129.4 L65.36,147.32 C65.36,149.16 66.56,149.8 68,149.8 L69.12,149.8 L69.12,157.8 C67.52,158.84 63.68,160.04 60,160.04 C55.04,160.04 52.08,158.52 50.72,154.84 L50.32,154.84 C48.16,157.72 44,160.04 38.56,160.04 Z M45.68,150.68 C47.04,150.68 48.24,150.04 48.88,149.4 L48.88,140.84 L46.24,140.92 C43.52,141.08 42.16,142.52 42.16,145.88 C42.16,149.32 43.12,150.68 45.68,150.68 Z M71.2,159 L96.24,159 L96.24,150.6 L92.08,149.48 L92.08,99.64 L90.72,99 L70.8,100.84 L70.8,109.32 L75.6,110.68 L75.6,149.48 L71.2,150.6 L71.2,159 Z M98.4,159 L123.44,159 L123.44,150.6 L119.28,149.48 L119.28,99.64 L117.92,99 L98,100.84 L98,109.32 L102.8,110.68 L102.8,149.48 L98.4,150.6 L98.4,159 Z M148.32,160.04 C133.44,160.04 125.6,151.48 125.6,137.72 C125.6,122.6 135.6,114.92 148.32,114.92 C163.2,114.92 171.04,122.92 171.04,137.16 C171.04,152.28 160.96,160.04 148.32,160.04 Z M148.4,150.12 C151.84,150.12 153.6,147.64 153.6,137.72 C153.6,127.16 151.68,124.76 148.24,124.76 C144.8,124.76 142.96,126.84 142.96,137.16 C142.96,147.72 144.88,150.12 148.4,150.12 Z M191.44,159.96 C196.4,159.96 200.24,158.84 202.24,157.64 L202.24,148.84 C201.2,149.16 199.84,149.4 198.56,149.4 C195.44,149.4 193.68,148.52 193.68,145 L193.68,125.56 L201.84,125.56 L201.84,115.88 L193.68,115.88 L193.68,105.8 L180.64,105.8 L178.72,115.72 L172.96,117.96 L172.96,125.56 L177.2,125.56 L177.2,147.64 C177.2,157 182.4,159.96 191.44,159.96 Z M1.2,239 L24.56,239 L24.56,230.6 L21.92,229.8 L21.92,208.28 C23.28,207.72 24.24,207.4 26.08,207.4 C28.8,207.4 29.84,208.44 29.84,211.48 L29.84,229.8 L27.28,230.6 L27.28,239 L48.96,239 L48.96,230.6 L46.32,229.8 L46.32,209.72 C46.32,209.32 46.24,208.44 46.24,208.28 C47.6,207.72 48.8,207.4 50.32,207.4 C53.2,207.4 54.24,208.44 54.24,211.48 L54.24,229.8 L51.68,230.6 L51.68,239 L74.48,239 L74.48,230.6 L70.72,229.48 L70.72,205.56 C70.72,198.12 65.68,194.92 59.68,194.92 C53.6,194.92 48.96,197.4 45.52,200.6 L45.12,200.6 C43.44,196.68 39.76,194.92 35.36,194.92 C29.28,194.92 25.36,197.08 21.76,200.2 L21.28,200.2 L21.28,195.64 L19.92,195 L0.88,196.84 L0.88,205.4 L5.44,206.68 L5.44,229.48 L1.2,230.6 L1.2,239 Z M100.08,240.04 C84.88,240.04 76.64,232.2 76.64,217.4 C76.64,203.16 85.28,194.92 98.96,194.92 C112.4,194.92 119.04,201.08 119.04,220.28 L93.76,220.28 C94.64,226.92 98.32,228.84 104.72,228.84 C110.24,228.84 114,227.88 117.04,226.92 L117.04,235.72 C113.84,237.88 108.64,240.04 100.08,240.04 Z M98.8,204.6 C96.32,204.6 94.24,206.04 93.68,212.76 L103.36,212.36 C103.36,206.12 101.28,204.6 98.8,204.6 Z M121.6,239 L145.12,239 L145.12,230.6 L142.32,229.8 L142.32,208.28 C143.68,207.8 144.96,207.4 146.72,207.4 C149.52,207.4 150.8,208.44 150.8,211.32 L150.8,229.8 L148,230.6 L148,239 L171.12,239 L171.12,230.6 L167.28,229.48 L167.28,205.4 C167.28,197.96 162.56,194.92 156.32,194.92 C150.16,194.92 146.24,197.08 142.16,200.44 L141.68,200.44 L141.68,195.64 L140.32,195 L121.28,196.84 L121.28,205.4 L125.84,206.68 L125.84,229.48 L121.6,230.6 L121.6,239 Z M191.44,239.96 C196.4,239.96 200.24,238.84 202.24,237.64 L202.24,228.84 C201.2,229.16 199.84,229.4 198.56,229.4 C195.44,229.4 193.68,228.52 193.68,225 L193.68,205.56 L201.84,205.56 L201.84,195.88 L193.68,195.88 L193.68,185.8 L180.64,185.8 L178.72,195.72 L172.96,197.96 L172.96,205.56 L177.2,205.56 L177.2,227.64 C177.2,237 182.4,239.96 191.44,239.96 Z" id="the-allot-ment" transform="translate(101.720000, 129.480000) rotate(-360.000000) translate(-101.720000, -129.480000) "></path>
            </g>
        </g>
    </g>
</svg>