<?xml version="1.0" encoding="UTF-8"?>
<svg width="300px" height="264px" viewBox="0 0 300 264" version="1.1" xmlns="http://www.w3.org/2000/svg" xmlns:xlink="http://www.w3.org/1999/xlink">
    <!-- Generator: Sketch 47.1 (45422) - http://www.bohemiancoding.com/sketch -->
    <title>floor-14-type-horizontal</title>
    <desc>Created with Sketch.</desc>
    <defs></defs>
    <g id="Assets" stroke="none" stroke-width="1" fill="none" fill-rule="evenodd">
        <g id="floor-14-type-horizontal" fill="#EAEAEA">
            <g id="floor-20" transform="translate(102.000000, -6.000000)">
                <path d="M41.64,79 L65.08,79 L65.08,70.6 L60.92,69.8 L60.92,19.64 L59.56,19 L47.64,20.84 C44.84,20.04 40.44,19.08 35.96,19.08 C26.92,19.08 19,22.28 19,32.6 L19,36.2 L14.52,37.96 L14.52,45.56 L19,45.56 L19,69.48 L14.76,70.6 L14.76,79 L38.28,79 L38.28,70.6 L35.48,69.8 L35.48,45.56 L41.16,45.56 L41.16,35.88 L35.48,35.88 L35.48,34.28 C35.48,30.84 37.08,30.04 40.44,30.04 C42.04,30.04 43.24,30.28 44.44,30.6 L44.44,69.8 L41.64,70.6 L41.64,79 Z M89.96,80.04 C75.08,80.04 67.24,71.48 67.24,57.72 C67.24,42.6 77.24,34.92 89.96,34.92 C104.84,34.92 112.68,42.92 112.68,57.16 C112.68,72.28 102.6,80.04 89.96,80.04 Z M90.04,70.12 C93.48,70.12 95.24,67.64 95.24,57.72 C95.24,47.16 93.32,44.76 89.88,44.76 C86.44,44.76 84.6,46.84 84.6,57.16 C84.6,67.72 86.52,70.12 90.04,70.12 Z M137.64,80.04 C122.76,80.04 114.92,71.48 114.92,57.72 C114.92,42.6 124.92,34.92 137.64,34.92 C152.52,34.92 160.36,42.92 160.36,57.16 C160.36,72.28 150.28,80.04 137.64,80.04 Z M137.72,70.12 C141.16,70.12 142.92,67.64 142.92,57.72 C142.92,47.16 141,44.76 137.56,44.76 C134.12,44.76 132.28,46.84 132.28,57.16 C132.28,67.72 134.2,70.12 137.72,70.12 Z M162.6,79 L189.16,79 L189.16,70.6 L183.32,69.48 L183.32,50.84 C185.72,49.88 188.28,49.56 192.2,49.56 C193.72,49.56 195.24,49.72 196.12,49.96 L196.12,35.4 C195.56,35.24 194.68,35.16 193.96,35.16 C189,35.16 185.4,38.2 183.16,42.28 L182.68,42.28 L182.68,35.64 L181.32,35 L162.28,36.84 L162.28,45.4 L166.84,46.68 L166.84,69.48 L162.6,70.6 L162.6,79 Z M100.52,159 L140.36,159 L141.72,142.12 L132.28,142.12 L129.8,147.24 L118.2,147.24 L118.2,147.08 L124.76,142.6 C134.52,135.96 140.84,129.24 140.84,120.28 C140.84,109.56 133.96,102.68 121,102.68 C113.16,102.68 106.28,105.16 102.12,107.48 L102.12,117.96 C105.4,116.92 110.04,116.28 113.72,116.28 C119,116.28 121.8,118.44 121.8,123.24 C121.8,128.04 118.44,131.96 112.84,137.32 L100.52,149.08 L100.52,159 Z M169.96,159.96 C155.64,159.96 145,151.16 145,131.56 C145,111.16 157.08,102.6 170.36,102.6 C184.52,102.6 195.24,111.4 195.24,131 C195.24,151.4 183.24,159.96 169.96,159.96 Z M170.2,149.32 C174.2,149.32 176.12,144.36 176.12,131.8 C176.12,117.24 174.76,113.32 170.12,113.32 C166.12,113.32 164.12,118.36 164.12,130.84 C164.12,145.32 165.48,149.32 170.2,149.32 Z" transform="translate(105.320000, 89.480000) rotate(-360.000000) translate(-105.320000, -89.480000) "></path>
            </g>
        </g>
    </g>
</svg>