<?xml version="1.0" encoding="UTF-8"?>
<svg width="314px" height="47px" viewBox="0 0 314 47" version="1.1" xmlns="http://www.w3.org/2000/svg" xmlns:xlink="http://www.w3.org/1999/xlink">
    <!-- Generator: Sketch 47.1 (45422) - http://www.bohemiancoding.com/sketch -->
    <title>floor-14-type-mobile</title>
    <desc>Created with Sketch.</desc>
    <defs></defs>
    <g id="Assets" stroke="none" stroke-width="1" fill="none" fill-rule="evenodd">
        <g id="floor-14-type-mobile" fill="#EAEAEA">
            <g id="the-garden" transform="translate(0.000000, -11.000000)">
                <path d="M11.568,48.576 C14.544,48.576 16.848,47.904 18.048,47.184 L18.048,41.904 C17.424,42.096 16.608,42.24 15.84,42.24 C13.968,42.24 12.912,41.712 12.912,39.6 L12.912,27.936 L17.808,27.936 L17.808,22.128 L12.912,22.128 L12.912,16.08 L5.088,16.08 L3.936,22.032 L0.48,23.376 L0.48,27.936 L3.024,27.936 L3.024,41.184 C3.024,46.8 6.144,48.576 11.568,48.576 Z M19.776,48 L33.888,48 L33.888,42.96 L32.208,42.48 L32.208,29.568 C33.024,29.28 33.792,29.04 34.848,29.04 C36.528,29.04 37.296,29.664 37.296,31.392 L37.296,42.48 L35.616,42.96 L35.616,48 L49.488,48 L49.488,42.96 L47.184,42.288 L47.184,27.84 C47.184,23.376 44.352,21.552 40.608,21.552 C36.912,21.552 34.752,22.848 32.448,24.72 L32.208,24.72 L32.208,12.384 L31.344,11.952 L19.584,13.104 L19.584,18.192 L22.32,18.96 L22.32,42.288 L19.776,42.96 L19.776,48 Z M64.8,48.624 C55.68,48.624 50.736,43.92 50.736,35.04 C50.736,26.496 55.92,21.552 64.128,21.552 C72.192,21.552 76.176,25.248 76.176,36.768 L61.008,36.768 C61.536,40.752 63.744,41.904 67.584,41.904 C70.896,41.904 73.152,41.328 74.976,40.752 L74.976,46.032 C73.056,47.328 69.936,48.624 64.8,48.624 Z M64.032,27.36 C62.544,27.36 61.296,28.224 60.96,32.256 L66.768,32.016 C66.768,28.272 65.52,27.36 64.032,27.36 Z M97.776,57.744 C89.376,57.744 85.104,55.488 85.104,51.936 C85.104,49.008 87.744,47.52 90.624,46.848 L90.624,46.608 C88.224,45.936 87.12,44.448 87.12,42.288 C87.12,40.128 88.848,38.064 90.912,36.768 C88.512,35.472 86.88,33.264 86.88,30.288 C86.88,24.672 91.584,21.6 98.64,21.6 C100.848,21.6 102.672,21.888 104.208,22.368 L112.656,21.168 L112.656,26.832 L109.488,26.736 C110.016,27.696 110.352,28.656 110.352,29.76 C110.352,35.376 105.84,38.496 98.64,38.496 C97.392,38.496 96.336,38.4 95.28,38.208 C94.992,38.544 94.896,38.976 94.896,39.36 C94.896,39.888 95.28,40.608 96.624,40.608 L104.976,40.608 C109.536,40.608 113.04,42.672 113.04,47.808 C113.04,53.232 108.768,57.744 97.776,57.744 Z M98.496,52.32 C102.576,52.32 103.92,51.264 103.92,50.016 C103.92,48.816 103.248,48.48 101.184,48.48 L95.616,48.48 C94.8,48.816 94.224,49.344 94.224,50.352 C94.224,51.504 95.328,52.32 98.496,52.32 Z M98.64,33.744 C100.032,33.744 101.184,32.928 101.184,30.096 C101.184,26.928 100.08,26.352 98.64,26.352 C97.248,26.352 96.144,27.12 96.144,29.952 C96.144,32.928 97.248,33.744 98.64,33.744 Z M121.44,48.624 C116.736,48.624 113.808,45.648 113.808,41.52 C113.808,36.336 117.456,34.656 123.6,33.552 L127.632,32.784 L127.632,31.872 C127.632,29.616 126.576,28.704 123.024,28.704 C120.672,28.704 118.128,28.896 116.352,29.184 L116.352,23.376 C118.944,22.464 123.024,21.552 127.68,21.552 C134.448,21.552 137.52,24.384 137.52,30.24 L137.52,40.992 C137.52,42.096 138.24,42.48 139.104,42.48 L139.776,42.48 L139.776,47.28 C138.816,47.904 136.512,48.624 134.304,48.624 C131.328,48.624 129.552,47.712 128.736,45.504 L128.496,45.504 C127.2,47.232 124.704,48.624 121.44,48.624 Z M125.712,43.008 C126.528,43.008 127.248,42.624 127.632,42.24 L127.632,37.104 L126.048,37.152 C124.416,37.248 123.6,38.112 123.6,40.128 C123.6,42.192 124.176,43.008 125.712,43.008 Z M141.024,48 L156.96,48 L156.96,42.96 L153.456,42.288 L153.456,31.104 C154.896,30.528 156.432,30.336 158.784,30.336 C159.696,30.336 160.608,30.432 161.136,30.576 L161.136,21.84 C160.8,21.744 160.272,21.696 159.84,21.696 C156.864,21.696 154.704,23.52 153.36,25.968 L153.072,25.968 L153.072,21.984 L152.256,21.6 L140.832,22.704 L140.832,27.84 L143.568,28.608 L143.568,42.288 L141.024,42.96 L141.024,48 Z M172.416,48.576 C167.568,48.576 162.528,45.552 162.528,35.712 C162.528,25.104 168.144,21.552 174.912,21.552 C176.928,21.552 177.984,21.888 178.992,22.32 L178.992,19.008 L176.208,18.24 L176.208,13.104 L188.016,12 L188.88,12.384 L188.88,41.52 L191.424,42.288 L191.424,47.328 L180.864,48.48 L180.048,48.096 L180.048,45.648 L179.76,45.648 C178.368,47.424 175.68,48.576 172.416,48.576 Z M176.352,41.712 C177.456,41.712 178.272,41.472 178.992,41.04 L178.992,28.368 C178.416,27.936 177.84,27.6 176.64,27.6 C174.384,27.6 172.944,28.848 172.944,34.704 C172.944,40.08 174.144,41.712 176.352,41.712 Z M206.832,48.624 C197.712,48.624 192.768,43.92 192.768,35.04 C192.768,26.496 197.952,21.552 206.16,21.552 C214.224,21.552 218.208,25.248 218.208,36.768 L203.04,36.768 C203.568,40.752 205.776,41.904 209.616,41.904 C212.928,41.904 215.184,41.328 217.008,40.752 L217.008,46.032 C215.088,47.328 211.968,48.624 206.832,48.624 Z M206.064,27.36 C204.576,27.36 203.328,28.224 202.992,32.256 L208.8,32.016 C208.8,28.272 207.552,27.36 206.064,27.36 Z M219.744,48 L233.856,48 L233.856,42.96 L232.176,42.48 L232.176,29.568 C232.992,29.28 233.76,29.04 234.816,29.04 C236.496,29.04 237.264,29.664 237.264,31.392 L237.264,42.48 L235.584,42.96 L235.584,48 L249.456,48 L249.456,42.96 L247.152,42.288 L247.152,27.84 C247.152,23.376 244.32,21.552 240.576,21.552 C236.88,21.552 234.528,22.848 232.08,24.864 L231.792,24.864 L231.792,21.984 L230.976,21.6 L219.552,22.704 L219.552,27.84 L222.288,28.608 L222.288,42.288 L219.744,42.96 L219.744,48 Z" transform="translate(124.968000, 34.848000) rotate(-360.000000) translate(-124.968000, -34.848000) "></path>
            </g>
        </g>
    </g>
</svg>