<?xml version="1.0" encoding="UTF-8"?>
<svg width="314px" height="86px" viewBox="0 0 314 86" version="1.1" xmlns="http://www.w3.org/2000/svg" xmlns:xlink="http://www.w3.org/1999/xlink">
    <!-- Generator: Sketch 47.1 (45422) - http://www.bohemiancoding.com/sketch -->
    <title>floor-14-type-mobile</title>
    <desc>Created with Sketch.</desc>
    <defs></defs>
    <g id="Assets" stroke="none" stroke-width="1" fill="none" fill-rule="evenodd">
        <g id="floor-14-type-mobile" fill="#EAEAEA">
            <g id="maxilla-social-club" transform="translate(0.000000, -11.000000)">
                <path d="M0.672,48 L14.688,48 L14.688,42.96 L13.104,42.48 L13.104,29.568 C13.92,29.232 14.496,29.04 15.6,29.04 C17.232,29.04 17.856,29.664 17.856,31.488 L17.856,42.48 L16.32,42.96 L16.32,48 L29.328,48 L29.328,42.96 L27.744,42.48 L27.744,30.432 C27.744,30.192 27.696,29.664 27.696,29.568 C28.512,29.232 29.232,29.04 30.144,29.04 C31.872,29.04 32.496,29.664 32.496,31.488 L32.496,42.48 L30.96,42.96 L30.96,48 L44.64,48 L44.64,42.96 L42.384,42.288 L42.384,27.936 C42.384,23.472 39.36,21.552 35.76,21.552 C32.112,21.552 29.328,23.04 27.264,24.96 L27.024,24.96 C26.016,22.608 23.808,21.552 21.168,21.552 C17.52,21.552 15.168,22.848 13.008,24.72 L12.72,24.72 L12.72,21.984 L11.904,21.6 L0.48,22.704 L0.48,27.84 L3.216,28.608 L3.216,42.288 L0.672,42.96 L0.672,48 Z M53.424,48.624 C48.72,48.624 45.792,45.648 45.792,41.52 C45.792,36.336 49.44,34.656 55.584,33.552 L59.616,32.784 L59.616,31.872 C59.616,29.616 58.56,28.704 55.008,28.704 C52.656,28.704 50.112,28.896 48.336,29.184 L48.336,23.376 C50.928,22.464 55.008,21.552 59.664,21.552 C66.432,21.552 69.504,24.384 69.504,30.24 L69.504,40.992 C69.504,42.096 70.224,42.48 71.088,42.48 L71.76,42.48 L71.76,47.28 C70.8,47.904 68.496,48.624 66.288,48.624 C63.312,48.624 61.536,47.712 60.72,45.504 L60.48,45.504 C59.184,47.232 56.688,48.624 53.424,48.624 Z M57.696,43.008 C58.512,43.008 59.232,42.624 59.616,42.24 L59.616,37.104 L58.032,37.152 C56.4,37.248 55.584,38.112 55.584,40.128 C55.584,42.192 56.16,43.008 57.696,43.008 Z M73.152,48 L84.528,48 L84.528,42.96 L82.704,42.48 L85.392,38.64 L85.536,38.64 L88.272,42.48 L86.496,42.96 L86.496,48 L101.856,48 L101.856,42.96 L99.792,42.336 L94.512,35.568 L100.128,27.744 L101.664,27.168 L101.664,22.128 L91.056,22.128 L91.056,27.168 L92.832,27.648 L90.24,31.68 L90.048,31.68 L87.456,27.648 L89.232,27.168 L89.232,22.128 L73.632,22.128 L73.632,27.168 L75.792,27.84 L81.216,34.8 L75.264,42.336 L73.152,42.96 L73.152,48 Z M103.152,48 L117.936,48 L117.936,42.96 L115.584,42.288 L115.584,21.984 L114.72,21.6 L102.912,22.704 L102.912,27.84 L105.696,28.608 L105.696,42.288 L103.152,42.96 L103.152,48 Z M110.4,20.64 C113.376,20.64 115.776,18.912 115.776,15.936 C115.776,12.96 113.376,11.232 110.4,11.232 C107.472,11.232 105.024,12.96 105.024,15.936 C105.024,18.912 107.472,20.64 110.4,20.64 Z M119.232,48 L134.256,48 L134.256,42.96 L131.76,42.288 L131.76,12.384 L130.944,12 L118.992,13.104 L118.992,18.192 L121.872,19.008 L121.872,42.288 L119.232,42.96 L119.232,48 Z M135.552,48 L150.576,48 L150.576,42.96 L148.08,42.288 L148.08,12.384 L147.264,12 L135.312,13.104 L135.312,18.192 L138.192,19.008 L138.192,42.288 L135.552,42.96 L135.552,48 Z M159.36,48.624 C154.656,48.624 151.728,45.648 151.728,41.52 C151.728,36.336 155.376,34.656 161.52,33.552 L165.552,32.784 L165.552,31.872 C165.552,29.616 164.496,28.704 160.944,28.704 C158.592,28.704 156.048,28.896 154.272,29.184 L154.272,23.376 C156.864,22.464 160.944,21.552 165.6,21.552 C172.368,21.552 175.44,24.384 175.44,30.24 L175.44,40.992 C175.44,42.096 176.16,42.48 177.024,42.48 L177.696,42.48 L177.696,47.28 C176.736,47.904 174.432,48.624 172.224,48.624 C169.248,48.624 167.472,47.712 166.656,45.504 L166.416,45.504 C165.12,47.232 162.624,48.624 159.36,48.624 Z M163.632,43.008 C164.448,43.008 165.168,42.624 165.552,42.24 L165.552,37.104 L163.968,37.152 C162.336,37.248 161.52,38.112 161.52,40.128 C161.52,42.192 162.096,43.008 163.632,43.008 Z M10.608,96.624 C19.68,96.624 23.328,92.928 23.328,87.168 C23.328,83.184 21.216,80.448 15.888,79.392 L12.672,78.72 C10.32,78.24 9.504,77.808 9.504,76.656 C9.504,75.456 10.848,74.976 12.48,74.976 C13.776,74.976 14.592,75.264 15.12,75.552 L15.6,77.808 L21.696,77.808 L21.696,71.04 C19.488,70.032 16.032,69.504 12.768,69.504 C4.32,69.504 0.672,73.2 0.672,78.48 C0.672,83.232 3.312,85.536 8.304,86.544 L11.136,87.168 C13.104,87.6 13.824,87.984 13.824,89.136 C13.824,90.336 12.768,91.056 10.896,91.056 C9.552,91.056 8.448,90.672 7.92,90.336 L7.056,87.888 L0.816,87.888 L1.248,94.992 C3.984,96.096 7.632,96.624 10.608,96.624 Z M38.4,96.624 C29.472,96.624 24.768,91.488 24.768,83.232 C24.768,74.16 30.768,69.552 38.4,69.552 C47.328,69.552 52.032,74.352 52.032,82.896 C52.032,91.968 45.984,96.624 38.4,96.624 Z M38.448,90.672 C40.512,90.672 41.568,89.184 41.568,83.232 C41.568,76.896 40.416,75.456 38.352,75.456 C36.288,75.456 35.184,76.704 35.184,82.896 C35.184,89.232 36.336,90.672 38.448,90.672 Z M67.2,96.624 C71.664,96.624 74.736,95.328 76.272,94.224 L76.272,88.848 C74.928,89.376 72.672,89.856 70.416,89.856 C66.144,89.856 63.888,88.128 63.888,82.464 C63.888,77.088 65.28,75.456 67.584,75.456 C68.544,75.456 68.88,75.648 69.216,75.792 L69.792,79.104 L76.176,79.104 L76.176,70.608 C74.688,70.08 71.328,69.552 67.968,69.552 C59.04,69.552 53.376,73.824 53.376,83.232 C53.376,91.536 57.744,96.624 67.2,96.624 Z M78.384,96 L93.168,96 L93.168,90.96 L90.816,90.288 L90.816,69.984 L89.952,69.6 L78.144,70.704 L78.144,75.84 L80.928,76.608 L80.928,90.288 L78.384,90.96 L78.384,96 Z M85.632,68.64 C88.608,68.64 91.008,66.912 91.008,63.936 C91.008,60.96 88.608,59.232 85.632,59.232 C82.704,59.232 80.256,60.96 80.256,63.936 C80.256,66.912 82.704,68.64 85.632,68.64 Z M101.952,96.624 C97.248,96.624 94.32,93.648 94.32,89.52 C94.32,84.336 97.968,82.656 104.112,81.552 L108.144,80.784 L108.144,79.872 C108.144,77.616 107.088,76.704 103.536,76.704 C101.184,76.704 98.64,76.896 96.864,77.184 L96.864,71.376 C99.456,70.464 103.536,69.552 108.192,69.552 C114.96,69.552 118.032,72.384 118.032,78.24 L118.032,88.992 C118.032,90.096 118.752,90.48 119.616,90.48 L120.288,90.48 L120.288,95.28 C119.328,95.904 117.024,96.624 114.816,96.624 C111.84,96.624 110.064,95.712 109.248,93.504 L109.008,93.504 C107.712,95.232 105.216,96.624 101.952,96.624 Z M106.224,91.008 C107.04,91.008 107.76,90.624 108.144,90.24 L108.144,85.104 L106.56,85.152 C104.928,85.248 104.112,86.112 104.112,88.128 C104.112,90.192 104.688,91.008 106.224,91.008 Z M121.536,96 L136.56,96 L136.56,90.96 L134.064,90.288 L134.064,60.384 L133.248,60 L121.296,61.104 L121.296,66.192 L124.176,67.008 L124.176,90.288 L121.536,90.96 L121.536,96 Z M159.84,96.624 C164.304,96.624 167.376,95.328 168.912,94.224 L168.912,88.848 C167.568,89.376 165.312,89.856 163.056,89.856 C158.784,89.856 156.528,88.128 156.528,82.464 C156.528,77.088 157.92,75.456 160.224,75.456 C161.184,75.456 161.52,75.648 161.856,75.792 L162.432,79.104 L168.816,79.104 L168.816,70.608 C167.328,70.08 163.968,69.552 160.608,69.552 C151.68,69.552 146.016,73.824 146.016,83.232 C146.016,91.536 150.384,96.624 159.84,96.624 Z M171.024,96 L186.048,96 L186.048,90.96 L183.552,90.288 L183.552,60.384 L182.736,60 L170.784,61.104 L170.784,66.192 L173.664,67.008 L173.664,90.288 L171.024,90.96 L171.024,96 Z M196.992,96.576 C200.592,96.576 202.944,95.04 204.576,93.312 L204.864,93.312 L204.864,96.096 L205.728,96.48 L216.96,95.328 L216.96,90.288 L214.416,89.52 L214.416,70.032 L213.552,69.6 L202.224,70.656 L202.224,75.744 L204.528,76.56 L204.528,88.56 C203.808,88.848 203.04,89.136 201.792,89.136 C200.016,89.136 199.392,88.368 199.392,86.64 L199.392,70.032 L198.576,69.6 L187.056,70.656 L187.056,75.744 L189.504,76.56 L189.504,89.52 C189.504,93.984 191.616,96.576 196.992,96.576 Z M232.032,96.624 C226.752,96.624 222.336,95.568 219.984,94.176 L219.984,67.2 L217.488,66.432 L217.488,61.056 L229.008,59.952 L229.872,60.336 L229.872,72.192 L230.16,72.192 C231.552,70.992 233.664,69.504 237.12,69.504 C241.728,69.504 246.336,72.432 246.336,82.032 C246.336,92.88 240.48,96.624 232.032,96.624 Z M232.224,90.72 C234.624,90.72 235.92,89.424 235.92,83.184 C235.92,78.144 234.864,76.512 232.608,76.512 C231.36,76.512 230.544,76.752 229.872,77.136 L229.872,90 C230.4,90.384 230.976,90.72 232.224,90.72 Z" transform="translate(123.408000, 53.928000) rotate(-360.000000) translate(-123.408000, -53.928000) "></path>
            </g>
        </g>
    </g>
</svg>