<?xml version="1.0" encoding="UTF-8"?>
<svg width="314px" height="47px" viewBox="0 0 314 47" version="1.1" xmlns="http://www.w3.org/2000/svg" xmlns:xlink="http://www.w3.org/1999/xlink">
    <!-- Generator: Sketch 47.1 (45422) - http://www.bohemiancoding.com/sketch -->
    <title>floor-14-type-mobile</title>
    <desc>Created with Sketch.</desc>
    <defs></defs>
    <g id="Assets" stroke="none" stroke-width="1" fill="none" fill-rule="evenodd">
        <g id="floor-14-type-mobile" fill="#EAEAEA">
            <g id="postscript" transform="translate(0.000000, -11.000000)">
                <path d="M0.624,57.6 L0.624,52.704 L3.168,52.08 L3.168,28.608 L0.48,27.84 L0.48,22.704 L11.856,21.6 L12.672,21.984 L12.672,24.528 L12.96,24.528 C14.304,23.184 16.848,21.504 20.304,21.504 C24.912,21.504 29.52,24.432 29.52,34.032 C29.52,44.88 23.712,48.624 16.368,48.624 C14.496,48.624 13.824,48.528 13.056,48.384 L13.056,52.128 L15.984,52.704 L15.984,57.6 L0.624,57.6 Z M15.408,42.72 C17.808,42.72 19.104,41.424 19.104,35.184 C19.104,30.144 18.048,28.512 15.792,28.512 C14.544,28.512 13.728,28.752 13.056,29.136 L13.056,42 C13.584,42.384 14.208,42.72 15.408,42.72 Z M44.688,48.624 C35.76,48.624 31.056,43.488 31.056,35.232 C31.056,26.16 37.056,21.552 44.688,21.552 C53.616,21.552 58.32,26.352 58.32,34.896 C58.32,43.968 52.272,48.624 44.688,48.624 Z M44.736,42.672 C46.8,42.672 47.856,41.184 47.856,35.232 C47.856,28.896 46.704,27.456 44.64,27.456 C42.576,27.456 41.472,28.704 41.472,34.896 C41.472,41.232 42.624,42.672 44.736,42.672 Z M69.6,48.624 C78.672,48.624 82.32,44.928 82.32,39.168 C82.32,35.184 80.208,32.448 74.88,31.392 L71.664,30.72 C69.312,30.24 68.496,29.808 68.496,28.656 C68.496,27.456 69.84,26.976 71.472,26.976 C72.768,26.976 73.584,27.264 74.112,27.552 L74.592,29.808 L80.688,29.808 L80.688,23.04 C78.48,22.032 75.024,21.504 71.76,21.504 C63.312,21.504 59.664,25.2 59.664,30.48 C59.664,35.232 62.304,37.536 67.296,38.544 L70.128,39.168 C72.096,39.6 72.816,39.984 72.816,41.136 C72.816,42.336 71.76,43.056 69.888,43.056 C68.544,43.056 67.44,42.672 66.912,42.336 L66.048,39.888 L59.808,39.888 L60.24,46.992 C62.976,48.096 66.624,48.624 69.6,48.624 Z M94.656,48.576 C97.632,48.576 99.936,47.904 101.136,47.184 L101.136,41.904 C100.512,42.096 99.696,42.24 98.928,42.24 C97.056,42.24 96,41.712 96,39.6 L96,27.936 L100.896,27.936 L100.896,22.128 L96,22.128 L96,16.08 L88.176,16.08 L87.024,22.032 L83.568,23.376 L83.568,27.936 L86.112,27.936 L86.112,41.184 C86.112,46.8 89.232,48.576 94.656,48.576 Z M112.8,48.624 C121.872,48.624 125.52,44.928 125.52,39.168 C125.52,35.184 123.408,32.448 118.08,31.392 L114.864,30.72 C112.512,30.24 111.696,29.808 111.696,28.656 C111.696,27.456 113.04,26.976 114.672,26.976 C115.968,26.976 116.784,27.264 117.312,27.552 L117.792,29.808 L123.888,29.808 L123.888,23.04 C121.68,22.032 118.224,21.504 114.96,21.504 C106.512,21.504 102.864,25.2 102.864,30.48 C102.864,35.232 105.504,37.536 110.496,38.544 L113.328,39.168 C115.296,39.6 116.016,39.984 116.016,41.136 C116.016,42.336 114.96,43.056 113.088,43.056 C111.744,43.056 110.64,42.672 110.112,42.336 L109.248,39.888 L103.008,39.888 L103.44,46.992 C106.176,48.096 109.824,48.624 112.8,48.624 Z M140.784,48.624 C145.248,48.624 148.32,47.328 149.856,46.224 L149.856,40.848 C148.512,41.376 146.256,41.856 144,41.856 C139.728,41.856 137.472,40.128 137.472,34.464 C137.472,29.088 138.864,27.456 141.168,27.456 C142.128,27.456 142.464,27.648 142.8,27.792 L143.376,31.104 L149.76,31.104 L149.76,22.608 C148.272,22.08 144.912,21.552 141.552,21.552 C132.624,21.552 126.96,25.824 126.96,35.232 C126.96,43.536 131.328,48.624 140.784,48.624 Z M151.968,48 L167.904,48 L167.904,42.96 L164.4,42.288 L164.4,31.104 C165.84,30.528 167.376,30.336 169.728,30.336 C170.64,30.336 171.552,30.432 172.08,30.576 L172.08,21.84 C171.744,21.744 171.216,21.696 170.784,21.696 C167.808,21.696 165.648,23.52 164.304,25.968 L164.016,25.968 L164.016,21.984 L163.2,21.6 L151.776,22.704 L151.776,27.84 L154.512,28.608 L154.512,42.288 L151.968,42.96 L151.968,48 Z M173.28,48 L188.064,48 L188.064,42.96 L185.712,42.288 L185.712,21.984 L184.848,21.6 L173.04,22.704 L173.04,27.84 L175.824,28.608 L175.824,42.288 L173.28,42.96 L173.28,48 Z M180.528,20.64 C183.504,20.64 185.904,18.912 185.904,15.936 C185.904,12.96 183.504,11.232 180.528,11.232 C177.6,11.232 175.152,12.96 175.152,15.936 C175.152,18.912 177.6,20.64 180.528,20.64 Z M189.312,57.6 L189.312,52.704 L191.856,52.08 L191.856,28.608 L189.168,27.84 L189.168,22.704 L200.544,21.6 L201.36,21.984 L201.36,24.528 L201.648,24.528 C202.992,23.184 205.536,21.504 208.992,21.504 C213.6,21.504 218.208,24.432 218.208,34.032 C218.208,44.88 212.4,48.624 205.056,48.624 C203.184,48.624 202.512,48.528 201.744,48.384 L201.744,52.128 L204.672,52.704 L204.672,57.6 L189.312,57.6 Z M204.096,42.72 C206.496,42.72 207.792,41.424 207.792,35.184 C207.792,30.144 206.736,28.512 204.48,28.512 C203.232,28.512 202.416,28.752 201.744,29.136 L201.744,42 C202.272,42.384 202.896,42.72 204.096,42.72 Z M230.64,48.576 C233.616,48.576 235.92,47.904 237.12,47.184 L237.12,41.904 C236.496,42.096 235.68,42.24 234.912,42.24 C233.04,42.24 231.984,41.712 231.984,39.6 L231.984,27.936 L236.88,27.936 L236.88,22.128 L231.984,22.128 L231.984,16.08 L224.16,16.08 L223.008,22.032 L219.552,23.376 L219.552,27.936 L222.096,27.936 L222.096,41.184 C222.096,46.8 225.216,48.576 230.64,48.576 Z" transform="translate(118.800000, 34.416000) rotate(-360.000000) translate(-118.800000, -34.416000) "></path>
            </g>
        </g>
    </g>
</svg>