<?xml version="1.0" encoding="UTF-8"?>
<svg width="314px" height="47px" viewBox="0 0 314 47" version="1.1" xmlns="http://www.w3.org/2000/svg" xmlns:xlink="http://www.w3.org/1999/xlink">
    <!-- Generator: Sketch 47.1 (45422) - http://www.bohemiancoding.com/sketch -->
    <title>floor-14-type-mobile</title>
    <desc>Created with Sketch.</desc>
    <defs></defs>
    <g id="Assets" stroke="none" stroke-width="1" fill="none" fill-rule="evenodd">
        <g id="floor-14-type-mobile" fill="#EAEAEA">
            <g id="the-allotment" transform="translate(0.000000, -11.000000)">
                <path d="M11.568,48.576 C14.544,48.576 16.848,47.904 18.048,47.184 L18.048,41.904 C17.424,42.096 16.608,42.24 15.84,42.24 C13.968,42.24 12.912,41.712 12.912,39.6 L12.912,27.936 L17.808,27.936 L17.808,22.128 L12.912,22.128 L12.912,16.08 L5.088,16.08 L3.936,22.032 L0.48,23.376 L0.48,27.936 L3.024,27.936 L3.024,41.184 C3.024,46.8 6.144,48.576 11.568,48.576 Z M19.776,48 L33.888,48 L33.888,42.96 L32.208,42.48 L32.208,29.568 C33.024,29.28 33.792,29.04 34.848,29.04 C36.528,29.04 37.296,29.664 37.296,31.392 L37.296,42.48 L35.616,42.96 L35.616,48 L49.488,48 L49.488,42.96 L47.184,42.288 L47.184,27.84 C47.184,23.376 44.352,21.552 40.608,21.552 C36.912,21.552 34.752,22.848 32.448,24.72 L32.208,24.72 L32.208,12.384 L31.344,11.952 L19.584,13.104 L19.584,18.192 L22.32,18.96 L22.32,42.288 L19.776,42.96 L19.776,48 Z M64.8,48.624 C55.68,48.624 50.736,43.92 50.736,35.04 C50.736,26.496 55.92,21.552 64.128,21.552 C72.192,21.552 76.176,25.248 76.176,36.768 L61.008,36.768 C61.536,40.752 63.744,41.904 67.584,41.904 C70.896,41.904 73.152,41.328 74.976,40.752 L74.976,46.032 C73.056,47.328 69.936,48.624 64.8,48.624 Z M64.032,27.36 C62.544,27.36 61.296,28.224 60.96,32.256 L66.768,32.016 C66.768,28.272 65.52,27.36 64.032,27.36 Z M93.36,48.624 C88.656,48.624 85.728,45.648 85.728,41.52 C85.728,36.336 89.376,34.656 95.52,33.552 L99.552,32.784 L99.552,31.872 C99.552,29.616 98.496,28.704 94.944,28.704 C92.592,28.704 90.048,28.896 88.272,29.184 L88.272,23.376 C90.864,22.464 94.944,21.552 99.6,21.552 C106.368,21.552 109.44,24.384 109.44,30.24 L109.44,40.992 C109.44,42.096 110.16,42.48 111.024,42.48 L111.696,42.48 L111.696,47.28 C110.736,47.904 108.432,48.624 106.224,48.624 C103.248,48.624 101.472,47.712 100.656,45.504 L100.416,45.504 C99.12,47.232 96.624,48.624 93.36,48.624 Z M97.632,43.008 C98.448,43.008 99.168,42.624 99.552,42.24 L99.552,37.104 L97.968,37.152 C96.336,37.248 95.52,38.112 95.52,40.128 C95.52,42.192 96.096,43.008 97.632,43.008 Z M112.944,48 L127.968,48 L127.968,42.96 L125.472,42.288 L125.472,12.384 L124.656,12 L112.704,13.104 L112.704,18.192 L115.584,19.008 L115.584,42.288 L112.944,42.96 L112.944,48 Z M129.264,48 L144.288,48 L144.288,42.96 L141.792,42.288 L141.792,12.384 L140.976,12 L129.024,13.104 L129.024,18.192 L131.904,19.008 L131.904,42.288 L129.264,42.96 L129.264,48 Z M159.216,48.624 C150.288,48.624 145.584,43.488 145.584,35.232 C145.584,26.16 151.584,21.552 159.216,21.552 C168.144,21.552 172.848,26.352 172.848,34.896 C172.848,43.968 166.8,48.624 159.216,48.624 Z M159.264,42.672 C161.328,42.672 162.384,41.184 162.384,35.232 C162.384,28.896 161.232,27.456 159.168,27.456 C157.104,27.456 156,28.704 156,34.896 C156,41.232 157.152,42.672 159.264,42.672 Z M185.088,48.576 C188.064,48.576 190.368,47.904 191.568,47.184 L191.568,41.904 C190.944,42.096 190.128,42.24 189.36,42.24 C187.488,42.24 186.432,41.712 186.432,39.6 L186.432,27.936 L191.328,27.936 L191.328,22.128 L186.432,22.128 L186.432,16.08 L178.608,16.08 L177.456,22.032 L174,23.376 L174,27.936 L176.544,27.936 L176.544,41.184 C176.544,46.8 179.664,48.576 185.088,48.576 Z M193.296,48 L207.312,48 L207.312,42.96 L205.728,42.48 L205.728,29.568 C206.544,29.232 207.12,29.04 208.224,29.04 C209.856,29.04 210.48,29.664 210.48,31.488 L210.48,42.48 L208.944,42.96 L208.944,48 L221.952,48 L221.952,42.96 L220.368,42.48 L220.368,30.432 C220.368,30.192 220.32,29.664 220.32,29.568 C221.136,29.232 221.856,29.04 222.768,29.04 C224.496,29.04 225.12,29.664 225.12,31.488 L225.12,42.48 L223.584,42.96 L223.584,48 L237.264,48 L237.264,42.96 L235.008,42.288 L235.008,27.936 C235.008,23.472 231.984,21.552 228.384,21.552 C224.736,21.552 221.952,23.04 219.888,24.96 L219.648,24.96 C218.64,22.608 216.432,21.552 213.792,21.552 C210.144,21.552 207.792,22.848 205.632,24.72 L205.344,24.72 L205.344,21.984 L204.528,21.6 L193.104,22.704 L193.104,27.84 L195.84,28.608 L195.84,42.288 L193.296,42.96 L193.296,48 Z M252.624,48.624 C243.504,48.624 238.56,43.92 238.56,35.04 C238.56,26.496 243.744,21.552 251.952,21.552 C260.016,21.552 264,25.248 264,36.768 L248.832,36.768 C249.36,40.752 251.568,41.904 255.408,41.904 C258.72,41.904 260.976,41.328 262.8,40.752 L262.8,46.032 C260.88,47.328 257.76,48.624 252.624,48.624 Z M251.856,27.36 C250.368,27.36 249.12,28.224 248.784,32.256 L254.592,32.016 C254.592,28.272 253.344,27.36 251.856,27.36 Z M265.536,48 L279.648,48 L279.648,42.96 L277.968,42.48 L277.968,29.568 C278.784,29.28 279.552,29.04 280.608,29.04 C282.288,29.04 283.056,29.664 283.056,31.392 L283.056,42.48 L281.376,42.96 L281.376,48 L295.248,48 L295.248,42.96 L292.944,42.288 L292.944,27.84 C292.944,23.376 290.112,21.552 286.368,21.552 C282.672,21.552 280.32,22.848 277.872,24.864 L277.584,24.864 L277.584,21.984 L276.768,21.6 L265.344,22.704 L265.344,27.84 L268.08,28.608 L268.08,42.288 L265.536,42.96 L265.536,48 Z M307.44,48.576 C310.416,48.576 312.72,47.904 313.92,47.184 L313.92,41.904 C313.296,42.096 312.48,42.24 311.712,42.24 C309.84,42.24 308.784,41.712 308.784,39.6 L308.784,27.936 L313.68,27.936 L313.68,22.128 L308.784,22.128 L308.784,16.08 L300.96,16.08 L299.808,22.032 L296.352,23.376 L296.352,27.936 L298.896,27.936 L298.896,41.184 C298.896,46.8 302.016,48.576 307.44,48.576 Z" transform="translate(157.200000, 30.288000) rotate(-360.000000) translate(-157.200000, -30.288000) "></path>
            </g>
        </g>
    </g>
</svg>