<?xml version="1.0" encoding="UTF-8"?>
<svg width="314px" height="47px" viewBox="0 0 314 47" version="1.1" xmlns="http://www.w3.org/2000/svg" xmlns:xlink="http://www.w3.org/1999/xlink">
    <!-- Generator: Sketch 47.1 (45422) - http://www.bohemiancoding.com/sketch -->
    <title>floor-14-type-mobile</title>
    <desc>Created with Sketch.</desc>
    <defs></defs>
    <g id="Assets" stroke="none" stroke-width="1" fill="none" fill-rule="evenodd">
        <g id="floor-14-type-mobile" fill="#EAEAEA">
            <g id="a-landing" transform="translate(0.000000, -11.000000)">
                <path d="M8.16,48.624 C3.456,48.624 0.528,45.648 0.528,41.52 C0.528,36.336 4.176,34.656 10.32,33.552 L14.352,32.784 L14.352,31.872 C14.352,29.616 13.296,28.704 9.744,28.704 C7.392,28.704 4.848,28.896 3.072,29.184 L3.072,23.376 C5.664,22.464 9.744,21.552 14.4,21.552 C21.168,21.552 24.24,24.384 24.24,30.24 L24.24,40.992 C24.24,42.096 24.96,42.48 25.824,42.48 L26.496,42.48 L26.496,47.28 C25.536,47.904 23.232,48.624 21.024,48.624 C18.048,48.624 16.272,47.712 15.456,45.504 L15.216,45.504 C13.92,47.232 11.424,48.624 8.16,48.624 Z M12.432,43.008 C13.248,43.008 13.968,42.624 14.352,42.24 L14.352,37.104 L12.768,37.152 C11.136,37.248 10.32,38.112 10.32,40.128 C10.32,42.192 10.896,43.008 12.432,43.008 Z M35.904,48 L50.928,48 L50.928,42.96 L48.432,42.288 L48.432,12.384 L47.616,12 L35.664,13.104 L35.664,18.192 L38.544,19.008 L38.544,42.288 L35.904,42.96 L35.904,48 Z M59.712,48.624 C55.008,48.624 52.08,45.648 52.08,41.52 C52.08,36.336 55.728,34.656 61.872,33.552 L65.904,32.784 L65.904,31.872 C65.904,29.616 64.848,28.704 61.296,28.704 C58.944,28.704 56.4,28.896 54.624,29.184 L54.624,23.376 C57.216,22.464 61.296,21.552 65.952,21.552 C72.72,21.552 75.792,24.384 75.792,30.24 L75.792,40.992 C75.792,42.096 76.512,42.48 77.376,42.48 L78.048,42.48 L78.048,47.28 C77.088,47.904 74.784,48.624 72.576,48.624 C69.6,48.624 67.824,47.712 67.008,45.504 L66.768,45.504 C65.472,47.232 62.976,48.624 59.712,48.624 Z M63.984,43.008 C64.8,43.008 65.52,42.624 65.904,42.24 L65.904,37.104 L64.32,37.152 C62.688,37.248 61.872,38.112 61.872,40.128 C61.872,42.192 62.448,43.008 63.984,43.008 Z M79.296,48 L93.408,48 L93.408,42.96 L91.728,42.48 L91.728,29.568 C92.544,29.28 93.312,29.04 94.368,29.04 C96.048,29.04 96.816,29.664 96.816,31.392 L96.816,42.48 L95.136,42.96 L95.136,48 L109.008,48 L109.008,42.96 L106.704,42.288 L106.704,27.84 C106.704,23.376 103.872,21.552 100.128,21.552 C96.432,21.552 94.08,22.848 91.632,24.864 L91.344,24.864 L91.344,21.984 L90.528,21.6 L79.104,22.704 L79.104,27.84 L81.84,28.608 L81.84,42.288 L79.296,42.96 L79.296,48 Z M120.384,48.576 C115.536,48.576 110.496,45.552 110.496,35.712 C110.496,25.104 116.112,21.552 122.88,21.552 C124.896,21.552 125.952,21.888 126.96,22.32 L126.96,19.008 L124.176,18.24 L124.176,13.104 L135.984,12 L136.848,12.384 L136.848,41.52 L139.392,42.288 L139.392,47.328 L128.832,48.48 L128.016,48.096 L128.016,45.648 L127.728,45.648 C126.336,47.424 123.648,48.576 120.384,48.576 Z M124.32,41.712 C125.424,41.712 126.24,41.472 126.96,41.04 L126.96,28.368 C126.384,27.936 125.808,27.6 124.608,27.6 C122.352,27.6 120.912,28.848 120.912,34.704 C120.912,40.08 122.112,41.712 124.32,41.712 Z M140.736,48 L155.52,48 L155.52,42.96 L153.168,42.288 L153.168,21.984 L152.304,21.6 L140.496,22.704 L140.496,27.84 L143.28,28.608 L143.28,42.288 L140.736,42.96 L140.736,48 Z M147.984,20.64 C150.96,20.64 153.36,18.912 153.36,15.936 C153.36,12.96 150.96,11.232 147.984,11.232 C145.056,11.232 142.608,12.96 142.608,15.936 C142.608,18.912 145.056,20.64 147.984,20.64 Z M156.816,48 L170.928,48 L170.928,42.96 L169.248,42.48 L169.248,29.568 C170.064,29.28 170.832,29.04 171.888,29.04 C173.568,29.04 174.336,29.664 174.336,31.392 L174.336,42.48 L172.656,42.96 L172.656,48 L186.528,48 L186.528,42.96 L184.224,42.288 L184.224,27.84 C184.224,23.376 181.392,21.552 177.648,21.552 C173.952,21.552 171.6,22.848 169.152,24.864 L168.864,24.864 L168.864,21.984 L168.048,21.6 L156.624,22.704 L156.624,27.84 L159.36,28.608 L159.36,42.288 L156.816,42.96 L156.816,48 Z M199.728,57.744 C191.328,57.744 187.056,55.488 187.056,51.936 C187.056,49.008 189.696,47.52 192.576,46.848 L192.576,46.608 C190.176,45.936 189.072,44.448 189.072,42.288 C189.072,40.128 190.8,38.064 192.864,36.768 C190.464,35.472 188.832,33.264 188.832,30.288 C188.832,24.672 193.536,21.6 200.592,21.6 C202.8,21.6 204.624,21.888 206.16,22.368 L214.608,21.168 L214.608,26.832 L211.44,26.736 C211.968,27.696 212.304,28.656 212.304,29.76 C212.304,35.376 207.792,38.496 200.592,38.496 C199.344,38.496 198.288,38.4 197.232,38.208 C196.944,38.544 196.848,38.976 196.848,39.36 C196.848,39.888 197.232,40.608 198.576,40.608 L206.928,40.608 C211.488,40.608 214.992,42.672 214.992,47.808 C214.992,53.232 210.72,57.744 199.728,57.744 Z M200.448,52.32 C204.528,52.32 205.872,51.264 205.872,50.016 C205.872,48.816 205.2,48.48 203.136,48.48 L197.568,48.48 C196.752,48.816 196.176,49.344 196.176,50.352 C196.176,51.504 197.28,52.32 200.448,52.32 Z M200.592,33.744 C201.984,33.744 203.136,32.928 203.136,30.096 C203.136,26.928 202.032,26.352 200.592,26.352 C199.2,26.352 198.096,27.12 198.096,29.952 C198.096,32.928 199.2,33.744 200.592,33.744 Z" transform="translate(107.760000, 34.488000) rotate(-360.000000) translate(-107.760000, -34.488000) "></path>
            </g>
        </g>
    </g>
</svg>