<?xml version="1.0" encoding="UTF-8"?>
<svg width="314px" height="47px" viewBox="0 0 314 47" version="1.1" xmlns="http://www.w3.org/2000/svg" xmlns:xlink="http://www.w3.org/1999/xlink">
    <!-- Generator: Sketch 47.1 (45422) - http://www.bohemiancoding.com/sketch -->
    <title>floor-14-type-mobile</title>
    <desc>Created with Sketch.</desc>
    <defs></defs>
    <g id="Assets" stroke="none" stroke-width="1" fill="none" fill-rule="evenodd">
        <g id="floor-14-type-mobile" fill="#EAEAEA">
            <g id="floor-12" transform="translate(0.000000, -11.000000)">
                <path d="M16.8,48 L30.864,48 L30.864,42.96 L28.368,42.48 L28.368,12.384 L27.552,12 L20.4,13.104 C18.72,12.624 16.08,12.048 13.392,12.048 C7.968,12.048 3.216,13.968 3.216,20.16 L3.216,22.32 L0.528,23.376 L0.528,27.936 L3.216,27.936 L3.216,42.288 L0.672,42.96 L0.672,48 L14.784,48 L14.784,42.96 L13.104,42.48 L13.104,27.936 L16.512,27.936 L16.512,22.128 L13.104,22.128 L13.104,21.168 C13.104,19.104 14.064,18.624 16.08,18.624 C17.04,18.624 17.76,18.768 18.48,18.96 L18.48,42.48 L16.8,42.96 L16.8,48 Z M45.792,48.624 C36.864,48.624 32.16,43.488 32.16,35.232 C32.16,26.16 38.16,21.552 45.792,21.552 C54.72,21.552 59.424,26.352 59.424,34.896 C59.424,43.968 53.376,48.624 45.792,48.624 Z M45.84,42.672 C47.904,42.672 48.96,41.184 48.96,35.232 C48.96,28.896 47.808,27.456 45.744,27.456 C43.68,27.456 42.576,28.704 42.576,34.896 C42.576,41.232 43.728,42.672 45.84,42.672 Z M74.4,48.624 C65.472,48.624 60.768,43.488 60.768,35.232 C60.768,26.16 66.768,21.552 74.4,21.552 C83.328,21.552 88.032,26.352 88.032,34.896 C88.032,43.968 81.984,48.624 74.4,48.624 Z M74.448,42.672 C76.512,42.672 77.568,41.184 77.568,35.232 C77.568,28.896 76.416,27.456 74.352,27.456 C72.288,27.456 71.184,28.704 71.184,34.896 C71.184,41.232 72.336,42.672 74.448,42.672 Z M89.376,48 L105.312,48 L105.312,42.96 L101.808,42.288 L101.808,31.104 C103.248,30.528 104.784,30.336 107.136,30.336 C108.048,30.336 108.96,30.432 109.488,30.576 L109.488,21.84 C109.152,21.744 108.624,21.696 108.192,21.696 C105.216,21.696 103.056,23.52 101.712,25.968 L101.424,25.968 L101.424,21.984 L100.608,21.6 L89.184,22.704 L89.184,27.84 L91.92,28.608 L91.92,42.288 L89.376,42.96 L89.376,48 Z M119.28,48 L138.384,48 L138.384,42.672 L134.4,41.856 L134.4,14.448 L128.832,14.448 L118.944,19.344 L118.944,24.672 L123.408,24.384 L123.408,41.856 L119.28,42.672 L119.28,48 Z M139.728,48 L163.632,48 L164.448,37.872 L158.784,37.872 L157.296,40.944 L150.336,40.944 L150.336,40.848 L154.272,38.16 C160.128,34.176 163.92,30.144 163.92,24.768 C163.92,18.336 159.792,14.208 152.016,14.208 C147.312,14.208 143.184,15.696 140.688,17.088 L140.688,23.376 C142.656,22.752 145.44,22.368 147.648,22.368 C150.816,22.368 152.496,23.664 152.496,26.544 C152.496,29.424 150.48,31.776 147.12,34.992 L139.728,42.048 L139.728,48 Z" transform="translate(82.488000, 30.312000) rotate(-360.000000) translate(-82.488000, -30.312000) "></path>
            </g>
        </g>
    </g>
</svg>