<svg width="143" height="43" viewBox="0 0 143 43" xmlns="http://www.w3.org/2000/svg"><title>In the shadow of Gre</title><g id="Assets" fill="none" fill-rule="evenodd"><g id="Artboard-2" fill="#FFF"><g id="outline"><path d="M.552 18h5.976v-.768l-2.136-.312V2.448l2.136-.312v-.768H.552v.768l2.16.312V16.92l-2.16.312V18zm6.84 0h5.28v-.648l-1.872-.288v-9.36c1.128-.504 2.352-.936 3.624-.936 1.848 0 2.712.672 2.712 2.424v7.872l-1.872.288V18h5.28v-.648l-1.872-.288V8.76c0-2.304-1.176-3.24-3.432-3.24-1.584 0-3.12.624-4.416 1.392h-.096v-1.2l-.192-.096-3.144.408v.72l1.872.264v10.056l-1.872.288V18zm22.992.192c.864 0 1.752-.312 2.256-.624v-.696c-.504.144-1.056.24-1.632.24-1.464 0-1.992-.576-1.992-2.064V6.816h3.36v-1.08h-3.36V2.832h-1.152l-.288 2.904-1.896.432v.648h1.8v8.544c0 2.112 1.056 2.832 2.904 2.832zM33.456 18h5.28v-.648l-1.872-.288v-9.36c1.128-.504 2.352-.936 3.624-.936 1.848 0 2.712.672 2.712 2.424v7.872l-1.872.288V18h5.28v-.648l-1.872-.288V8.76c0-2.304-1.176-3.24-3.432-3.24-1.584 0-3.096.624-4.392 1.368h-.096V.24l-.192-.096-3.24.408v.696l1.944.288v15.528l-1.872.288V18zm19.848.24c-4.248 0-5.808-2.76-5.808-6.432 0-3.96 2.376-6.288 5.4-6.288 3.312 0 4.872 2.304 4.872 6.144h-8.664c.024 3.48 1.368 5.424 4.488 5.424 1.8 0 2.808-.384 3.672-.744v.816c-.768.456-1.992 1.08-3.96 1.08zm-4.176-7.488l6.912-.144c-.024-2.784-1.152-4.104-3.24-4.104-2.184 0-3.504 1.488-3.672 4.248zm18.528 7.512c3.048 0 4.536-1.536 4.536-3.576 0-1.824-.96-2.736-3.024-3.384l-1.464-.432c-1.824-.552-2.4-1.152-2.4-2.328 0-1.392 1.056-2.016 2.616-2.016 1.128 0 1.824.216 2.304.504l.456 1.824h.84l-.048-2.808c-.816-.288-1.944-.504-3.408-.504-2.712 0-4.152 1.488-4.152 3.36 0 1.752 1.056 2.736 2.928 3.288l1.464.456c1.776.528 2.424 1.032 2.424 2.424 0 1.416-1.056 2.208-2.952 2.208-1.176 0-2.064-.312-2.664-.624l-.48-2.064h-.888l.192 3c.96.336 2.256.672 3.72.672zm5.64-.264h5.28v-.648l-1.872-.288v-9.36c1.128-.504 2.352-.936 3.624-.936 1.848 0 2.712.672 2.712 2.424v7.872l-1.872.288V18h5.28v-.648l-1.872-.288V8.76c0-2.304-1.176-3.24-3.432-3.24-1.584 0-3.096.624-4.392 1.368h-.096V.24l-.192-.096-3.24.408v.696l1.944.288v15.528l-1.872.288V18zm17.64.264c-2.232 0-3.696-1.272-3.696-3.312 0-2.088 1.488-2.952 3.744-3.312l3.336-.528V9.528c0-2.04-.48-2.76-2.76-2.76-1.176 0-2.424.192-3.384.432v-.84c.936-.408 2.496-.84 4.008-.84 2.544 0 3.696 1.128 3.696 3.576V16.2c0 .888.456 1.08 1.2 1.08.144 0 .624-.024.696-.048v.648c-.264.144-.912.312-1.584.312-.984 0-1.584-.456-1.704-1.368h-.096c-.768.816-1.896 1.44-3.456 1.44zm.528-1.104c1.152 0 2.256-.528 2.856-1.2v-3.744l-2.856.216c-1.944.144-2.616.984-2.616 2.352 0 1.512.864 2.376 2.616 2.376zm12.288 1.08c-2.424 0-5.112-1.416-5.112-6.12 0-4.536 2.448-6.6 6-6.6 1.272 0 2.088.288 2.832.552V1.584l-2.112-.288V.6l3.456-.408.192.096v16.56l1.872.288v.648l-3.12.408-.192-.12v-1.32h-.12c-.864.84-2.016 1.488-3.696 1.488zm.456-1.224c1.296 0 2.424-.552 3.264-1.08V7.44c-.72-.48-1.464-.912-3-.912-2.472 0-4.224 1.344-4.224 5.376 0 3.768 1.536 5.112 3.96 5.112zm13.488 1.248c-3.216 0-5.712-2.328-5.712-6.312 0-3.984 2.616-6.432 5.688-6.432 3.192 0 5.712 2.352 5.712 6.312 0 3.984-2.64 6.432-5.688 6.432zm.024-1.008c2.064 0 4.032-1.464 4.032-5.28 0-3.912-2.016-5.448-4.104-5.448s-4.032 1.488-4.032 5.304c0 3.864 1.992 5.424 4.104 5.424zm11.088.744h1.176l3.312-9.912h.048L136.488 18h1.176l3.432-11.304 1.344-.264v-.696h-4.104v.696l1.608.264-2.64 9.096h-.072l-3.24-10.056h-1.032l-3.264 10.056h-.072l-2.688-9.096 1.632-.264v-.696h-4.512v.696l1.344.264L128.808 18zM6.384 42.264c-3.216 0-5.712-2.328-5.712-6.312 0-3.984 2.616-6.432 5.688-6.432 3.192 0 5.712 2.352 5.712 6.312 0 3.984-2.64 6.432-5.688 6.432zm.024-1.008c2.064 0 4.032-1.464 4.032-5.28 0-3.912-2.016-5.448-4.104-5.448s-4.032 1.488-4.032 5.304c0 3.864 1.992 5.424 4.104 5.424zm6.72.744h5.568v-.648l-2.184-.288V30.816h3.144v-1.08h-3.144V28.2c0-2.352 1.008-3 2.64-3 .72 0 1.2.096 1.704.216V24.6c-.504-.264-1.104-.48-2.136-.48-2.088 0-3.744 1.08-3.744 3.984v1.632l-1.824.432v.648h1.824v10.248l-1.848.288V42zm20.112.288c1.968 0 3.504-.312 4.8-.768v-5.736l1.848-.312v-.744h-5.832v.744l2.28.312v4.92c-.864.288-1.872.552-3.168.552-4.224 0-6.168-2.76-6.168-7.776 0-4.656 2.04-7.392 6-7.392 1.632 0 2.712.312 3.504.72l.72 2.712h.864l-.192-3.744c-.984-.384-2.424-.696-4.728-.696-4.368 0-7.944 2.448-7.944 8.712 0 5.856 2.976 8.496 8.016 8.496zM40.536 42h5.448v-.648l-2.04-.288v-8.88c.936-.792 1.944-1.224 3.24-1.224.216 0 .624.024.888.072v-1.368c-.12-.048-.504-.096-.696-.096-1.44 0-2.616.84-3.408 1.752h-.096v-1.608l-.192-.096-3.144.408v.72l1.872.264v10.056l-1.872.288V42zm14.4.24c-4.248 0-5.808-2.76-5.808-6.432 0-3.96 2.376-6.288 5.4-6.288 3.312 0 4.872 2.304 4.872 6.144h-8.664c.024 3.48 1.368 5.424 4.488 5.424 1.8 0 2.808-.384 3.672-.744v.816c-.768.456-1.992 1.08-3.96 1.08zm-4.176-7.488l6.912-.144c-.024-2.784-1.152-4.104-3.24-4.104-2.184 0-3.504 1.488-3.672 4.248zM60.384 42h5.28v-.648l-1.872-.288v-9.36c1.128-.504 2.352-.936 3.624-.936 1.848 0 2.712.672 2.712 2.424v7.872l-1.872.288V42h5.28v-.648l-1.872-.288V32.76c0-2.304-1.176-3.24-3.432-3.24-1.584 0-3.12.624-4.416 1.392h-.096v-1.2l-.192-.096-3.144.408v.72l1.872.264v10.056l-1.872.288V42zm13.824 0v-.648l1.848-.288V30.816h-1.824v-.648l1.824-.432v-1.632c0-2.904 1.656-3.984 3.744-3.984 1.032 0 1.632.216 2.136.48v.816c-.504-.12-.984-.216-1.704-.216-1.632 0-2.64.648-2.64 3v1.536h3.144v1.08h-3.144v10.248l2.184.288V42h-5.568zm13.176.24c-4.248 0-5.808-2.76-5.808-6.432 0-3.96 2.376-6.288 5.4-6.288 3.312 0 4.872 2.304 4.872 6.144h-8.664c.024 3.48 1.368 5.424 4.488 5.424 1.8 0 2.808-.384 3.672-.744v.816c-.768.456-1.992 1.08-3.96 1.08zm-4.176-7.488l6.912-.144c-.024-2.784-1.152-4.104-3.24-4.104-2.184 0-3.504 1.488-3.672 4.248zM92.856 42h5.352v-.648l-1.896-.288v-16.8l-.192-.12-3.432.408v.72l2.064.264v15.528l-1.896.288V42zm6 0h5.352v-.648l-1.896-.288v-16.8l-.192-.12-3.432.408v.72l2.064.264v15.528l-1.896.288V42z" id="In-the-shadow-of-Gre"/></g></g></g></svg>