<svg width="80" height="483" viewBox="0 0 80 483" xmlns="http://www.w3.org/2000/svg"><title>outline</title><g id="Assets" fill="none" fill-rule="evenodd"><g id="Artboard" fill="#FFF"><g id="outline"><path d="M79 458.08c0-6.437-1.448-11.42-3-14.016H64.63c.413 1.35.724 3.115.724 4.776 0 4.05-1.138 6.333-5.687 6.333H34.54v-10.59H22.027v10.59H9v16.924l12.82 2.492 2.896 7.474h9.823v-5.503h28.537c12.097 0 15.923-6.747 15.923-18.48zm-1-18.705V408.7H67.095l-1.04 3.652H38.118c-.623-1.773-1.142-3.443-1.142-5.738 0-3.652 1.35-5.32 5.09-5.32h23.99l1.04 3.65H78v-30.152H67.095L65.64 379.8H34.378c-9.66 0-13.606 6.156-13.606 14.294 0 8.033 2.805 12.728 6.855 17.737v.522H.935L0 414.23l2.493 25.562h11.01l1.66-5.947H65.64l1.455 5.53H78zm2-96.66c0 19.716-10.252 30.405-29.605 30.405-18.62 0-29.395-11.208-29.395-28.953 0-17.434 8.055-26.047 33.16-26.047v32.792c8.684-1.14 11.195-5.915 11.195-14.217 0-7.16-1.256-12.037-2.51-15.98H74.35c2.826 4.15 5.65 10.896 5.65 22zm-47 .993c0 3.33 1.94 6.124 11 6.876l-.54-13c-8.41 0-10.46 2.793-10.46 6.124zm46-70.628c0-6.437-1.448-11.42-3-14.016H64.63c.413 1.35.724 3.115.724 4.776 0 4.05-1.138 6.333-5.687 6.333H34.54v-10.59H22.027v10.59H9v16.924l12.82 2.492 2.896 7.474h9.823v-5.503h28.537c12.097 0 15.923-6.747 15.923-18.48zm1-47.508c0 19.32-11.193 29.5-29.186 29.5-19.77 0-29.814-12.984-29.814-29.5 0-19.32 10.46-29.5 29.082-29.5 19.77 0 29.918 13.088 29.918 29.5zm-13 .102c0-4.526-3.227-6.842-16.136-6.842-13.74 0-16.864 2.526-16.864 7.053 0 4.526 2.707 6.947 16.136 6.947 13.74 0 16.864-2.526 16.864-7.158zm11-48.17V158.64l-29.09-8.292v-.31L78 141.744v-18.657l-43.74-12.853-1.35-3.94H22v23.634h10.91l1.142-3.837 19.22 4.56v.416L22 140.085v14.926l31.273 9.018v.414l-19.22 4.665-1.144-4.044H22v29.23h10.91l1.35-3.94L78 177.505zm2-104.79c0 19.717-10.252 30.406-29.605 30.406C31.775 103.12 21 91.912 21 74.167c0-17.434 8.055-26.047 33.16-26.047v32.792c8.684-1.14 11.195-5.915 11.195-14.217 0-7.16-1.256-12.037-2.51-15.98H74.35c2.826 4.15 5.65 10.896 5.65 22zm-47 .994c0 3.33 1.94 6.124 11 6.876l-.54-13c-8.41 0-10.46 2.793-10.46 6.124zm45-29.132V10.042H67.118l-1.45 7.593H41.52c-1.244-3.12-1.658-6.45-1.658-11.546 0-1.977.207-3.954.518-5.098H21.518c-.207.728-.31 1.872-.31 2.81 0 6.448 3.937 11.13 9.223 14.04v.625h-8.6L21 20.235l2.384 24.757h11.09l1.657-5.93h29.537l1.45 5.514H78z" id="-"/></g></g></g></svg>